<svg viewBox="0 0 330 200" xmlns="http://www.w3.org/2000/svg"><g><g><g><g><g><line x1="62.8125" y1="175" x2="57.8125" y2="175" style="visibility: inherit;" fill="rgb(0, 0, 0)" stroke="rgb(204, 204, 204)" stroke-width="1px"></line><line x1="62.8125" y1="157.5" x2="57.8125" y2="157.5" style="visibility: inherit;" fill="rgb(0, 0, 0)" stroke="rgb(204, 204, 204)" stroke-width="1px"></line><line x1="62.8125" y1="140" x2="57.8125" y2="140" style="visibility: inherit;" fill="rgb(0, 0, 0)" stroke="rgb(204, 204, 204)" stroke-width="1px"></line><line x1="62.8125" y1="122.49999999999999" x2="57.8125" y2="122.49999999999999" style="visibility: inherit;" fill="rgb(0, 0, 0)" stroke="rgb(204, 204, 204)" stroke-width="1px"></line><line x1="62.8125" y1="105" x2="57.8125" y2="105" style="visibility: inherit;" fill="rgb(0, 0, 0)" stroke="rgb(204, 204, 204)" stroke-width="1px"></line><line x1="62.8125" y1="87.49999999999999" x2="57.8125" y2="87.49999999999999" style="visibility: inherit;" fill="rgb(0, 0, 0)" stroke="rgb(204, 204, 204)" stroke-width="1px"></line><line x1="62.8125" y1="69.99999999999999" x2="57.8125" y2="69.99999999999999" style="visibility: inherit;" fill="rgb(0, 0, 0)" stroke="rgb(204, 204, 204)" stroke-width="1px"></line><line x1="62.8125" y1="52.50000000000001" x2="57.8125" y2="52.50000000000001" style="visibility: inherit;" fill="rgb(0, 0, 0)" stroke="rgb(204, 204, 204)" stroke-width="1px"></line><line x1="62.8125" y1="34.99999999999999" x2="57.8125" y2="34.99999999999999" style="visibility: inherit;" fill="rgb(0, 0, 0)" stroke="rgb(204, 204, 204)" stroke-width="1px"></line><line x1="62.8125" y1="17.499999999999996" x2="57.8125" y2="17.499999999999996" style="visibility: inherit;" fill="rgb(0, 0, 0)" stroke="rgb(204, 204, 204)" stroke-width="1px"></line><line x1="62.8125" y1="0" x2="57.8125" y2="0" style="visibility: inherit;" fill="rgb(0, 0, 0)" stroke="rgb(204, 204, 204)" stroke-width="1px"></line></g><g transform="translate(52.8125, 0)"><text x="0" y="175" dx="0em" dy="0.3em" style="text-anchor: end; visibility: hidden; font-family: Roboto, sans-serif; font-size: 12px; font-weight: 200;" fill="rgb(33, 33, 33)" stroke="none" stroke-width="1px">-5e-3</text><text x="0" y="157.5" dx="0em" dy="0.3em" style="text-anchor: end; visibility: inherit; font-family: Roboto, sans-serif; font-size: 12px; font-weight: 200;" fill="rgb(33, 33, 33)" stroke="none" stroke-width="1px">0</text><text x="0" y="140" dx="0em" dy="0.3em" style="text-anchor: end; visibility: hidden; font-family: Roboto, sans-serif; font-size: 12px; font-weight: 200;" fill="rgb(33, 33, 33)" stroke="none" stroke-width="1px">5e-3</text><text x="0" y="122.49999999999999" dx="0em" dy="0.3em" style="text-anchor: end; visibility: inherit; font-family: Roboto, sans-serif; font-size: 12px; font-weight: 200;" fill="rgb(33, 33, 33)" stroke="none" stroke-width="1px">0.01</text><text x="0" y="105" dx="0em" dy="0.3em" style="text-anchor: end; visibility: hidden; font-family: Roboto, sans-serif; font-size: 12px; font-weight: 200;" fill="rgb(33, 33, 33)" stroke="none" stroke-width="1px">0.015</text><text x="0" y="87.49999999999999" dx="0em" dy="0.3em" style="text-anchor: end; visibility: inherit; font-family: Roboto, sans-serif; font-size: 12px; font-weight: 200;" fill="rgb(33, 33, 33)" stroke="none" stroke-width="1px">0.02</text><text x="0" y="69.99999999999999" dx="0em" dy="0.3em" style="text-anchor: end; visibility: hidden; font-family: Roboto, sans-serif; font-size: 12px; font-weight: 200;" fill="rgb(33, 33, 33)" stroke="none" stroke-width="1px">0.025</text><text x="0" y="52.50000000000001" dx="0em" dy="0.3em" style="text-anchor: end; visibility: inherit; font-family: Roboto, sans-serif; font-size: 12px; font-weight: 200;" fill="rgb(33, 33, 33)" stroke="none" stroke-width="1px">0.03</text><text x="0" y="34.99999999999999" dx="0em" dy="0.3em" style="text-anchor: end; visibility: hidden; font-family: Roboto, sans-serif; font-size: 12px; font-weight: 200;" fill="rgb(33, 33, 33)" stroke="none" stroke-width="1px">0.035</text><text x="0" y="17.499999999999996" dx="0em" dy="0.3em" style="text-anchor: end; visibility: inherit; font-family: Roboto, sans-serif; font-size: 12px; font-weight: 200;" fill="rgb(33, 33, 33)" stroke="none" stroke-width="1px">0.04</text><text x="0" y="0" dx="0em" dy="0.3em" style="text-anchor: end; visibility: hidden; font-family: Roboto, sans-serif; font-size: 12px; font-weight: 200;" fill="rgb(33, 33, 33)" stroke="none" stroke-width="1px">0.045</text></g><line x1="62.8125" y1="0" x2="62.8125" y2="175" fill="rgb(0, 0, 0)" stroke="rgb(204, 204, 204)" stroke-width="1px"></line></g></g><g transform="translate(62, 0)" clip-path="url(#clip_0)"><clipPath id="clip_0"><rect width="267" height="175"></rect></clipPath><g><g><g><line x1="0" y1="0" x2="0" y2="175" fill="rgb(0, 0, 0)" stroke="rgb(66, 66, 66)" stroke-width="1px" opacity="0.25"></line><line x1="19.084821428571427" y1="0" x2="19.084821428571427" y2="175" fill="rgb(0, 0, 0)" stroke="rgb(66, 66, 66)" stroke-width="1px" opacity="0.25"></line><line x1="38.169642857142854" y1="0" x2="38.169642857142854" y2="175" fill="rgb(0, 0, 0)" stroke="rgb(66, 66, 66)" stroke-width="1px" opacity="0.25"></line><line x1="57.254464285714285" y1="0" x2="57.254464285714285" y2="175" fill="rgb(0, 0, 0)" stroke="rgb(66, 66, 66)" stroke-width="1px" opacity="0.25"></line><line x1="76.33928571428571" y1="0" x2="76.33928571428571" y2="175" fill="rgb(0, 0, 0)" stroke="rgb(66, 66, 66)" stroke-width="1px" opacity="0.25"></line><line x1="95.42410714285714" y1="0" x2="95.42410714285714" y2="175" fill="rgb(0, 0, 0)" stroke="rgb(66, 66, 66)" stroke-width="1px" opacity="0.25"></line><line x1="114.50892857142857" y1="0" x2="114.50892857142857" y2="175" fill="rgb(0, 0, 0)" stroke="rgb(66, 66, 66)" stroke-width="1px" opacity="0.25"></line><line x1="133.59375" y1="0" x2="133.59375" y2="175" fill="rgb(0, 0, 0)" stroke="rgb(66, 66, 66)" stroke-width="1px" opacity="0.25"></line><line x1="152.67857142857142" y1="0" x2="152.67857142857142" y2="175" fill="rgb(0, 0, 0)" stroke="rgb(66, 66, 66)" stroke-width="1px" opacity="0.25"></line><line x1="171.76339285714286" y1="0" x2="171.76339285714286" y2="175" fill="rgb(0, 0, 0)" stroke="rgb(66, 66, 66)" stroke-width="1px" opacity="0.25"></line><line x1="190.84821428571428" y1="0" x2="190.84821428571428" y2="175" fill="rgb(0, 0, 0)" stroke="rgb(66, 66, 66)" stroke-width="1px" opacity="0.25"></line><line x1="209.93303571428572" y1="0" x2="209.93303571428572" y2="175" fill="rgb(0, 0, 0)" stroke="rgb(66, 66, 66)" stroke-width="1px" opacity="0.25"></line><line x1="229.01785714285714" y1="0" x2="229.01785714285714" y2="175" fill="rgb(0, 0, 0)" stroke="rgb(66, 66, 66)" stroke-width="1px" opacity="0.25"></line><line x1="248.10267857142858" y1="0" x2="248.10267857142858" y2="175" fill="rgb(0, 0, 0)" stroke="rgb(66, 66, 66)" stroke-width="1px" opacity="0.25"></line><line x1="267.1875" y1="0" x2="267.1875" y2="175" fill="rgb(0, 0, 0)" stroke="rgb(66, 66, 66)" stroke-width="1px" opacity="0.25"></line></g><g><line x1="0" y1="175" x2="267.1875" y2="175" fill="rgb(0, 0, 0)" stroke="rgb(66, 66, 66)" stroke-width="1px" opacity="0.25"></line><line x1="0" y1="157.5" x2="267.1875" y2="157.5" fill="rgb(0, 0, 0)" stroke="rgb(66, 66, 66)" stroke-width="1px" opacity="0.25"></line><line x1="0" y1="140" x2="267.1875" y2="140" fill="rgb(0, 0, 0)" stroke="rgb(66, 66, 66)" stroke-width="1px" opacity="0.25"></line><line x1="0" y1="122.49999999999999" x2="267.1875" y2="122.49999999999999" fill="rgb(0, 0, 0)" stroke="rgb(66, 66, 66)" stroke-width="1px" opacity="0.25"></line><line x1="0" y1="105" x2="267.1875" y2="105" fill="rgb(0, 0, 0)" stroke="rgb(66, 66, 66)" stroke-width="1px" opacity="0.25"></line><line x1="0" y1="87.49999999999999" x2="267.1875" y2="87.49999999999999" fill="rgb(0, 0, 0)" stroke="rgb(66, 66, 66)" stroke-width="1px" opacity="0.25"></line><line x1="0" y1="69.99999999999999" x2="267.1875" y2="69.99999999999999" fill="rgb(0, 0, 0)" stroke="rgb(66, 66, 66)" stroke-width="1px" opacity="0.25"></line><line x1="0" y1="52.50000000000001" x2="267.1875" y2="52.50000000000001" fill="rgb(0, 0, 0)" stroke="rgb(66, 66, 66)" stroke-width="1px" opacity="0.25"></line><line x1="0" y1="34.99999999999999" x2="267.1875" y2="34.99999999999999" fill="rgb(0, 0, 0)" stroke="rgb(66, 66, 66)" stroke-width="1px" opacity="0.25"></line><line x1="0" y1="17.499999999999996" x2="267.1875" y2="17.499999999999996" fill="rgb(0, 0, 0)" stroke="rgb(66, 66, 66)" stroke-width="1px" opacity="0.25"></line><line x1="0" y1="0" x2="267.1875" y2="0" fill="rgb(0, 0, 0)" stroke="rgb(66, 66, 66)" stroke-width="1px" opacity="0.25"></line></g></g></g><g><g><line x1="0" y1="157.5" x2="267.1875" y2="157.5" fill="rgb(0, 0, 0)" stroke="rgb(153, 153, 153)" stroke-width="1.5px"></line></g></g><g><g><line x1="19.084821428571427" y1="0" x2="19.084821428571427" y2="175" fill="rgb(0, 0, 0)" stroke="rgb(153, 153, 153)" stroke-width="1.5px"></line></g></g><g><g><g><g><g><path stroke="rgb(255, 112, 67)" stroke-width="2px" d="M20.0390625,106.16777304559945L20.99330357142857,103.25106923002748L21.947544642857142,99.97722133461917L22.901785714285715,96.38824151637142L23.856026785714285,92.53355450597304L24.810267857142858,88.46391942537619L25.76450892857143,84.22670597081064L26.71875,79.86301161375802L27.672991071428573,75.40648372519287L28.627232142857142,70.8834415848561L29.58147321428571,66.31369606267813L30.535714285714285,61.71171970878861L31.489955357142858,57.08782182378296L32.44419642857143,52.449196762602504L33.3984375,47.800783297172565L34.35267857142857,43.14591980971508L35.306919642857146,38.48683322800263L36.26116071428571,33.82500340178967L37.215401785714285,29.161406946241822L38.169642857142854,24.4966748694471L39.12388392857143,21.700552538177174L40.078125,20.030757255528776L41.03236607142858,19.04195363285896L41.98660714285714,18.46695654307723L42.940848214285715,18.145450290218086L43.895089285714285,17.981252769387044L44.849330357142854,17.916645043382783L45.80357142857143,17.9169855914358L46.7578125,17.96150002938614L47.71205357142857,18.03769246869137L48.66629464285714,18.138075818817523L49.620535714285715,18.258131752151915L50.574776785714285,18.395149273106863L51.52901785714286,18.547480922789465L52.48325892857143,18.714138225709007L53.4375,18.89449680394867L54.39174107142857,19.088176815200065L55.345982142857146,19.294939923153102L56.300223214285715,19.51461704891139L57.254464285714285,19.747085883458546L58.20870535714286,19.992262610536855L59.16294642857142,20.250081294149265L60.1171875,20.520471080244228L61.07142857142857,20.803368594755458L62.025669642857146,21.0987149516113L62.979910714285715,21.40645917294561L63.93415178571429,21.726534164191175L64.88839285714286,22.058884022386902L65.84263392857143,22.403443913316604L66.796875,22.760148859417882L67.75111607142857,23.128939012527155L68.70535714285714,23.509736740494684L69.65959821428572,23.90246938699845L70.61383928571429,24.30706728121301L71.56808035714286,24.72345732820454L72.52232142857142,25.151553947761325L73.4765625,25.591284930130744L74.43080357142857,26.04257044161618L75.38504464285714,26.505320858748345L76.33928571428571,26.979451115007162L77.29352678571429,27.464873662635686L78.24776785714286,27.961489034321907L79.20200892857143,28.469216688053024L80.15625,28.987956144557142L81.11049107142857,29.5176158238326L82.06473214285715,30.058093839220675L83.01897321428572,30.609292550881207L83.97321428571428,31.171101220845866L84.92745535714285,31.7434116830824L85.88169642857143,32.32613296093928L86.8359375,32.91914266814225L87.79017857142857,33.52234129589456L88.74441964285714,34.135611769447664L89.69866071428571,34.75883168988821L90.65290178571429,35.39189632542967L91.60714285714286,36.03468025212312L92.56138392857143,36.68706127694144L93.515625,37.34892957622347L94.46986607142858,38.020151455489014L95.42410714285714,38.70060497479869L96.37834821428571,39.39015960071821L97.33258928571428,40.08869007452929L98.28683035714286,40.796069086936726L99.24107142857143,41.51216288289285L100.1953125,42.23683905530487L101.14955357142857,42.96995557504007L102.10379464285714,43.71138550136749L103.05803571428572,44.46097965415874L104.01227678571429,45.21860158667897L104.96651785714286,45.984112061416724L105.92075892857142,46.75737016639449L106.875,47.53822616184556L107.82924107142857,48.32654326525213L108.78348214285714,49.12216899911689L109.73772321428571,49.92495189976769L110.69196428571429,50.73474632723376L111.64620535714286,51.55139970495251L112.60044642857143,52.37476311751573L113.5546875,53.20467419998865L114.50892857142857,54.04098598704947L115.46316964285715,54.88353728381522L116.41741071428572,55.73217661158876L117.37165178571428,56.58674528286835L118.32589285714285,57.44707767716634L119.28013392857143,58.313014445016314L120.234375,59.1844026072678L121.18861607142857,60.0610695376311L122.14285714285714,60.942859506268164L123.09709821428571,61.82960345188311L124.05133928571429,62.72113213741499L125.00558035714286,63.61728665115665L125.95982142857143,64.51789863039393L126.9140625,65.42279664951168L127.86830357142858,66.33181526826382L128.82254464285714,67.24477699140645L129.77678571428572,68.16152577543221L130.73102678571428,69.08187933232762L131.68526785714286,70.00567091981395L132.63950892857144,70.932724869131L133.59375,71.86287058644231L134.54799107142856,72.79593009205303L135.50223214285714,73.73173401326919L136.4564732142857,74.67010771078456L137.41071428571428,75.6108733853256L138.36495535714286,76.5538565570447L139.31919642857144,77.49888473774989L140.2734375,78.44578402653933L141.22767857142858,79.39436924407244L142.18191964285714,80.34446148246144L143.13616071428572,81.2958934197999L144.09040178571428,82.248478608738L145.04464285714283,83.20204781139527L145.99888392857142,84.15641603854081L146.953125,85.11140710405577L147.90736607142858,86.06684749598544L148.86160714285714,87.02255487606072L149.81584821428572,87.97835204103676L150.77008928571428,88.9340544378703L151.72433035714286,89.88949135756165L152.67857142857142,90.84448475131792L153.6328125,91.7988521664703L154.58705357142858,92.75241633113407L155.54129464285717,93.70500047419179L156.49553571428572,94.65643073268954L157.44977678571428,95.60652977316512L158.40401785714286,96.55511296444496L159.35825892857142,97.50200172754145L160.3125,98.44702893788825L161.26674107142856,99.39001348194604L162.22098214285714,100.33078149901108L163.17522321428572,101.26915044156478L164.1294642857143,102.2049521077738L165.08370535714286,103.13801125699672L166.03794642857144,104.06815364071365L166.9921875,104.99520430182596L167.94642857142856,105.91899046579113L168.90066964285714,106.83933805989687L169.8549107142857,107.75608135949055L170.80915178571428,108.66904400253581L171.76339285714286,109.57805497923067L172.71763392857144,110.48294779496533L173.671875,111.38355475269046L174.62611607142858,112.2797087377446L175.58035714285714,113.17123385793786L176.53459821428572,114.05796981618893L177.48883928571428,114.93975524166876L178.44308035714283,115.8164216000417L179.39732142857142,116.68780127427455L180.3515625,117.5537324131219L181.30580357142858,118.41406314406923L182.26004464285714,119.26862020095665L183.21428571428572,120.11725659698533L184.16852678571428,120.9598046051281L185.12276785714286,121.79610882740123L186.07700892857142,122.62601735169231L187.03125,123.44937514200534L187.98549107142858,124.26602268031075L188.93973214285717,125.07580819017191L189.89397321428572,125.87858845166265L190.84821428571428,126.67420321328581L191.80245535714286,127.46251460089171L192.75669642857142,128.24336687430073L193.7109375,129.01661443534093L194.66517857142856,129.78212037874817L195.61941964285714,130.5397367168579L196.57366071428572,131.28932511071048L197.5279017857143,132.03074192783046L198.48214285714286,132.76384818274263L199.43638392857144,133.4885148493557L200.390625,134.20459801558312L201.34486607142856,134.91196635129245L202.29910714285714,135.61049216396924L203.2533482142857,136.30004472826312L204.20758928571428,136.9804895433449L205.16183035714286,137.65170092583676L206.11607142857144,138.3135591347574L207.0703125,138.96593365219587L208.02455357142858,139.60871096341225L208.97879464285714,140.2417629823888L209.93303571428572,140.86497439389257L210.88727678571428,141.478232329755L211.84151785714283,142.08141756693658L212.79575892857142,142.67442206376873L213.75,143.25713112292635L214.70424107142858,143.82943518065184L215.65848214285714,144.391233946623L216.61272321428572,144.94241509258248L217.56696428571428,145.4828831887662L218.52120535714286,146.012531104992L219.47544642857142,146.5312622928233L220.4296875,147.03898231535322L221.38392857142858,147.53559474296372L222.33816964285717,148.0210012984842L223.29241071428572,148.49512019820926L224.24665178571428,148.95786162655304L225.20089285714286,149.40913355650454L226.15513392857142,149.84885730252833L227.109375,150.27694784160656L228.06361607142856,150.69332514923036L229.01785714285714,151.0979130149035L229.97209821428572,151.49063588672269L230.9263392857143,151.87141811899627L231.88058035714286,152.2401926477762L232.83482142857144,152.59688777927383L233.7890625,152.9414401245345L234.74330357142856,153.27378198756153L235.69754464285714,153.59385074826108L236.6517857142857,153.90159049916358L237.60602678571428,154.1969411298109L238.56026785714286,154.479848238515L239.51450892857144,154.75026231568285L240.46875,155.00812545976774L241.42299107142858,155.2533944548062L242.37723214285714,155.48602511729771L243.33147321428572,155.70596917911828L244.28571428571428,155.913190997154L245.23995535714283,156.10764750900375L246.19419642857142,156.28930122405293L247.1484375,156.458124595508L248.10267857142858,156.614081068947L249.05691964285714,156.7571437407825L250.01116071428572,156.88728476475674L250.96540178571428,157.00448075087542L251.91964285714286,157.10870933271548L252.87388392857142,157.1999520787433L253.828125,157.2781895848793L254.78236607142858,157.3434085406623L255.73660714285717,157.3955976225158L256.6908482142857,157.43474669803908L257.6450892857143,157.46084801882347" style="fill: none;" fill="none"></path></g></g></g></g><g opacity="0.2"><g><g><g><path stroke="rgb(255, 112, 67)" stroke-width="2px" d="M20.0390625,106.16777304559945L20.99330357142857,101.5010469406843L21.947544642857142,96.83432735502718L22.901785714285715,92.16760125011204L23.856026785714285,87.5008751451969L24.810267857142858,82.83414904028176L25.76450892857143,78.16742293536662L26.71875,73.5007033497095L27.672991071428573,68.83397072553633L28.627232142857142,64.16725113987923L29.58147321428571,59.50052503496409L30.535714285714285,54.83379893004895L31.489955357142858,50.16707282513381L32.44419642857143,45.500346720218666L33.3984375,40.833627134561546L34.35267857142857,36.166907548904426L35.306919642857146,31.500174924731258L36.26116071428571,26.833442300558094L37.215401785714285,22.166722714900974L38.169642857142854,17.500003129243854L39.12388392857143,17.506522387266163L40.078125,17.52611927688122L41.03236607142858,17.55876772105694L41.98660714285714,17.604467719793323L42.940848214285715,17.663193196058277L43.895089285714285,17.734957188367847L44.849330357142854,17.819733619689945L45.80357142857143,17.91749641299248L46.7578125,18.028271645307544L47.71205357142857,18.151981085538868L48.66629464285714,18.28865081071854L49.620535714285715,18.438215628266338L50.574776785714285,18.600675538182262L51.52901785714286,18.775978386402134L52.48325892857143,18.964124172925953L53.4375,19.16503466665745L54.39174107142857,19.378696829080585L55.345982142857146,19.605084583163265L56.300223214285715,19.844132736325268L57.254464285714285,20.095789134502414L58.20870535714286,20.360027700662616L59.16294642857142,20.63680931925774L60.1171875,20.926055759191517L61.07142857142857,21.22771486639977L62.025669642857146,21.541734486818317L62.979910714285715,21.86807550489903L63.93415178571429,22.20664665102959L64.88839285714286,22.55740880966187L65.84263392857143,22.920283749699596L66.796875,23.29520627856255L67.75111607142857,23.68212424218655L68.70535714285714,24.08093333244324L69.65959821428572,24.4915683567524L70.61383928571429,24.9139641225338L71.56808035714286,25.34804239869118L72.52232142857142,25.79369887709618L73.4765625,26.25088140368462L74.43080357142857,26.71949870884419L75.38504464285714,27.19944648444653L76.33928571428571,27.690646499395374L77.29352678571429,28.19300748407841L78.24776785714286,28.706412091851238L79.20200892857143,29.230808168649677L80.15625,29.76606532931328L81.11049107142857,30.312105342745784L82.06473214285715,30.868810862302784L83.01897321428572,31.436090618371967L83.97321428571428,32.01381422579289L84.92745535714285,32.601877376437194L85.88169642857143,33.200214877724655L86.8359375,33.80865722894669L87.79017857142857,34.427139237523086L88.74441964285714,35.05551747977734L89.69866071428571,35.69366157054902L90.65290178571429,36.341493278741844L91.60714285714286,36.998856142163284L92.56138392857143,37.66563281416894L93.515625,38.34173202514649L94.46986607142858,39.02698427438737L95.42410714285714,39.721285253763206L96.37834821428571,40.42449153959752L97.33258928571428,41.1364857852459L98.28683035714286,41.85713760554791L99.24107142857143,42.586303576827056L100.1953125,43.32385331392289L101.14955357142857,44.069630354642875L102.10379464285714,44.82353039085866L103.05803571428572,45.58537088334561L104.01227678571429,46.355034485459335L104.96651785714286,47.13237777352334L105.92075892857142,47.91725732386113L106.875,48.70951015502215L107.82924107142857,49.509018920362L108.78348214285714,50.31560759991408L109.73772321428571,51.12912625074387L110.69196428571429,51.94943796843291L111.64620535714286,52.776379771530635L112.60044642857143,53.60980823636056L113.5546875,54.44954082369805L114.50892857142857,55.29545366764069L115.46316964285715,56.14736422896386L116.41741071428572,57.00513560324908L117.37165178571428,57.868598289787776L118.32589285714285,58.737576268613346L119.28013392857143,59.611919596791275L120.234375,60.49148485064507L121.18861607142857,61.37606993317605L122.14285714285714,62.265544459223754L123.09709821428571,63.159719370305545L124.05133928571429,64.05842516571283L125.00558035714286,64.96151842176914L125.95982142857143,65.86881659924983L126.9140625,66.78014367818831L127.86830357142858,67.69534319639205L128.82254464285714,68.61421957612036L129.77678571428572,69.53664895147084L130.73102678571428,70.46240966767071L131.68526785714286,71.3913583010435L132.63950892857144,72.32330579310654L133.59375,73.25808916240929L134.54799107142856,74.1955193504691L135.50223214285714,75.13543989509343L136.4564732142857,76.07766825705765L137.41071428571428,77.02202189713715L138.36495535714286,77.96833131462334L139.31919642857144,78.91642700880764L140.2734375,79.86613295972346L141.22767857142858,80.81724707037209L142.18191964285714,81.76959984004496L143.13616071428572,82.72304132580756L144.09040178571428,83.67735639214514L145.04464285714283,84.63240161538123L145.99888392857142,85.5879683792591L146.953125,86.54389370232819L147.90736607142858,87.50000808387993L148.86160714285714,88.45611594617365L149.81584821428572,89.41204778850077L150.77008928571428,90.36760803312062L151.72433035714286,91.32264673709868L152.67857142857142,92.27697484195231L153.6328125,93.23040328919886L154.58705357142858,94.18276257812975L155.54129464285717,95.13387668877839L156.49553571428572,96.08357612043618L157.44977678571428,97.0316783338785L158.40401785714286,97.9779877513647L159.35825892857142,98.92233487218617L160.3125,99.86456975340842L161.26674107142856,100.80449029803275L162.22098214285714,101.7419335246086L163.17522321428572,102.6767038553953L164.1294642857143,103.60865460708736L165.08370535714286,104.53759998083113L166.03794642857144,105.46336721628903L166.9921875,106.38578029349445L167.94642857142856,107.30466971173881L168.90066964285714,108.21985945105551L169.8549107142857,109.13119630888103L170.80915178571428,110.0384879671037L171.76339285714286,110.94157144427298L172.71763392857144,111.84028701856731L173.671875,112.73446518927811L174.62611607142858,113.62393971532582L175.58035714285714,114.50852153822778L176.53459821428572,115.38807375356554L177.48883928571428,116.26243337988852L178.44308035714283,117.13142113760112L179.39732142857142,117.99487078562377L180.3515625,118.85262912139295L181.30580357142858,119.70455924049018L182.26004464285714,120.55045578628777L183.21428571428572,121.39021119102834L184.16852678571428,122.22362661734222L185.12276785714286,123.05056516081093L186.07700892857142,123.87088013812898L187.03125,124.68441182747482L187.98549107142858,125.49099398776887L188.93973214285717,126.29048645496367L189.89397321428572,127.08275884389876L190.84821428571428,127.8676253557205L191.80245535714286,128.64498168230054L192.75669642857142,129.41464528441426L193.7109375,130.17648577690122L194.66517857142856,130.93037929385898L195.61941964285714,131.67616122402248L196.57366071428572,132.4137077014893L197.5279017857143,133.14286715351042L198.48214285714286,133.8635075651109L199.43638392857144,134.57551484927532L200.390625,135.27872276492414L201.34486607142856,135.97301885485646L202.29910714285714,136.65828088298437L203.2533482142857,137.3343735747039L204.20758928571428,138.00115676596758L205.16183035714286,138.6585179995745L206.11607142857144,139.30634644813833L207.0703125,139.94449542835352L208.02455357142858,140.5728769302368L208.97879464285714,141.19134101085362L209.93303571428572,141.7997915111482L210.88727678571428,142.3981192335486L211.84151785714283,142.98619542270896L212.79575892857142,143.56392880901691L213.75,144.1311947116628L214.70424107142858,144.68789126724002L215.65848214285714,145.23393209557977L216.61272321428572,145.76918681152162L217.56696428571428,146.29358533304182L218.52120535714286,146.8070029793307L219.47544642857142,147.3093590745702L220.4296875,147.8005623491481L221.38392857142858,148.28051338437945L222.33816964285717,148.74911113176495L223.29241071428572,149.2062985477969L224.24665178571428,149.65197376906872L225.20089285714286,150.0860414514318L226.15513392857142,150.50844292156398L227.109375,150.9190836502239L228.06361607142856,151.3178911106661L229.01785714285714,151.70479481341317L229.97209821428572,152.0797201944515L230.9263392857143,152.4425914674066L231.88058035714286,152.79335444094613L232.83482142857144,153.1319304765202L233.7890625,153.45826864242554L234.74330357142856,153.7722947821021L235.69754464285714,154.07395388931036L236.6517857142857,154.36320012551732L237.60602678571428,154.6399670757819L238.56026785714286,154.9042089015711L239.51450892857144,155.15588343143463L240.46875,155.3949201758951L241.42299107142858,155.62129794736393L242.37723214285714,155.83497111103497L243.33147321428572,156.0358852718491L244.28571428571428,156.22402372420765L245.23995535714283,156.3993322767783L246.19419642857142,156.56178179662675L247.1484375,156.7113596526906L248.10267857142858,156.84801577910548L249.05691964285714,156.97173774853582L250.01116071428572,157.08249630071805L250.96540178571428,157.1802747300535L251.91964285714286,157.2650522054755L252.87388392857142,157.33681619778508L253.828125,157.39554584408324L254.78236607142858,157.4412369743368L255.73660714285717,157.47388124529607L256.6908482142857,157.49347031132402L257.6450892857143,157.5" style="fill: none;" fill="none"></path></g></g></g></g></g></g><g transform="translate(62, 175)" clip-path="url(#clip_1)"><clipPath id="clip_1"><rect width="267" height="25"></rect></clipPath><g><g><line x1="0" y1="0" x2="0" y2="5" style="visibility: inherit;" fill="rgb(0, 0, 0)" stroke="rgb(204, 204, 204)" stroke-width="1px"></line><line x1="19.084821428571427" y1="0" x2="19.084821428571427" y2="5" style="visibility: inherit;" fill="rgb(0, 0, 0)" stroke="rgb(204, 204, 204)" stroke-width="1px"></line><line x1="38.169642857142854" y1="0" x2="38.169642857142854" y2="5" style="visibility: inherit;" fill="rgb(0, 0, 0)" stroke="rgb(204, 204, 204)" stroke-width="1px"></line><line x1="57.254464285714285" y1="0" x2="57.254464285714285" y2="5" style="visibility: inherit;" fill="rgb(0, 0, 0)" stroke="rgb(204, 204, 204)" stroke-width="1px"></line><line x1="76.33928571428571" y1="0" x2="76.33928571428571" y2="5" style="visibility: inherit;" fill="rgb(0, 0, 0)" stroke="rgb(204, 204, 204)" stroke-width="1px"></line><line x1="95.42410714285714" y1="0" x2="95.42410714285714" y2="5" style="visibility: inherit;" fill="rgb(0, 0, 0)" stroke="rgb(204, 204, 204)" stroke-width="1px"></line><line x1="114.50892857142857" y1="0" x2="114.50892857142857" y2="5" style="visibility: inherit;" fill="rgb(0, 0, 0)" stroke="rgb(204, 204, 204)" stroke-width="1px"></line><line x1="133.59375" y1="0" x2="133.59375" y2="5" style="visibility: inherit;" fill="rgb(0, 0, 0)" stroke="rgb(204, 204, 204)" stroke-width="1px"></line><line x1="152.67857142857142" y1="0" x2="152.67857142857142" y2="5" style="visibility: inherit;" fill="rgb(0, 0, 0)" stroke="rgb(204, 204, 204)" stroke-width="1px"></line><line x1="171.76339285714286" y1="0" x2="171.76339285714286" y2="5" style="visibility: inherit;" fill="rgb(0, 0, 0)" stroke="rgb(204, 204, 204)" stroke-width="1px"></line><line x1="190.84821428571428" y1="0" x2="190.84821428571428" y2="5" style="visibility: inherit;" fill="rgb(0, 0, 0)" stroke="rgb(204, 204, 204)" stroke-width="1px"></line><line x1="209.93303571428572" y1="0" x2="209.93303571428572" y2="5" style="visibility: inherit;" fill="rgb(0, 0, 0)" stroke="rgb(204, 204, 204)" stroke-width="1px"></line><line x1="229.01785714285714" y1="0" x2="229.01785714285714" y2="5" style="visibility: inherit;" fill="rgb(0, 0, 0)" stroke="rgb(204, 204, 204)" stroke-width="1px"></line><line x1="248.10267857142858" y1="0" x2="248.10267857142858" y2="5" style="visibility: inherit;" fill="rgb(0, 0, 0)" stroke="rgb(204, 204, 204)" stroke-width="1px"></line><line x1="267.1875" y1="0" x2="267.1875" y2="5" style="visibility: inherit;" fill="rgb(0, 0, 0)" stroke="rgb(204, 204, 204)" stroke-width="1px"></line></g><g transform="translate(0, 8)"><text x="0" y="0" dx="0em" dy="0.95em" style="text-anchor: middle; visibility: hidden; font-family: Roboto, sans-serif; font-size: 12px; font-weight: 200;" fill="rgb(33, 33, 33)" stroke="none" stroke-width="1px">-2k</text><text x="19.084821428571427" y="0" dx="0em" dy="0.95em" style="text-anchor: middle; visibility: inherit; font-family: Roboto, sans-serif; font-size: 12px; font-weight: 200;" fill="rgb(33, 33, 33)" stroke="none" stroke-width="1px">0</text><text x="38.169642857142854" y="0" dx="0em" dy="0.95em" style="text-anchor: middle; visibility: hidden; font-family: Roboto, sans-serif; font-size: 12px; font-weight: 200;" fill="rgb(33, 33, 33)" stroke="none" stroke-width="1px">2k</text><text x="57.254464285714285" y="0" dx="0em" dy="0.95em" style="text-anchor: middle; visibility: inherit; font-family: Roboto, sans-serif; font-size: 12px; font-weight: 200;" fill="rgb(33, 33, 33)" stroke="none" stroke-width="1px">4k</text><text x="76.33928571428571" y="0" dx="0em" dy="0.95em" style="text-anchor: middle; visibility: hidden; font-family: Roboto, sans-serif; font-size: 12px; font-weight: 200;" fill="rgb(33, 33, 33)" stroke="none" stroke-width="1px">6k</text><text x="95.42410714285714" y="0" dx="0em" dy="0.95em" style="text-anchor: middle; visibility: inherit; font-family: Roboto, sans-serif; font-size: 12px; font-weight: 200;" fill="rgb(33, 33, 33)" stroke="none" stroke-width="1px">8k</text><text x="114.50892857142857" y="0" dx="0em" dy="0.95em" style="text-anchor: middle; visibility: hidden; font-family: Roboto, sans-serif; font-size: 12px; font-weight: 200;" fill="rgb(33, 33, 33)" stroke="none" stroke-width="1px">10k</text><text x="133.59375" y="0" dx="0em" dy="0.95em" style="text-anchor: middle; visibility: inherit; font-family: Roboto, sans-serif; font-size: 12px; font-weight: 200;" fill="rgb(33, 33, 33)" stroke="none" stroke-width="1px">12k</text><text x="152.67857142857142" y="0" dx="0em" dy="0.95em" style="text-anchor: middle; visibility: hidden; font-family: Roboto, sans-serif; font-size: 12px; font-weight: 200;" fill="rgb(33, 33, 33)" stroke="none" stroke-width="1px">14k</text><text x="171.76339285714286" y="0" dx="0em" dy="0.95em" style="text-anchor: middle; visibility: inherit; font-family: Roboto, sans-serif; font-size: 12px; font-weight: 200;" fill="rgb(33, 33, 33)" stroke="none" stroke-width="1px">16k</text><text x="190.84821428571428" y="0" dx="0em" dy="0.95em" style="text-anchor: middle; visibility: hidden; font-family: Roboto, sans-serif; font-size: 12px; font-weight: 200;" fill="rgb(33, 33, 33)" stroke="none" stroke-width="1px">18k</text><text x="209.93303571428572" y="0" dx="0em" dy="0.95em" style="text-anchor: middle; visibility: inherit; font-family: Roboto, sans-serif; font-size: 12px; font-weight: 200;" fill="rgb(33, 33, 33)" stroke="none" stroke-width="1px">20k</text><text x="229.01785714285714" y="0" dx="0em" dy="0.95em" style="text-anchor: middle; visibility: hidden; font-family: Roboto, sans-serif; font-size: 12px; font-weight: 200;" fill="rgb(33, 33, 33)" stroke="none" stroke-width="1px">22k</text><text x="248.10267857142858" y="0" dx="0em" dy="0.95em" style="text-anchor: middle; visibility: inherit; font-family: Roboto, sans-serif; font-size: 12px; font-weight: 200;" fill="rgb(33, 33, 33)" stroke="none" stroke-width="1px">24k</text><text x="267.1875" y="0" dx="0em" dy="0.95em" style="text-anchor: middle; visibility: hidden; font-family: Roboto, sans-serif; font-size: 12px; font-weight: 200;" fill="rgb(33, 33, 33)" stroke="none" stroke-width="1px">26k</text></g><line x1="0" y1="0" x2="267.1875" y2="0" fill="rgb(0, 0, 0)" stroke="rgb(204, 204, 204)" stroke-width="1px"></line></g></g></g></g></svg>