<svg viewBox="0 0 330 200" xmlns="http://www.w3.org/2000/svg"><g><g><g><g><g><line x1="31.125" y1="175" x2="26.125" y2="175" style="visibility: inherit;" fill="rgb(0, 0, 0)" stroke="rgb(204, 204, 204)" stroke-width="1px"></line><line x1="31.125" y1="155.55555555555554" x2="26.125" y2="155.55555555555554" style="visibility: inherit;" fill="rgb(0, 0, 0)" stroke="rgb(204, 204, 204)" stroke-width="1px"></line><line x1="31.125" y1="136.11111111111111" x2="26.125" y2="136.11111111111111" style="visibility: inherit;" fill="rgb(0, 0, 0)" stroke="rgb(204, 204, 204)" stroke-width="1px"></line><line x1="31.125" y1="116.66666666666669" x2="26.125" y2="116.66666666666669" style="visibility: inherit;" fill="rgb(0, 0, 0)" stroke="rgb(204, 204, 204)" stroke-width="1px"></line><line x1="31.125" y1="97.22222222222223" x2="26.125" y2="97.22222222222223" style="visibility: inherit;" fill="rgb(0, 0, 0)" stroke="rgb(204, 204, 204)" stroke-width="1px"></line><line x1="31.125" y1="77.77777777777777" x2="26.125" y2="77.77777777777777" style="visibility: inherit;" fill="rgb(0, 0, 0)" stroke="rgb(204, 204, 204)" stroke-width="1px"></line><line x1="31.125" y1="58.33333333333334" x2="26.125" y2="58.33333333333334" style="visibility: inherit;" fill="rgb(0, 0, 0)" stroke="rgb(204, 204, 204)" stroke-width="1px"></line><line x1="31.125" y1="38.888888888888886" x2="26.125" y2="38.888888888888886" style="visibility: inherit;" fill="rgb(0, 0, 0)" stroke="rgb(204, 204, 204)" stroke-width="1px"></line><line x1="31.125" y1="19.444444444444454" x2="26.125" y2="19.444444444444454" style="visibility: inherit;" fill="rgb(0, 0, 0)" stroke="rgb(204, 204, 204)" stroke-width="1px"></line><line x1="31.125" y1="0" x2="26.125" y2="0" style="visibility: inherit;" fill="rgb(0, 0, 0)" stroke="rgb(204, 204, 204)" stroke-width="1px"></line></g><g transform="translate(21.125, 0)"><text x="0" y="175" dx="0em" dy="0.3em" style="text-anchor: end; visibility: hidden; font-family: Roboto, sans-serif; font-size: 12px; font-weight: 200;" fill="rgb(33, 33, 33)" stroke="none" stroke-width="1px">-5</text><text x="0" y="155.55555555555554" dx="0em" dy="0.3em" style="text-anchor: end; visibility: inherit; font-family: Roboto, sans-serif; font-size: 12px; font-weight: 200;" fill="rgb(33, 33, 33)" stroke="none" stroke-width="1px">0</text><text x="0" y="136.11111111111111" dx="0em" dy="0.3em" style="text-anchor: end; visibility: hidden; font-family: Roboto, sans-serif; font-size: 12px; font-weight: 200;" fill="rgb(33, 33, 33)" stroke="none" stroke-width="1px">5</text><text x="0" y="116.66666666666669" dx="0em" dy="0.3em" style="text-anchor: end; visibility: inherit; font-family: Roboto, sans-serif; font-size: 12px; font-weight: 200;" fill="rgb(33, 33, 33)" stroke="none" stroke-width="1px">10</text><text x="0" y="97.22222222222223" dx="0em" dy="0.3em" style="text-anchor: end; visibility: hidden; font-family: Roboto, sans-serif; font-size: 12px; font-weight: 200;" fill="rgb(33, 33, 33)" stroke="none" stroke-width="1px">15</text><text x="0" y="77.77777777777777" dx="0em" dy="0.3em" style="text-anchor: end; visibility: inherit; font-family: Roboto, sans-serif; font-size: 12px; font-weight: 200;" fill="rgb(33, 33, 33)" stroke="none" stroke-width="1px">20</text><text x="0" y="58.33333333333334" dx="0em" dy="0.3em" style="text-anchor: end; visibility: hidden; font-family: Roboto, sans-serif; font-size: 12px; font-weight: 200;" fill="rgb(33, 33, 33)" stroke="none" stroke-width="1px">25</text><text x="0" y="38.888888888888886" dx="0em" dy="0.3em" style="text-anchor: end; visibility: inherit; font-family: Roboto, sans-serif; font-size: 12px; font-weight: 200;" fill="rgb(33, 33, 33)" stroke="none" stroke-width="1px">30</text><text x="0" y="19.444444444444454" dx="0em" dy="0.3em" style="text-anchor: end; visibility: hidden; font-family: Roboto, sans-serif; font-size: 12px; font-weight: 200;" fill="rgb(33, 33, 33)" stroke="none" stroke-width="1px">35</text><text x="0" y="0" dx="0em" dy="0.3em" style="text-anchor: end; visibility: hidden; font-family: Roboto, sans-serif; font-size: 12px; font-weight: 200;" fill="rgb(33, 33, 33)" stroke="none" stroke-width="1px">40</text></g><line x1="31.125" y1="0" x2="31.125" y2="175" fill="rgb(0, 0, 0)" stroke="rgb(204, 204, 204)" stroke-width="1px"></line></g></g><g transform="translate(31, 0)" clip-path="url(#clip_0)"><clipPath id="clip_0"><rect width="298" height="175"></rect></clipPath><g><g><g><line x1="0" y1="0" x2="0" y2="175" fill="rgb(0, 0, 0)" stroke="rgb(66, 66, 66)" stroke-width="1px" opacity="0.25"></line><line x1="21.348214285714285" y1="0" x2="21.348214285714285" y2="175" fill="rgb(0, 0, 0)" stroke="rgb(66, 66, 66)" stroke-width="1px" opacity="0.25"></line><line x1="42.69642857142857" y1="0" x2="42.69642857142857" y2="175" fill="rgb(0, 0, 0)" stroke="rgb(66, 66, 66)" stroke-width="1px" opacity="0.25"></line><line x1="64.04464285714285" y1="0" x2="64.04464285714285" y2="175" fill="rgb(0, 0, 0)" stroke="rgb(66, 66, 66)" stroke-width="1px" opacity="0.25"></line><line x1="85.39285714285714" y1="0" x2="85.39285714285714" y2="175" fill="rgb(0, 0, 0)" stroke="rgb(66, 66, 66)" stroke-width="1px" opacity="0.25"></line><line x1="106.74107142857143" y1="0" x2="106.74107142857143" y2="175" fill="rgb(0, 0, 0)" stroke="rgb(66, 66, 66)" stroke-width="1px" opacity="0.25"></line><line x1="128.0892857142857" y1="0" x2="128.0892857142857" y2="175" fill="rgb(0, 0, 0)" stroke="rgb(66, 66, 66)" stroke-width="1px" opacity="0.25"></line><line x1="149.4375" y1="0" x2="149.4375" y2="175" fill="rgb(0, 0, 0)" stroke="rgb(66, 66, 66)" stroke-width="1px" opacity="0.25"></line><line x1="170.78571428571428" y1="0" x2="170.78571428571428" y2="175" fill="rgb(0, 0, 0)" stroke="rgb(66, 66, 66)" stroke-width="1px" opacity="0.25"></line><line x1="192.13392857142858" y1="0" x2="192.13392857142858" y2="175" fill="rgb(0, 0, 0)" stroke="rgb(66, 66, 66)" stroke-width="1px" opacity="0.25"></line><line x1="213.48214285714286" y1="0" x2="213.48214285714286" y2="175" fill="rgb(0, 0, 0)" stroke="rgb(66, 66, 66)" stroke-width="1px" opacity="0.25"></line><line x1="234.83035714285714" y1="0" x2="234.83035714285714" y2="175" fill="rgb(0, 0, 0)" stroke="rgb(66, 66, 66)" stroke-width="1px" opacity="0.25"></line><line x1="256.1785714285714" y1="0" x2="256.1785714285714" y2="175" fill="rgb(0, 0, 0)" stroke="rgb(66, 66, 66)" stroke-width="1px" opacity="0.25"></line><line x1="277.5267857142857" y1="0" x2="277.5267857142857" y2="175" fill="rgb(0, 0, 0)" stroke="rgb(66, 66, 66)" stroke-width="1px" opacity="0.25"></line><line x1="298.875" y1="0" x2="298.875" y2="175" fill="rgb(0, 0, 0)" stroke="rgb(66, 66, 66)" stroke-width="1px" opacity="0.25"></line></g><g><line x1="0" y1="175" x2="298.875" y2="175" fill="rgb(0, 0, 0)" stroke="rgb(66, 66, 66)" stroke-width="1px" opacity="0.25"></line><line x1="0" y1="155.55555555555554" x2="298.875" y2="155.55555555555554" fill="rgb(0, 0, 0)" stroke="rgb(66, 66, 66)" stroke-width="1px" opacity="0.25"></line><line x1="0" y1="136.11111111111111" x2="298.875" y2="136.11111111111111" fill="rgb(0, 0, 0)" stroke="rgb(66, 66, 66)" stroke-width="1px" opacity="0.25"></line><line x1="0" y1="116.66666666666669" x2="298.875" y2="116.66666666666669" fill="rgb(0, 0, 0)" stroke="rgb(66, 66, 66)" stroke-width="1px" opacity="0.25"></line><line x1="0" y1="97.22222222222223" x2="298.875" y2="97.22222222222223" fill="rgb(0, 0, 0)" stroke="rgb(66, 66, 66)" stroke-width="1px" opacity="0.25"></line><line x1="0" y1="77.77777777777777" x2="298.875" y2="77.77777777777777" fill="rgb(0, 0, 0)" stroke="rgb(66, 66, 66)" stroke-width="1px" opacity="0.25"></line><line x1="0" y1="58.33333333333334" x2="298.875" y2="58.33333333333334" fill="rgb(0, 0, 0)" stroke="rgb(66, 66, 66)" stroke-width="1px" opacity="0.25"></line><line x1="0" y1="38.888888888888886" x2="298.875" y2="38.888888888888886" fill="rgb(0, 0, 0)" stroke="rgb(66, 66, 66)" stroke-width="1px" opacity="0.25"></line><line x1="0" y1="19.444444444444454" x2="298.875" y2="19.444444444444454" fill="rgb(0, 0, 0)" stroke="rgb(66, 66, 66)" stroke-width="1px" opacity="0.25"></line><line x1="0" y1="0" x2="298.875" y2="0" fill="rgb(0, 0, 0)" stroke="rgb(66, 66, 66)" stroke-width="1px" opacity="0.25"></line></g></g></g><g><g><line x1="0" y1="155.55555555555554" x2="298.875" y2="155.55555555555554" fill="rgb(0, 0, 0)" stroke="rgb(153, 153, 153)" stroke-width="1.5px"></line></g></g><g><g><line x1="21.348214285714285" y1="0" x2="21.348214285714285" y2="175" fill="rgb(0, 0, 0)" stroke="rgb(153, 153, 153)" stroke-width="1.5px"></line></g></g><g><g><g><g><g><path stroke="rgb(255, 112, 67)" stroke-width="2px" d="M22.415625,152.47042059898376L23.483035714285712,150.56980451775922L24.55044642857143,150.32652062083048L25.617857142857144,151.2158643086654L26.685267857142858,151.96150194930814L27.75267857142857,152.0259435138756L28.820089285714285,-172.34270750457478L41.629017857142856,-37.24294327114031L42.69642857142857,21.037064004435557L43.76383928571429,66.6342397227494L44.83125,97.08902968132543L45.89866071428572,113.34885113051045L46.966071428571425,123.54284852653966L48.033482142857146,131.32452963102142L49.10089285714286,130.6579152397164L50.16830357142857,138.02944027103254L51.23571428571429,136.3855966595805L52.303124999999994,141.1436815177624L53.370535714285715,144.61453705296123L54.43794642857143,142.938220029171L55.50535714285714,144.92643007405124L56.57276785714286,138.59284807724228L57.64017857142857,143.13900200659512L58.707589285714285,146.32324920486354L59.775000000000006,147.45294664642063L60.84241071428571,148.07825463010923L61.90982142857143,146.83911897473797L62.97723214285714,148.44767369496202L64.04464285714285,147.84024976212473L65.11205357142858,149.93611521535874L66.17946428571429,146.71788692526377L67.246875,148.82227456661641L68.31428571428572,147.0379525849332L69.38169642857143,148.90543630316057L70.44910714285714,149.42999157335836L71.51651785714286,150.29424202262504L72.58392857142857,149.378152944208L73.65133928571429,150.21611674085045L74.71875,151.23150234163168L75.78616071428571,151.2365317892123L76.85357142857143,150.68662588437104L77.92098214285714,151.55899726136502L78.98839285714286,151.4394841624999L80.05580357142857,151.95244236988083L81.12321428571428,152.291428326117L82.19062500000001,149.20233837146972L83.25803571428571,149.22211893559478L84.32544642857142,150.35944268004695L85.39285714285714,150.9927329249312L86.46026785714287,151.78669694691345L87.52767857142858,148.4814566722611L88.59508928571428,147.96445494996107L89.6625,149.1149191160728L90.72991071428571,150.47312141059214L91.79732142857144,149.4372273586759L92.86473214285715,146.64744908228928L93.93214285714285,148.8780461096358L94.99955357142856,150.3650997817008L96.06696428571429,151.41723189523083L97.134375,149.42600222689072L98.20178571428572,150.57752529141598L99.26919642857142,151.0981384477454L100.33660714285713,151.4705335832499L101.40401785714286,148.43881067720892L102.47142857142858,148.92369036793085L103.53883928571429,150.3292642992565L104.60624999999999,140.9060652696852L105.67366071428572,145.6959440760737L106.74107142857143,148.14931990091222L107.80848214285714,135.5221827642507L108.87589285714286,129.50117417406688L109.94330357142857,126.60601757240617L111.01071428571429,133.1699150406327L112.078125,140.982035719203L113.14553571428571,145.68224261241645L114.21294642857143,140.6663514709058L115.28035714285714,144.51933496409154L116.34776785714286,147.22960658796725L117.41517857142857,149.5044515208091L118.48258928571428,149.93466808452322L119.55000000000001,150.72557677592638L120.61741071428571,151.28315098278537L121.68482142857142,141.5235466591089L122.75223214285714,145.91407424532122L123.81964285714287,147.73248872287056L124.88705357142858,149.6960646113706L125.95446428571428,150.9218778465097L127.021875,151.67471329559976L128.0892857142857,152.1948343924091L129.15669642857142,152.43672807814448L130.22410714285715,151.88175935097263L131.29151785714285,152.2486359589163L132.35892857142858,152.09383910507475L133.4263392857143,152.19042117760887L134.49375,152.39978697452065L135.5611607142857,151.5885943829868L136.62857142857143,152.0552956391618L137.69598214285713,151.80440443067556L138.76339285714286,152.00321005170827L139.83080357142856,152.31667668121892L140.8982142857143,152.45642676252825L141.965625,152.49773328084967L143.03303571428572,152.5248857744621L144.10044642857144,152.7173133669481L145.16785714285714,152.83179508185165L146.23526785714284,152.84875849804746L147.30267857142857,152.92095639923758L148.3700892857143,152.93156531623728L149.4375,152.8500803209315L150.5049107142857,152.91440332646326L151.57232142857143,152.97912728947824L152.63973214285713,152.66033258005106L153.70714285714286,152.5267917405745L154.77455357142858,152.64880721052901L155.84196428571428,152.4240771522282L156.909375,152.18824168252564L157.9767857142857,150.76574136274957L159.04419642857144,150.25954291894774L160.11160714285714,150.35875808601423L161.17901785714284,149.47872332906962L162.24642857142857,150.8221944634028L163.31383928571427,151.45668916023553L164.38125000000002,151.6385807123787L165.44866071428572,152.10662934345046L166.51607142857142,152.33124849429288L167.58348214285715,150.1935315761798L168.65089285714285,149.82402238385214L169.71830357142858,151.0073883389281L170.78571428571428,151.58060339751256L171.85312499999998,152.00502715439382L172.92053571428573,152.35462081258632L173.98794642857143,151.9281504594129L175.05535714285716,150.41021073119887L176.12276785714286,151.3221150757958L177.19017857142856,151.75417929953207L178.2575892857143,152.1238754130687L179.325,152.08621330682152L180.39241071428572,152.283074225726L181.45982142857142,152.4728877340211L182.52723214285714,152.575552562542L183.59464285714287,152.66847597870597L184.66205357142857,152.73837893924468L185.7294642857143,152.86318884127152L186.796875,152.41678271856262L187.8642857142857,151.77604481080982L188.93169642857143,152.06579306423552L189.99910714285713,152.24335742546384L191.06651785714286,152.4158595753904L192.13392857142858,152.548071376342L193.20133928571428,152.65746293377384L194.26875,152.63250222550732L195.3361607142857,152.113134620403L196.40357142857144,152.45906229948554L197.47098214285714,152.64202369929683L198.53839285714284,152.73152257543933L199.60580357142857,152.75377851716624L200.67321428571427,152.73968458038405L201.74062500000002,152.81537900948294L202.80803571428572,152.89967357798014L203.87544642857142,152.87072209328568L204.94285714285715,152.63296398208632L206.01026785714285,152.73435462459912L207.07767857142858,152.65291327933795L208.14508928571428,152.57636481676033L209.21249999999998,152.5991304764362L210.27991071428573,152.50570427340207L211.34732142857143,152.5742915727413L212.41473214285716,151.706497266024L213.48214285714286,152.0938238665241L214.54955357142856,152.34027694651152L215.6169642857143,152.2844137873239L216.684375,152.1953143088942L217.75178571428572,152.1507400981607L218.81919642857142,152.37098600075112L219.88660714285714,152.61285141471305L220.95401785714287,152.71466424615483L222.02142857142857,152.61768071847604L223.0888392857143,152.6340620126837L224.15625,152.64677590567948L225.2236607142857,152.62366366250762L226.29107142857143,152.62669228631327L227.35848214285713,152.66683643928013L228.42589285714286,152.54618636292722L229.49330357142858,152.60975728015273L230.56071428571428,152.69136785548363L231.628125,152.68557855270498L232.6955357142857,152.73942548635253L233.76294642857144,152.7808168910767L234.83035714285714,152.4708816107474L235.89776785714284,152.53632667506574L236.96517857142857,152.51603794469008L238.03258928571427,152.45664705923008L239.10000000000002,152.43833407482654L240.16741071428572,152.60940439336193L241.23482142857142,152.62020137673895L242.30223214285715,152.7113373417964L243.36964285714285,152.807443433694L244.43705357142858,151.47465238592542L245.50446428571428,151.7930768904379L246.57187499999998,152.18466633422918L247.63928571428573,152.49127801575509L248.70669642857143,152.65149030875114L249.77410714285716,152.65734451619687L250.84151785714286,152.70427462688494L251.90892857142856,152.81847085892005L252.9763392857143,152.86624917523702L254.04375,152.80605352072567L255.11116071428572,152.42230578617114L256.1785714285714,152.56031666808838L257.24598214285714,152.66344093714926L258.31339285714284,152.7820399277164L259.3808035714286,152.83900062146967L260.4482142857143,152.84049873824165L261.515625,152.7976874957331L262.5830357142857,152.78306751813247L263.6504464285714,152.73562799843933L264.71785714285716,152.75128875744016L265.78526785714286,152.75111899849114L266.8526785714286,152.82171264932356L267.9200892857143,152.80120543692655L268.9875,152.83252230517556L270.0549107142857,152.83657781355407L271.1223214285714,152.79649197303948L272.1897321428571,152.80219832605337L273.25714285714287,152.80304493898547L274.32455357142857,152.83837003280692L275.39196428571427,152.81860426063653L276.459375,152.84710805611996L277.5267857142857,152.87744253805923L278.5941964285714,152.81136105417198L279.6616071428571,152.8673476971725L280.7290178571429,152.6522230239567L281.7964285714286,152.70512594240714L282.8638392857143,152.62853512573258L283.93125,152.75249255012946L284.99866071428573,152.82221588214458L286.06607142857143,152.82901236380602L287.13348214285713,152.82359311361392L288.2008928571429,152.74499743806885" style="fill: none;" fill="none"></path></g></g></g></g><g opacity="0.2"><g><g><g><path stroke="rgb(255, 112, 67)" stroke-width="2px" d="M22.415625,152.47042059898376L23.483035714285712,149.42943486902448L24.55044642857143,150.09296807977887L25.617857142857144,152.26173248555926L26.685267857142858,152.9350064529313L27.75267857142857,152.11508939663568L28.820089285714285,-636.1950683593749L34.15714285714286,-4385.906168619791L35.22455357142857,100.69813622368706L36.291964285714286,3.5814200507269884L37.359375,-240.94415876600482L38.426785714285714,52.812950346204964L39.49419642857143,142.3393670717875L40.56160714285714,-21.04709201388889L41.629017857142856,80.60565736558702L42.69642857142857,108.45174789428711L43.76383928571429,135.0275026427375L44.83125,142.77021249135336L45.89866071428572,137.73826228247748L46.966071428571425,138.83372386296588L48.033482142857146,142.99699597888522L49.10089285714286,129.6579964955648L50.16830357142857,149.0867089562946L51.23571428571429,133.91983376608954L52.303124999999994,148.2808044221666L53.370535714285715,149.82081843747034L54.43794642857143,140.42374504937067L55.50535714285714,147.90874474578433L56.57276785714286,129.09247583813138L57.64017857142857,149.9582325749927L58.707589285714285,151.09961986541748L59.775000000000006,149.1474927796258L60.84241071428571,149.01621659596762L61.90982142857143,144.980415503184L62.97723214285714,150.86050576633878L64.04464285714285,146.92911386489868L65.11205357142858,153.07991339100732L66.17946428571429,141.89054449399313L67.246875,151.9788560271263L68.31428571428572,144.36146961318124L69.38169642857143,151.70666188001633L70.44910714285714,150.21682447857327L71.51651785714286,151.59061769644418L72.58392857142857,148.00401932663388L73.65133928571429,151.47306243578592L74.71875,152.75458074278302L75.78616071428571,151.24407596058316L76.85357142857143,149.8617670271132L77.92098214285714,152.86755432685217L78.98839285714286,151.26021451420254L80.05580357142857,152.72187968095145L81.12321428571428,152.79990726047092L82.19062500000001,144.56870343950058L83.25803571428571,149.25178978178238L84.32544642857142,152.06542829672495L85.39285714285714,151.94266829225754L86.46026785714287,152.97764297988678L87.52767857142858,143.52359626028272L88.59508928571428,147.18895236651102L89.6625,150.84061536524032L90.72991071428571,152.51042485237122L91.79732142857144,147.88338628080155L92.86473214285715,142.46278166770935L93.93214285714285,152.22394165065555L94.99955357142856,152.5956802897983L96.06696428571429,152.9954300655259L97.134375,146.4391577243805L98.20178571428572,152.30480988820395L99.26919642857142,151.87905818223953L100.33660714285713,152.02912628650665L101.40401785714286,143.89122631814743L102.47142857142858,149.65100990401373L103.53883928571429,152.43762519624497L104.60624999999999,126.77126672532823L105.67366071428572,152.8807622856564L106.74107142857143,151.82938363817001L107.80848214285714,116.58147705925836L108.87589285714286,120.46966128879122L109.94330357142857,122.2632826699151L111.01071428571429,143.01576124297247L112.078125,152.70021673705844L113.14553571428571,152.7325529522366L114.21294642857143,133.14251475863986L115.28035714285714,150.29881020387015L116.34776785714286,151.29501402378082L117.41517857142857,152.9167189200719L118.48258928571428,150.5799929300944L119.55000000000001,151.9119398130311L120.61741071428571,152.11951229307388L121.68482142857142,126.88414017359416L122.75223214285714,152.49986562463974L123.81964285714287,150.46011043919458L124.88705357142858,152.64142844412063L125.95446428571428,152.76059769921832L127.021875,152.8039664692349L128.0892857142857,152.97501603762308L129.15669642857142,152.7995686067475L130.22410714285715,151.0493062602149L131.29151785714285,152.79895087083182L132.35892857142858,151.8616438243124L133.4263392857143,152.33529428641L134.49375,152.7138356698884L135.5611607142857,150.371805495686L136.62857142857143,152.75534752342438L137.69598214285713,151.4280676179462L138.76339285714286,152.3014184832573L139.83080357142856,152.7868766254849L140.8982142857143,152.66605188449225L141.965625,152.5596930583318L143.03303571428572,152.5656145148807L144.10044642857144,153.00595475567712L145.16785714285714,153.003517654207L146.23526785714284,152.87420362234116L147.30267857142857,153.02925325102277L148.3700892857143,152.94747869173685L149.4375,152.72785282797284L150.5049107142857,153.0108878347609L151.57232142857143,153.07621323400073L152.63973214285713,152.18214051591025L153.70714285714286,152.3264804813597L154.77455357142858,152.8318304154608L155.84196428571428,152.08698206477695L156.909375,151.8344884779718L157.9767857142857,148.63199088308548L159.04419642857144,149.50024525324503L160.11160714285714,150.50758083661398L161.17901785714284,148.15867119365268L162.24642857142857,152.83740116490256L163.31383928571427,152.4084312054846L164.38125000000002,151.91141804059345L165.44866071428572,152.80870229005814L166.51607142857142,152.6681772205565L167.58348214285715,146.98695619901022L168.65089285714285,149.26975859536066L169.71830357142858,152.78243727154202L170.78571428571428,152.44042598538928L171.85312499999998,152.64166278971567L172.92053571428573,152.87901129987506L173.98794642857143,151.28844492965274L175.05535714285716,148.13330113887787L176.12276785714286,152.6899715926912L177.19017857142856,152.4022756351365L178.2575892857143,152.6784195833736L179.325,152.02972014745077L180.39241071428572,152.57836560408273L181.45982142857142,152.75760799646378L182.52723214285714,152.72954980532327L183.59464285714287,152.80786110295188L184.66205357142857,152.8432333800528L185.7294642857143,153.05040369431177L186.796875,151.7471735344993L187.8642857142857,150.8149379491806L188.93169642857143,152.50041544437408L189.99910714285713,152.50970396730634L191.06651785714286,152.67461280028024L192.13392857142858,152.74638907776938L193.20133928571428,152.82155026992163L194.26875,152.59506116310757L195.3361607142857,151.33408321274652L196.40357142857144,152.9779538181093L197.47098214285714,152.9164657990138L198.53839285714284,152.8657708896531L199.60580357142857,152.7871624297566L200.67321428571427,152.71854367521075L201.74062500000002,152.92892065313126L202.80803571428572,153.02611543072592L203.87544642857142,152.827294866244L204.94285714285715,152.2763268152873L206.01026785714285,152.88644058836832L207.07767857142858,152.53075126144623L208.14508928571428,152.46154212289386L209.21249999999998,152.63327896595L210.27991071428573,152.3655649688509L211.34732142857143,152.67717252175015L212.41473214285716,150.40480580594803L213.48214285714286,152.67481376727423L214.54955357142856,152.70995656649274L215.6169642857143,152.20061904854245L216.684375,152.06166509124967L217.75178571428572,152.0838787820604L218.81919642857142,152.70135485463672L219.88660714285714,152.97564953565598L220.95401785714287,152.8673834933175L222.02142857142857,152.47220542695788L223.0888392857143,152.65863395399518L224.15625,152.66584674517313L225.2236607142857,152.58899529774985L226.29107142857143,152.63123522202176L227.35848214285713,152.72705266873044L228.42589285714286,152.36521124839783L229.49330357142858,152.70511365599103L230.56071428571428,152.81378371848L231.628125,152.67689459853702L232.6955357142857,152.82019588682388L233.76294642857144,152.842903998163L234.83035714285714,152.00597869025336L235.89776785714284,152.6344942715433L236.96517857142857,152.48560484912662L238.03258928571427,152.3675607310401L239.10000000000002,152.41086459822125L240.16741071428572,152.86600987116495L241.23482142857142,152.63639685180453L242.30223214285715,152.8480412893825L243.36964285714285,152.9516025715404L244.43705357142858,149.47546581427258L245.50446428571428,152.27071364720663L246.57187499999998,152.77205049991608L247.63928571428573,152.95119553804398L248.70669642857143,152.89180874824524L249.77410714285716,152.66612582736545L250.84151785714286,152.77466979291702L251.90892857142856,152.98976520697275L252.9763392857143,152.93791664971246L254.04375,152.71576003895865L255.11116071428572,151.84668418433932L256.1785714285714,152.76733299096426L257.24598214285714,152.81812734074063L258.31339285714284,152.95993841356702L259.3808035714286,152.9244416620996L260.4482142857143,152.8427459133996L261.515625,152.7334706319703L262.5830357142857,152.76113755173154L263.6504464285714,152.6644687188996L264.71785714285716,152.7747798959414L265.78526785714286,152.75086436006757L266.8526785714286,152.9276031255722L267.9200892857143,152.77044461833106L268.9875,152.87949760754904L270.0549107142857,152.84266107612186L271.1223214285714,152.73636321226755L272.1897321428571,152.81075785557428L273.25714285714287,152.8043148583836L274.32455357142857,152.89135767353906L275.39196428571427,152.78895560238098L276.459375,152.88986374934515L277.5267857142857,152.92294426096808L278.5941964285714,152.71223882834116L279.6616071428571,152.95132766167322L280.7290178571429,152.32953601413303L281.7964285714286,152.78448032008276L282.8638392857143,152.5136489007208L283.93125,152.93842868672476L284.99866071428573,152.9268008801672L286.06607142857143,152.83920708629822L287.13348214285713,152.81546423832577L288.2008928571429,152.62710392475128" style="fill: none;" fill="none"></path></g></g></g></g></g></g><g transform="translate(31, 175)" clip-path="url(#clip_1)"><clipPath id="clip_1"><rect width="298" height="25"></rect></clipPath><g><g><line x1="0" y1="0" x2="0" y2="5" style="visibility: inherit;" fill="rgb(0, 0, 0)" stroke="rgb(204, 204, 204)" stroke-width="1px"></line><line x1="21.348214285714285" y1="0" x2="21.348214285714285" y2="5" style="visibility: inherit;" fill="rgb(0, 0, 0)" stroke="rgb(204, 204, 204)" stroke-width="1px"></line><line x1="42.69642857142857" y1="0" x2="42.69642857142857" y2="5" style="visibility: inherit;" fill="rgb(0, 0, 0)" stroke="rgb(204, 204, 204)" stroke-width="1px"></line><line x1="64.04464285714285" y1="0" x2="64.04464285714285" y2="5" style="visibility: inherit;" fill="rgb(0, 0, 0)" stroke="rgb(204, 204, 204)" stroke-width="1px"></line><line x1="85.39285714285714" y1="0" x2="85.39285714285714" y2="5" style="visibility: inherit;" fill="rgb(0, 0, 0)" stroke="rgb(204, 204, 204)" stroke-width="1px"></line><line x1="106.74107142857143" y1="0" x2="106.74107142857143" y2="5" style="visibility: inherit;" fill="rgb(0, 0, 0)" stroke="rgb(204, 204, 204)" stroke-width="1px"></line><line x1="128.0892857142857" y1="0" x2="128.0892857142857" y2="5" style="visibility: inherit;" fill="rgb(0, 0, 0)" stroke="rgb(204, 204, 204)" stroke-width="1px"></line><line x1="149.4375" y1="0" x2="149.4375" y2="5" style="visibility: inherit;" fill="rgb(0, 0, 0)" stroke="rgb(204, 204, 204)" stroke-width="1px"></line><line x1="170.78571428571428" y1="0" x2="170.78571428571428" y2="5" style="visibility: inherit;" fill="rgb(0, 0, 0)" stroke="rgb(204, 204, 204)" stroke-width="1px"></line><line x1="192.13392857142858" y1="0" x2="192.13392857142858" y2="5" style="visibility: inherit;" fill="rgb(0, 0, 0)" stroke="rgb(204, 204, 204)" stroke-width="1px"></line><line x1="213.48214285714286" y1="0" x2="213.48214285714286" y2="5" style="visibility: inherit;" fill="rgb(0, 0, 0)" stroke="rgb(204, 204, 204)" stroke-width="1px"></line><line x1="234.83035714285714" y1="0" x2="234.83035714285714" y2="5" style="visibility: inherit;" fill="rgb(0, 0, 0)" stroke="rgb(204, 204, 204)" stroke-width="1px"></line><line x1="256.1785714285714" y1="0" x2="256.1785714285714" y2="5" style="visibility: inherit;" fill="rgb(0, 0, 0)" stroke="rgb(204, 204, 204)" stroke-width="1px"></line><line x1="277.5267857142857" y1="0" x2="277.5267857142857" y2="5" style="visibility: inherit;" fill="rgb(0, 0, 0)" stroke="rgb(204, 204, 204)" stroke-width="1px"></line><line x1="298.875" y1="0" x2="298.875" y2="5" style="visibility: inherit;" fill="rgb(0, 0, 0)" stroke="rgb(204, 204, 204)" stroke-width="1px"></line></g><g transform="translate(0, 8)"><text x="0" y="0" dx="0em" dy="0.95em" style="text-anchor: middle; visibility: hidden; font-family: Roboto, sans-serif; font-size: 12px; font-weight: 200;" fill="rgb(33, 33, 33)" stroke="none" stroke-width="1px">-2k</text><text x="21.348214285714285" y="0" dx="0em" dy="0.95em" style="text-anchor: middle; visibility: inherit; font-family: Roboto, sans-serif; font-size: 12px; font-weight: 200;" fill="rgb(33, 33, 33)" stroke="none" stroke-width="1px">0</text><text x="42.69642857142857" y="0" dx="0em" dy="0.95em" style="text-anchor: middle; visibility: hidden; font-family: Roboto, sans-serif; font-size: 12px; font-weight: 200;" fill="rgb(33, 33, 33)" stroke="none" stroke-width="1px">2k</text><text x="64.04464285714285" y="0" dx="0em" dy="0.95em" style="text-anchor: middle; visibility: inherit; font-family: Roboto, sans-serif; font-size: 12px; font-weight: 200;" fill="rgb(33, 33, 33)" stroke="none" stroke-width="1px">4k</text><text x="85.39285714285714" y="0" dx="0em" dy="0.95em" style="text-anchor: middle; visibility: hidden; font-family: Roboto, sans-serif; font-size: 12px; font-weight: 200;" fill="rgb(33, 33, 33)" stroke="none" stroke-width="1px">6k</text><text x="106.74107142857143" y="0" dx="0em" dy="0.95em" style="text-anchor: middle; visibility: inherit; font-family: Roboto, sans-serif; font-size: 12px; font-weight: 200;" fill="rgb(33, 33, 33)" stroke="none" stroke-width="1px">8k</text><text x="128.0892857142857" y="0" dx="0em" dy="0.95em" style="text-anchor: middle; visibility: hidden; font-family: Roboto, sans-serif; font-size: 12px; font-weight: 200;" fill="rgb(33, 33, 33)" stroke="none" stroke-width="1px">10k</text><text x="149.4375" y="0" dx="0em" dy="0.95em" style="text-anchor: middle; visibility: inherit; font-family: Roboto, sans-serif; font-size: 12px; font-weight: 200;" fill="rgb(33, 33, 33)" stroke="none" stroke-width="1px">12k</text><text x="170.78571428571428" y="0" dx="0em" dy="0.95em" style="text-anchor: middle; visibility: hidden; font-family: Roboto, sans-serif; font-size: 12px; font-weight: 200;" fill="rgb(33, 33, 33)" stroke="none" stroke-width="1px">14k</text><text x="192.13392857142858" y="0" dx="0em" dy="0.95em" style="text-anchor: middle; visibility: inherit; font-family: Roboto, sans-serif; font-size: 12px; font-weight: 200;" fill="rgb(33, 33, 33)" stroke="none" stroke-width="1px">16k</text><text x="213.48214285714286" y="0" dx="0em" dy="0.95em" style="text-anchor: middle; visibility: hidden; font-family: Roboto, sans-serif; font-size: 12px; font-weight: 200;" fill="rgb(33, 33, 33)" stroke="none" stroke-width="1px">18k</text><text x="234.83035714285714" y="0" dx="0em" dy="0.95em" style="text-anchor: middle; visibility: inherit; font-family: Roboto, sans-serif; font-size: 12px; font-weight: 200;" fill="rgb(33, 33, 33)" stroke="none" stroke-width="1px">20k</text><text x="256.1785714285714" y="0" dx="0em" dy="0.95em" style="text-anchor: middle; visibility: hidden; font-family: Roboto, sans-serif; font-size: 12px; font-weight: 200;" fill="rgb(33, 33, 33)" stroke="none" stroke-width="1px">22k</text><text x="277.5267857142857" y="0" dx="0em" dy="0.95em" style="text-anchor: middle; visibility: inherit; font-family: Roboto, sans-serif; font-size: 12px; font-weight: 200;" fill="rgb(33, 33, 33)" stroke="none" stroke-width="1px">24k</text><text x="298.875" y="0" dx="0em" dy="0.95em" style="text-anchor: middle; visibility: hidden; font-family: Roboto, sans-serif; font-size: 12px; font-weight: 200;" fill="rgb(33, 33, 33)" stroke="none" stroke-width="1px">26k</text></g><line x1="0" y1="0" x2="298.875" y2="0" fill="rgb(0, 0, 0)" stroke="rgb(204, 204, 204)" stroke-width="1px"></line></g></g></g></g></svg>