<svg viewBox="0 0 330 200" xmlns="http://www.w3.org/2000/svg"><g><g><g><g><g><line x1="73.375" y1="175" x2="68.375" y2="175" style="visibility: inherit;" fill="rgb(0, 0, 0)" stroke="rgb(204, 204, 204)" stroke-width="1px"></line><line x1="73.375" y1="150" x2="68.375" y2="150" style="visibility: inherit;" fill="rgb(0, 0, 0)" stroke="rgb(204, 204, 204)" stroke-width="1px"></line><line x1="73.375" y1="125" x2="68.375" y2="125" style="visibility: inherit;" fill="rgb(0, 0, 0)" stroke="rgb(204, 204, 204)" stroke-width="1px"></line><line x1="73.375" y1="100" x2="68.375" y2="100" style="visibility: inherit;" fill="rgb(0, 0, 0)" stroke="rgb(204, 204, 204)" stroke-width="1px"></line><line x1="73.375" y1="75" x2="68.375" y2="75" style="visibility: inherit;" fill="rgb(0, 0, 0)" stroke="rgb(204, 204, 204)" stroke-width="1px"></line><line x1="73.375" y1="50" x2="68.375" y2="50" style="visibility: inherit;" fill="rgb(0, 0, 0)" stroke="rgb(204, 204, 204)" stroke-width="1px"></line><line x1="73.375" y1="25.000000000000007" x2="68.375" y2="25.000000000000007" style="visibility: inherit;" fill="rgb(0, 0, 0)" stroke="rgb(204, 204, 204)" stroke-width="1px"></line><line x1="73.375" y1="0" x2="68.375" y2="0" style="visibility: inherit;" fill="rgb(0, 0, 0)" stroke="rgb(204, 204, 204)" stroke-width="1px"></line></g><g transform="translate(63.375, 0)"><text x="0" y="175" dx="0em" dy="0.3em" style="text-anchor: end; visibility: hidden; font-family: Roboto, sans-serif; font-size: 12px; font-weight: 200;" fill="rgb(33, 33, 33)" stroke="none" stroke-width="1px">-5e+7</text><text x="0" y="150" dx="0em" dy="0.3em" style="text-anchor: end; visibility: inherit; font-family: Roboto, sans-serif; font-size: 12px; font-weight: 200;" fill="rgb(33, 33, 33)" stroke="none" stroke-width="1px">0</text><text x="0" y="125" dx="0em" dy="0.3em" style="text-anchor: end; visibility: inherit; font-family: Roboto, sans-serif; font-size: 12px; font-weight: 200;" fill="rgb(33, 33, 33)" stroke="none" stroke-width="1px">5e+7</text><text x="0" y="100" dx="0em" dy="0.3em" style="text-anchor: end; visibility: inherit; font-family: Roboto, sans-serif; font-size: 12px; font-weight: 200;" fill="rgb(33, 33, 33)" stroke="none" stroke-width="1px">1e+8</text><text x="0" y="75" dx="0em" dy="0.3em" style="text-anchor: end; visibility: inherit; font-family: Roboto, sans-serif; font-size: 12px; font-weight: 200;" fill="rgb(33, 33, 33)" stroke="none" stroke-width="1px">1.5e+8</text><text x="0" y="50" dx="0em" dy="0.3em" style="text-anchor: end; visibility: inherit; font-family: Roboto, sans-serif; font-size: 12px; font-weight: 200;" fill="rgb(33, 33, 33)" stroke="none" stroke-width="1px">2e+8</text><text x="0" y="25.000000000000007" dx="0em" dy="0.3em" style="text-anchor: end; visibility: inherit; font-family: Roboto, sans-serif; font-size: 12px; font-weight: 200;" fill="rgb(33, 33, 33)" stroke="none" stroke-width="1px">2.5e+8</text><text x="0" y="0" dx="0em" dy="0.3em" style="text-anchor: end; visibility: hidden; font-family: Roboto, sans-serif; font-size: 12px; font-weight: 200;" fill="rgb(33, 33, 33)" stroke="none" stroke-width="1px">3e+8</text></g><line x1="73.375" y1="0" x2="73.375" y2="175" fill="rgb(0, 0, 0)" stroke="rgb(204, 204, 204)" stroke-width="1px"></line></g></g><g transform="translate(73, 0)" clip-path="url(#clip_0)"><clipPath id="clip_0"><rect width="256" height="175"></rect></clipPath><g><g><g><line x1="0" y1="0" x2="0" y2="175" fill="rgb(0, 0, 0)" stroke="rgb(66, 66, 66)" stroke-width="1px" opacity="0.25"></line><line x1="18.330357142857142" y1="0" x2="18.330357142857142" y2="175" fill="rgb(0, 0, 0)" stroke="rgb(66, 66, 66)" stroke-width="1px" opacity="0.25"></line><line x1="36.660714285714285" y1="0" x2="36.660714285714285" y2="175" fill="rgb(0, 0, 0)" stroke="rgb(66, 66, 66)" stroke-width="1px" opacity="0.25"></line><line x1="54.99107142857142" y1="0" x2="54.99107142857142" y2="175" fill="rgb(0, 0, 0)" stroke="rgb(66, 66, 66)" stroke-width="1px" opacity="0.25"></line><line x1="73.32142857142857" y1="0" x2="73.32142857142857" y2="175" fill="rgb(0, 0, 0)" stroke="rgb(66, 66, 66)" stroke-width="1px" opacity="0.25"></line><line x1="91.65178571428572" y1="0" x2="91.65178571428572" y2="175" fill="rgb(0, 0, 0)" stroke="rgb(66, 66, 66)" stroke-width="1px" opacity="0.25"></line><line x1="109.98214285714285" y1="0" x2="109.98214285714285" y2="175" fill="rgb(0, 0, 0)" stroke="rgb(66, 66, 66)" stroke-width="1px" opacity="0.25"></line><line x1="128.3125" y1="0" x2="128.3125" y2="175" fill="rgb(0, 0, 0)" stroke="rgb(66, 66, 66)" stroke-width="1px" opacity="0.25"></line><line x1="146.64285714285714" y1="0" x2="146.64285714285714" y2="175" fill="rgb(0, 0, 0)" stroke="rgb(66, 66, 66)" stroke-width="1px" opacity="0.25"></line><line x1="164.9732142857143" y1="0" x2="164.9732142857143" y2="175" fill="rgb(0, 0, 0)" stroke="rgb(66, 66, 66)" stroke-width="1px" opacity="0.25"></line><line x1="183.30357142857144" y1="0" x2="183.30357142857144" y2="175" fill="rgb(0, 0, 0)" stroke="rgb(66, 66, 66)" stroke-width="1px" opacity="0.25"></line><line x1="201.63392857142856" y1="0" x2="201.63392857142856" y2="175" fill="rgb(0, 0, 0)" stroke="rgb(66, 66, 66)" stroke-width="1px" opacity="0.25"></line><line x1="219.9642857142857" y1="0" x2="219.9642857142857" y2="175" fill="rgb(0, 0, 0)" stroke="rgb(66, 66, 66)" stroke-width="1px" opacity="0.25"></line><line x1="238.29464285714286" y1="0" x2="238.29464285714286" y2="175" fill="rgb(0, 0, 0)" stroke="rgb(66, 66, 66)" stroke-width="1px" opacity="0.25"></line><line x1="256.625" y1="0" x2="256.625" y2="175" fill="rgb(0, 0, 0)" stroke="rgb(66, 66, 66)" stroke-width="1px" opacity="0.25"></line></g><g><line x1="0" y1="175" x2="256.625" y2="175" fill="rgb(0, 0, 0)" stroke="rgb(66, 66, 66)" stroke-width="1px" opacity="0.25"></line><line x1="0" y1="150" x2="256.625" y2="150" fill="rgb(0, 0, 0)" stroke="rgb(66, 66, 66)" stroke-width="1px" opacity="0.25"></line><line x1="0" y1="125" x2="256.625" y2="125" fill="rgb(0, 0, 0)" stroke="rgb(66, 66, 66)" stroke-width="1px" opacity="0.25"></line><line x1="0" y1="100" x2="256.625" y2="100" fill="rgb(0, 0, 0)" stroke="rgb(66, 66, 66)" stroke-width="1px" opacity="0.25"></line><line x1="0" y1="75" x2="256.625" y2="75" fill="rgb(0, 0, 0)" stroke="rgb(66, 66, 66)" stroke-width="1px" opacity="0.25"></line><line x1="0" y1="50" x2="256.625" y2="50" fill="rgb(0, 0, 0)" stroke="rgb(66, 66, 66)" stroke-width="1px" opacity="0.25"></line><line x1="0" y1="25.000000000000007" x2="256.625" y2="25.000000000000007" fill="rgb(0, 0, 0)" stroke="rgb(66, 66, 66)" stroke-width="1px" opacity="0.25"></line><line x1="0" y1="0" x2="256.625" y2="0" fill="rgb(0, 0, 0)" stroke="rgb(66, 66, 66)" stroke-width="1px" opacity="0.25"></line></g></g></g><g><g><line x1="0" y1="150" x2="256.625" y2="150" fill="rgb(0, 0, 0)" stroke="rgb(153, 153, 153)" stroke-width="1.5px"></line></g></g><g><g><line x1="18.330357142857142" y1="0" x2="18.330357142857142" y2="175" fill="rgb(0, 0, 0)" stroke="rgb(153, 153, 153)" stroke-width="1.5px"></line></g></g><g><g><g><g><g><path stroke="rgb(255, 112, 67)" stroke-width="2px" d="M19.246875,149.99999793110132L20.163392857142856,149.9999976361656L21.079910714285713,149.99999765333737L21.99642857142857,149.9999978219607L22.91294642857143,149.99999792910802L23.829464285714288,149.9999979703519L24.745982142857144,149.99995103108753L25.6625,149.99985151945603L26.57901785714286,149.99964089314724L27.49553571428571,149.99948748288455L28.41205357142857,149.99952712134308L29.32857142857143,149.99936787655523L30.245089285714286,149.99900472213605L31.161607142857143,112.73490833564043L32.078125,51.80362402641113L32.99464285714286,14.022325496286687L33.911160714285714,-6.518254336224189L41.24330357142858,-2.591326259082427L42.159821428571426,1.9575320040715938L43.07633928571428,6.465154215950878L43.99285714285714,10.890941647421004L44.909375,15.212265780672723L45.82589285714286,19.4172323980121L46.74241071428571,23.500314380404998L47.658928571428575,27.459801743365194L48.575446428571425,31.296191629214288L49.49196428571429,35.01129588397068L50.40848214285714,38.60766399220654L51.325,42.088256031224226L52.24151785714286,45.456240039577835L53.15803571428572,48.71485443584655L54.074553571428574,51.867370268531474L54.99107142857142,54.91702056519551L55.90758928571429,57.86698354148332L56.82410714285714,60.720378926263116L57.740625,63.480252956554764L58.65714285714286,66.14955977439529L59.573660714285715,68.73119186490551L60.49017857142857,71.22794711909903L61.40669642857143,73.64254747154978L62.323214285714286,75.97765328298229L63.23973214285714,78.23582716981981L64.15625,80.41956510190953L65.07276785714285,82.53127986115597L65.98928571428571,84.5733247166995L66.90580357142858,86.54797723002315L67.82232142857143,88.45744233801588L68.73883928571428,90.30387020281071L69.65535714285714,92.08932852168708L70.571875,93.81582911301264L71.48839285714286,95.48531826780781L72.40491071428572,97.09968856068483L73.32142857142857,98.66076993641097L74.23794642857143,100.17032916184664L75.15446428571428,101.630082297108L76.07098214285715,103.04169577826481L76.9875,104.40676946695892L77.90401785714285,105.72686488017536L78.82053571428573,107.0034869281052L79.73705357142858,108.23809055686314L80.65357142857142,109.43209433411789L81.57008928571427,110.58685820047074L82.48660714285715,111.70369732028244L83.403125,112.78389359216946L84.31964285714285,113.82867855530166L85.23616071428572,114.83924393318101L86.15267857142857,115.81674635990862L87.06919642857143,116.76227101594516L87.98571428571428,117.67693780956711L88.90223214285714,118.56177708574026L89.81875,119.41780945144417L90.73526785714286,120.24600247086649L91.65178571428572,121.0473014825199L92.56830357142857,121.82106568951193L93.48482142857142,122.56737061370715L94.40133928571429,123.2910127682243L95.31785714285715,123.99220766093458L96.234375,124.67138139656075L97.15089285714285,125.32743523793646L98.06741071428571,125.96323074276187L98.98392857142858,126.57913524565711L99.90044642857143,127.17522754739429L100.81696428571428,127.75259412843656L101.73348214285714,128.31172767706195L102.65,128.85309020623717L103.56651785714286,129.3773285237423L104.48303571428572,129.88498671424537L105.39955357142857,130.37302162854724L106.31607142857143,130.84378657712833L107.23258928571428,131.301828746277L108.14910714285715,131.7467188477662L109.065625,132.17839050865973L109.98214285714285,132.59697510519584L110.89866071428573,133.00272986311748L111.81517857142858,133.3959699178705L112.73169642857142,133.77704595072228L113.64821428571427,134.14632117043337L114.56473214285715,134.50414790226003L115.48125,134.850909941356L116.39776785714285,135.18696556481362L117.31428571428572,135.51265933888817L118.23080357142857,135.8283304033329L119.14732142857143,136.13430304199974L120.06383928571428,136.43089422519984L120.98035714285714,136.7184113351199L121.896875,136.99714560107194L122.81339285714286,137.26738656064316L123.72991071428572,137.5294111363859L124.64642857142857,137.78348388183156L125.56294642857142,138.02986232909893L126.47946428571429,138.26879539745937L127.39598214285715,138.50051683847562L128.3125,138.7252653030854L129.22901785714285,138.94326438185124L130.1455357142857,139.15472782911073L131.06205357142855,139.35986309746644L131.97857142857143,139.55886985847985L132.8950892857143,139.7519443150879L133.81160714285716,139.93927378905275L134.728125,140.12103827343165L135.64464285714286,140.297412964059L136.5611607142857,140.46856537843541L137.47767857142856,140.63466002706124L138.39419642857143,140.79585281623676L139.31071428571428,140.95229528974204L140.22723214285713,141.10413597384525L141.14375,141.25151398430714L142.06026785714286,141.39456799058428L142.9767857142857,141.53342939435058L143.89330357142856,141.66822503661035L144.80982142857144,141.79907922196622L145.7263392857143,141.92611053317972L146.64285714285714,142.04942451990783L147.559375,142.1691463119447L148.47589285714287,142.28538198716683L149.39241071428572,142.39761159230008L150.30892857142857,142.50658535538005L151.22544642857144,142.61261141322802L152.1419642857143,142.71566844793682L153.05848214285714,142.80852486876208L153.975,142.90133612125723L154.89151785714284,142.99324447275436L155.8080357142857,143.08355548365262L156.72455357142857,143.17184749019157L157.64107142857145,143.25797189411495L158.5575892857143,143.34182893646894L159.47410714285715,143.4233859618814L160.390625,143.50263677712883L161.30714285714285,143.5796294662773L162.2236607142857,143.65440207976638L163.14017857142855,143.72699924785982L164.05669642857143,143.7974443487159L164.9732142857143,143.86583980922953L165.88973214285716,143.93223528553773L166.80625,143.99667877132265L167.72276785714286,144.05921986279358L168.6392857142857,144.11986511767614L169.55580357142856,144.17872407060568L170.47232142857143,144.23583644236342L171.38883928571428,144.29124586541803L172.30535714285713,144.34499411925083L173.221875,144.3971232715505L174.13839285714286,144.44767596293028L175.0549107142857,144.49669157775818L175.97142857142856,144.5442105466549L176.88794642857144,144.59027172799293L177.8044642857143,144.63489563679576L178.72098214285714,144.67814178207746L179.6375,144.72004286924647L180.55401785714287,144.7606323215479L181.47053571428572,144.79994279292873L182.38705357142857,144.83800467575725L183.30357142857144,144.87485020545435L184.2200892857143,144.9105095232726L185.13660714285714,144.94501171396357L186.053125,144.97838582837815L186.96964285714284,145.01066009702689L187.8861607142857,145.04186085821613L188.80267857142857,145.07201611492968L189.71919642857145,145.1011510689578L190.6357142857143,145.1292906413747L191.55223214285715,145.1564599848248L192.46875,145.1826825908949L193.38526785714285,145.20798175453692L194.3017857142857,145.23237965272216L195.21830357142855,145.2558989916333L196.13482142857143,145.27856059497998L197.0513392857143,145.30038655698797L197.96785714285716,145.3213969341928L198.884375,145.34161116051567L199.80089285714286,145.3610498963094L200.7174107142857,145.37973233778564L201.63392857142856,145.3976766026714L202.55044642857143,145.41490136160283L203.46696428571428,145.4314244169617L204.38348214285713,145.44726425017703L205.3,145.46243735010623L206.21651785714286,145.47696121006373L207.1330357142857,145.49085272603824L208.04955357142856,145.50412803562293L208.96607142857144,145.51680302137376L209.8825892857143,145.52889381282426L210.79910714285714,145.54041588769454L211.715625,145.55138493261674L212.63214285714287,145.56181575957004L213.54866071428572,145.57172365574203L214.46517857142857,145.5811229934452L215.38169642857144,145.59002899606713L216.2982142857143,145.59845539764027L217.21473214285714,145.60641703858417L218.13125,145.6139274231505L219.04776785714284,145.62100085389028L219.9642857142857,145.62765071233417L220.88080357142857,145.63389142740053L221.79732142857145,145.6397366564403L222.7138392857143,145.64519899386417L223.63035714285715,145.6502927963185L224.546875,145.65503087779112L225.46339285714285,145.65942632667466L226.3799107142857,145.6634925960048L227.29642857142855,145.6672425576029L228.21294642857143,145.67068993456175L229.1294642857143,145.67384716073704L230.04598214285716,145.67672709644222L230.9625,145.67934305786534L231.87901785714286,145.6817072347192L232.7955357142857,145.68383314083152L233.71205357142856,145.6857334844989L234.62857142857143,145.68742089069934L235.54508928571428,145.6889087344196L236.46160714285713,145.69020944065176L237.378125,145.69133546439107L238.29464285714286,145.69230027863463L239.2111607142857,145.69311636718078L240.12767857142856,145.69379662030846L241.04419642857144,145.6943529721851L241.9607142857143,145.69479978331105L242.87723214285714,145.69514806998663L243.79375,145.695412241992L244.71026785714287,145.69560354519518L245.62678571428572,145.69573812711712L246.54330357142857,145.69581907627028L247.45982142857144,145.69586744576216" style="fill: none;" fill="none"></path></g></g></g></g><g opacity="0.2"><g><g><g><path stroke="rgb(255, 112, 67)" stroke-width="2px" d="M19.246875,149.99999793110132L20.163392857142856,149.9999974592042L21.079910714285713,149.9999976698222L21.99642857142857,149.99999802026176L22.91294642857143,149.99999806899953L23.829464285714288,149.99999802740703L24.745982142857144,149.9998839071884L25.6625,149.999706430542L26.57901785714286,149.9993302602539L27.49553571428571,149.99925968652346L28.41205357142857,149.99958621951293L29.32857142857143,149.99912987597656L30.245089285714286,149.99846117626953L31.161607142857143,56.91176799999999L32.078125,-39.52167999999998L40.32678571428571,-0.5563200000000101L41.24330357142858,4.187968000000003L42.159821428571426,8.7808L43.07633928571428,13.226575999999996L43.99285714285714,17.529616000000008L44.909375,21.694247999999998L45.82589285714286,25.724679999999996L46.74241071428571,29.62493599999999L47.658928571428575,33.399032L48.575446428571425,37.050776000000006L49.49196428571429,40.58395199999999L50.40848214285714,44.002216000000004L51.325,47.309143999999996L52.24151785714286,50.50821599999999L53.15803571428572,53.60277599999999L54.074553571428574,56.596144L54.99107142857142,59.491496000000005L55.90758928571429,62.29192799999999L56.82410714285714,65.000472L57.740625,67.620064L58.65714285714286,70.15352L59.573660714285715,72.60364L60.49017857142857,74.97308L61.40669642857143,77.264448L62.323214285714286,79.48031200000001L63.23973214285714,81.623088L64.15625,83.695172L65.07276785714285,85.69885199999999L65.98928571428571,87.636392L66.90580357142858,89.50995599999999L67.82232142857143,91.32164000000002L68.73883928571428,93.073512L69.65535714285714,94.767516L70.571875,96.40557999999999L71.48839285714286,97.98955199999999L72.40491071428572,99.521244L73.32142857142857,101.00239199999999L74.23794642857143,102.434668L75.15446428571428,103.81971200000001L76.07098214285715,105.159116L76.9875,106.45437999999999L77.90401785714285,107.707008L78.82053571428573,108.91841999999998L79.73705357142858,110.089996L80.65357142857142,111.2231L81.57008928571427,112.31900399999999L82.48660714285715,113.37895599999999L83.403125,114.404188L84.31964285714285,115.39585600000001L85.23616071428572,116.355092L86.15267857142857,117.28299999999999L87.06919642857143,118.18055799999999L87.98571428571428,119.04893799999999L88.90223214285714,119.889036L89.81875,120.701858L90.73526785714286,121.488292L91.65178571428572,122.24924999999999L92.56830357142857,122.98171199999999L93.48482142857142,123.68682799999999L94.40133928571429,124.37647599999998L95.31785714285715,125.044L96.234375,125.69014200000001L97.15089285714285,126.31151600000001L98.06741071428571,126.916924L98.98392857142858,127.50299199999999L99.90044642857143,128.069366L100.81696428571428,128.618644L101.73348214285714,129.150428L102.65,129.665134L103.56651785714286,130.16368599999998L104.48303571428572,130.646474L105.39955357142857,131.105074L106.31607142857143,131.549934L107.23258928571428,131.98889200000002L108.14910714285715,132.414054L109.065625,132.825898L109.98214285714285,133.224852L110.89866071428573,133.61136199999999L111.81517857142858,133.98583000000002L112.73169642857142,134.34866L113.64821428571427,134.700234L114.56473214285715,135.040888L115.48125,135.371053L116.39776785714285,135.691049L117.31428571428572,136.00119999999998L118.23080357142857,136.301837L119.14732142857143,136.59326199999998L120.06383928571428,136.875781L120.98035714285714,137.149687L121.896875,137.415247L122.81339285714286,137.67274799999998L123.72991071428572,137.922448L124.64642857142857,138.164593L125.56294642857142,138.39943L126.47946428571429,138.627195L127.39598214285715,138.848099L128.3125,139.062388L129.22901785714285,139.270263L130.1455357142857,139.471923L131.06205357142855,139.66756600000002L131.97857142857143,139.85738L132.8950892857143,140.041556L133.81160714285716,140.220268L134.728125,140.393685L135.64464285714286,140.561975L136.5611607142857,140.725294L137.47767857142856,140.883802L138.39419642857143,141.037642L139.31071428571428,141.186959L140.22723214285713,141.331897L141.14375,141.472581L142.06026785714286,141.609149L142.9767857142857,141.74172149999998L143.89330357142856,141.8704185L144.80982142857144,141.9953605L145.7263392857143,142.1166575L146.64285714285714,142.2343955L147.559375,142.348729L148.47589285714287,142.4597355L149.39241071428572,142.565956L150.30892857142857,142.670046L151.22544642857144,142.7716505L152.1419642857143,142.87025400000002L153.05848214285714,142.9478095L153.975,143.040553L154.89151785714284,143.13110700000001L155.8080357142857,143.219022L156.72455357142857,143.3042855L157.64107142857145,143.3871585L158.5575892857143,143.4676145L159.47410714285715,143.54572149999998L160.390625,143.62151300000002L161.30714285714285,143.69511849999998L162.2236607142857,143.766561L163.14017857142855,143.835895L164.05669642857143,143.903112L164.9732142857143,143.968433L165.88973214285716,144.0318285L166.80625,144.093344L167.72276785714286,144.1530315L168.6392857142857,144.210833L169.55580357142856,144.2670125L170.47232142857143,144.321505L171.38883928571428,144.37436L172.30535714285713,144.42561650000002L173.221875,144.475317L174.13839285714286,144.523505L175.0549107142857,144.570215L175.97142857142856,144.615489L176.88794642857144,144.65936349999998L177.8044642857143,144.7018315L178.72098214285714,144.743011L179.6375,144.7828945L180.55401785714287,144.8215165L181.47053571428572,144.85890849999998L182.38705357142857,144.89509750000002L183.30357142857144,144.9301185L184.2200892857143,144.9639985L185.13660714285714,144.996765L186.053125,145.028447L186.96964285714284,145.05907150000002L187.8861607142857,145.088662L188.80267857142857,145.117249L189.71919642857145,145.1448535L190.6357142857143,145.1715L191.55223214285715,145.197214L192.46875,145.2220165L193.38526785714285,145.2459305L194.3017857142857,145.26897649999998L195.21830357142855,145.291178L196.13482142857143,145.312553L197.0513392857143,145.3331255L197.96785714285716,145.3529125L198.884375,145.3719325L199.80089285714286,145.390208L200.7174107142857,145.407756L201.63392857142856,145.424593L202.55044642857143,145.4407385L203.46696428571428,145.456209L204.38348214285713,145.471024L205.3,145.485197L206.21651785714286,145.498747L207.1330357142857,145.51169000000002L208.04955357142856,145.524041L208.96607142857144,145.5358155L209.8825892857143,145.54703L210.79910714285714,145.55769899999999L211.715625,145.5678385L212.63214285714287,145.577462L213.54866071428572,145.5865855L214.46517857142857,145.595222L215.38169642857144,145.603388L216.2982142857143,145.611095L217.21473214285714,145.6183595L218.13125,145.625193L219.04776785714284,145.631611L219.9642857142857,145.6376255L220.88080357142857,145.6432525L221.79732142857145,145.6485045L222.7138392857143,145.6533925L223.63035714285715,145.6579335L224.546875,145.662138L225.46339285714285,145.6660195L226.3799107142857,145.669592L227.29642857142855,145.6728675L228.21294642857143,145.675861L229.1294642857143,145.678583L230.04598214285716,145.681047L230.9625,145.683267L231.87901785714286,145.6852535L232.7955357142857,145.687022L233.71205357142856,145.688584L234.62857142857143,145.689952L235.54508928571428,145.69114050000002L236.46160714285713,145.6921605L237.378125,145.69302449999998L238.29464285714286,145.6937475L239.2111607142857,145.6943405L240.12767857142856,145.694817L241.04419642857144,145.6951875L241.9607142857143,145.69547L242.87723214285714,145.6956705L243.79375,145.6958085L244.71026785714287,145.6958905L245.62678571428572,145.69593999999998L246.54330357142857,145.6959405L247.45982142857144,145.69593999999998" style="fill: none;" fill="none"></path></g></g></g></g></g></g><g transform="translate(73, 175)" clip-path="url(#clip_1)"><clipPath id="clip_1"><rect width="256" height="25"></rect></clipPath><g><g><line x1="0" y1="0" x2="0" y2="5" style="visibility: inherit;" fill="rgb(0, 0, 0)" stroke="rgb(204, 204, 204)" stroke-width="1px"></line><line x1="18.330357142857142" y1="0" x2="18.330357142857142" y2="5" style="visibility: inherit;" fill="rgb(0, 0, 0)" stroke="rgb(204, 204, 204)" stroke-width="1px"></line><line x1="36.660714285714285" y1="0" x2="36.660714285714285" y2="5" style="visibility: inherit;" fill="rgb(0, 0, 0)" stroke="rgb(204, 204, 204)" stroke-width="1px"></line><line x1="54.99107142857142" y1="0" x2="54.99107142857142" y2="5" style="visibility: inherit;" fill="rgb(0, 0, 0)" stroke="rgb(204, 204, 204)" stroke-width="1px"></line><line x1="73.32142857142857" y1="0" x2="73.32142857142857" y2="5" style="visibility: inherit;" fill="rgb(0, 0, 0)" stroke="rgb(204, 204, 204)" stroke-width="1px"></line><line x1="91.65178571428572" y1="0" x2="91.65178571428572" y2="5" style="visibility: inherit;" fill="rgb(0, 0, 0)" stroke="rgb(204, 204, 204)" stroke-width="1px"></line><line x1="109.98214285714285" y1="0" x2="109.98214285714285" y2="5" style="visibility: inherit;" fill="rgb(0, 0, 0)" stroke="rgb(204, 204, 204)" stroke-width="1px"></line><line x1="128.3125" y1="0" x2="128.3125" y2="5" style="visibility: inherit;" fill="rgb(0, 0, 0)" stroke="rgb(204, 204, 204)" stroke-width="1px"></line><line x1="146.64285714285714" y1="0" x2="146.64285714285714" y2="5" style="visibility: inherit;" fill="rgb(0, 0, 0)" stroke="rgb(204, 204, 204)" stroke-width="1px"></line><line x1="164.9732142857143" y1="0" x2="164.9732142857143" y2="5" style="visibility: inherit;" fill="rgb(0, 0, 0)" stroke="rgb(204, 204, 204)" stroke-width="1px"></line><line x1="183.30357142857144" y1="0" x2="183.30357142857144" y2="5" style="visibility: inherit;" fill="rgb(0, 0, 0)" stroke="rgb(204, 204, 204)" stroke-width="1px"></line><line x1="201.63392857142856" y1="0" x2="201.63392857142856" y2="5" style="visibility: inherit;" fill="rgb(0, 0, 0)" stroke="rgb(204, 204, 204)" stroke-width="1px"></line><line x1="219.9642857142857" y1="0" x2="219.9642857142857" y2="5" style="visibility: inherit;" fill="rgb(0, 0, 0)" stroke="rgb(204, 204, 204)" stroke-width="1px"></line><line x1="238.29464285714286" y1="0" x2="238.29464285714286" y2="5" style="visibility: inherit;" fill="rgb(0, 0, 0)" stroke="rgb(204, 204, 204)" stroke-width="1px"></line><line x1="256.625" y1="0" x2="256.625" y2="5" style="visibility: inherit;" fill="rgb(0, 0, 0)" stroke="rgb(204, 204, 204)" stroke-width="1px"></line></g><g transform="translate(0, 8)"><text x="0" y="0" dx="0em" dy="0.95em" style="text-anchor: middle; visibility: hidden; font-family: Roboto, sans-serif; font-size: 12px; font-weight: 200;" fill="rgb(33, 33, 33)" stroke="none" stroke-width="1px">-2k</text><text x="18.330357142857142" y="0" dx="0em" dy="0.95em" style="text-anchor: middle; visibility: inherit; font-family: Roboto, sans-serif; font-size: 12px; font-weight: 200;" fill="rgb(33, 33, 33)" stroke="none" stroke-width="1px">0</text><text x="36.660714285714285" y="0" dx="0em" dy="0.95em" style="text-anchor: middle; visibility: hidden; font-family: Roboto, sans-serif; font-size: 12px; font-weight: 200;" fill="rgb(33, 33, 33)" stroke="none" stroke-width="1px">2k</text><text x="54.99107142857142" y="0" dx="0em" dy="0.95em" style="text-anchor: middle; visibility: inherit; font-family: Roboto, sans-serif; font-size: 12px; font-weight: 200;" fill="rgb(33, 33, 33)" stroke="none" stroke-width="1px">4k</text><text x="73.32142857142857" y="0" dx="0em" dy="0.95em" style="text-anchor: middle; visibility: hidden; font-family: Roboto, sans-serif; font-size: 12px; font-weight: 200;" fill="rgb(33, 33, 33)" stroke="none" stroke-width="1px">6k</text><text x="91.65178571428572" y="0" dx="0em" dy="0.95em" style="text-anchor: middle; visibility: inherit; font-family: Roboto, sans-serif; font-size: 12px; font-weight: 200;" fill="rgb(33, 33, 33)" stroke="none" stroke-width="1px">8k</text><text x="109.98214285714285" y="0" dx="0em" dy="0.95em" style="text-anchor: middle; visibility: hidden; font-family: Roboto, sans-serif; font-size: 12px; font-weight: 200;" fill="rgb(33, 33, 33)" stroke="none" stroke-width="1px">10k</text><text x="128.3125" y="0" dx="0em" dy="0.95em" style="text-anchor: middle; visibility: inherit; font-family: Roboto, sans-serif; font-size: 12px; font-weight: 200;" fill="rgb(33, 33, 33)" stroke="none" stroke-width="1px">12k</text><text x="146.64285714285714" y="0" dx="0em" dy="0.95em" style="text-anchor: middle; visibility: hidden; font-family: Roboto, sans-serif; font-size: 12px; font-weight: 200;" fill="rgb(33, 33, 33)" stroke="none" stroke-width="1px">14k</text><text x="164.9732142857143" y="0" dx="0em" dy="0.95em" style="text-anchor: middle; visibility: inherit; font-family: Roboto, sans-serif; font-size: 12px; font-weight: 200;" fill="rgb(33, 33, 33)" stroke="none" stroke-width="1px">16k</text><text x="183.30357142857144" y="0" dx="0em" dy="0.95em" style="text-anchor: middle; visibility: hidden; font-family: Roboto, sans-serif; font-size: 12px; font-weight: 200;" fill="rgb(33, 33, 33)" stroke="none" stroke-width="1px">18k</text><text x="201.63392857142856" y="0" dx="0em" dy="0.95em" style="text-anchor: middle; visibility: inherit; font-family: Roboto, sans-serif; font-size: 12px; font-weight: 200;" fill="rgb(33, 33, 33)" stroke="none" stroke-width="1px">20k</text><text x="219.9642857142857" y="0" dx="0em" dy="0.95em" style="text-anchor: middle; visibility: hidden; font-family: Roboto, sans-serif; font-size: 12px; font-weight: 200;" fill="rgb(33, 33, 33)" stroke="none" stroke-width="1px">22k</text><text x="238.29464285714286" y="0" dx="0em" dy="0.95em" style="text-anchor: middle; visibility: inherit; font-family: Roboto, sans-serif; font-size: 12px; font-weight: 200;" fill="rgb(33, 33, 33)" stroke="none" stroke-width="1px">24k</text><text x="256.625" y="0" dx="0em" dy="0.95em" style="text-anchor: middle; visibility: hidden; font-family: Roboto, sans-serif; font-size: 12px; font-weight: 200;" fill="rgb(33, 33, 33)" stroke="none" stroke-width="1px">26k</text></g><line x1="0" y1="0" x2="256.625" y2="0" fill="rgb(0, 0, 0)" stroke="rgb(204, 204, 204)" stroke-width="1px"></line></g></g></g></g></svg>