<svg viewBox="0 0 330 200" xmlns="http://www.w3.org/2000/svg"><g><g><g><g><g><line x1="72.34375" y1="177" x2="67.34375" y2="177" style="visibility: inherit;" fill="rgb(0, 0, 0)" stroke="rgb(204, 204, 204)" stroke-width="1px"></line><line x1="72.34375" y1="151.71428571428572" x2="67.34375" y2="151.71428571428572" style="visibility: inherit;" fill="rgb(0, 0, 0)" stroke="rgb(204, 204, 204)" stroke-width="1px"></line><line x1="72.34375" y1="126.42857142857143" x2="67.34375" y2="126.42857142857143" style="visibility: inherit;" fill="rgb(0, 0, 0)" stroke="rgb(204, 204, 204)" stroke-width="1px"></line><line x1="72.34375" y1="101.14285714285714" x2="67.34375" y2="101.14285714285714" style="visibility: inherit;" fill="rgb(0, 0, 0)" stroke="rgb(204, 204, 204)" stroke-width="1px"></line><line x1="72.34375" y1="75.85714285714286" x2="67.34375" y2="75.85714285714286" style="visibility: inherit;" fill="rgb(0, 0, 0)" stroke="rgb(204, 204, 204)" stroke-width="1px"></line><line x1="72.34375" y1="50.57142857142857" x2="67.34375" y2="50.57142857142857" style="visibility: inherit;" fill="rgb(0, 0, 0)" stroke="rgb(204, 204, 204)" stroke-width="1px"></line><line x1="72.34375" y1="25.285714285714295" x2="67.34375" y2="25.285714285714295" style="visibility: inherit;" fill="rgb(0, 0, 0)" stroke="rgb(204, 204, 204)" stroke-width="1px"></line><line x1="72.34375" y1="0" x2="67.34375" y2="0" style="visibility: inherit;" fill="rgb(0, 0, 0)" stroke="rgb(204, 204, 204)" stroke-width="1px"></line></g><g transform="translate(62.34375, 0)"><text x="0" y="177" dx="0em" dy="0.3em" style="text-anchor: end; visibility: hidden; font-family: Roboto, sans-serif; font-size: 12px; font-weight: 200;" fill="rgb(33, 33, 33)" stroke="none" stroke-width="1px">-5e+7</text><text x="0" y="151.71428571428572" dx="0em" dy="0.3em" style="text-anchor: end; visibility: inherit; font-family: Roboto, sans-serif; font-size: 12px; font-weight: 200;" fill="rgb(33, 33, 33)" stroke="none" stroke-width="1px">0</text><text x="0" y="126.42857142857143" dx="0em" dy="0.3em" style="text-anchor: end; visibility: inherit; font-family: Roboto, sans-serif; font-size: 12px; font-weight: 200;" fill="rgb(33, 33, 33)" stroke="none" stroke-width="1px">5e+7</text><text x="0" y="101.14285714285714" dx="0em" dy="0.3em" style="text-anchor: end; visibility: inherit; font-family: Roboto, sans-serif; font-size: 12px; font-weight: 200;" fill="rgb(33, 33, 33)" stroke="none" stroke-width="1px">1e+8</text><text x="0" y="75.85714285714286" dx="0em" dy="0.3em" style="text-anchor: end; visibility: inherit; font-family: Roboto, sans-serif; font-size: 12px; font-weight: 200;" fill="rgb(33, 33, 33)" stroke="none" stroke-width="1px">1.5e+8</text><text x="0" y="50.57142857142857" dx="0em" dy="0.3em" style="text-anchor: end; visibility: inherit; font-family: Roboto, sans-serif; font-size: 12px; font-weight: 200;" fill="rgb(33, 33, 33)" stroke="none" stroke-width="1px">2e+8</text><text x="0" y="25.285714285714295" dx="0em" dy="0.3em" style="text-anchor: end; visibility: inherit; font-family: Roboto, sans-serif; font-size: 12px; font-weight: 200;" fill="rgb(33, 33, 33)" stroke="none" stroke-width="1px">2.5e+8</text><text x="0" y="0" dx="0em" dy="0.3em" style="text-anchor: end; visibility: hidden; font-family: Roboto, sans-serif; font-size: 12px; font-weight: 200;" fill="rgb(33, 33, 33)" stroke="none" stroke-width="1px">3e+8</text></g><line x1="72.34375" y1="0" x2="72.34375" y2="177" fill="rgb(0, 0, 0)" stroke="rgb(204, 204, 204)" stroke-width="1px"></line></g></g><g transform="translate(72, 0)" clip-path="url(#clip_0)"><clipPath id="clip_0"><rect width="257" height="177"></rect></clipPath><g><g><g><line x1="0" y1="0" x2="0" y2="177" fill="rgb(0, 0, 0)" stroke="rgb(66, 66, 66)" stroke-width="1px" opacity="0.25"></line><line x1="18.404017857142858" y1="0" x2="18.404017857142858" y2="177" fill="rgb(0, 0, 0)" stroke="rgb(66, 66, 66)" stroke-width="1px" opacity="0.25"></line><line x1="36.808035714285715" y1="0" x2="36.808035714285715" y2="177" fill="rgb(0, 0, 0)" stroke="rgb(66, 66, 66)" stroke-width="1px" opacity="0.25"></line><line x1="55.21205357142857" y1="0" x2="55.21205357142857" y2="177" fill="rgb(0, 0, 0)" stroke="rgb(66, 66, 66)" stroke-width="1px" opacity="0.25"></line><line x1="73.61607142857143" y1="0" x2="73.61607142857143" y2="177" fill="rgb(0, 0, 0)" stroke="rgb(66, 66, 66)" stroke-width="1px" opacity="0.25"></line><line x1="92.02008928571429" y1="0" x2="92.02008928571429" y2="177" fill="rgb(0, 0, 0)" stroke="rgb(66, 66, 66)" stroke-width="1px" opacity="0.25"></line><line x1="110.42410714285714" y1="0" x2="110.42410714285714" y2="177" fill="rgb(0, 0, 0)" stroke="rgb(66, 66, 66)" stroke-width="1px" opacity="0.25"></line><line x1="128.828125" y1="0" x2="128.828125" y2="177" fill="rgb(0, 0, 0)" stroke="rgb(66, 66, 66)" stroke-width="1px" opacity="0.25"></line><line x1="147.23214285714286" y1="0" x2="147.23214285714286" y2="177" fill="rgb(0, 0, 0)" stroke="rgb(66, 66, 66)" stroke-width="1px" opacity="0.25"></line><line x1="165.63616071428572" y1="0" x2="165.63616071428572" y2="177" fill="rgb(0, 0, 0)" stroke="rgb(66, 66, 66)" stroke-width="1px" opacity="0.25"></line><line x1="184.04017857142858" y1="0" x2="184.04017857142858" y2="177" fill="rgb(0, 0, 0)" stroke="rgb(66, 66, 66)" stroke-width="1px" opacity="0.25"></line><line x1="202.44419642857142" y1="0" x2="202.44419642857142" y2="177" fill="rgb(0, 0, 0)" stroke="rgb(66, 66, 66)" stroke-width="1px" opacity="0.25"></line><line x1="220.84821428571428" y1="0" x2="220.84821428571428" y2="177" fill="rgb(0, 0, 0)" stroke="rgb(66, 66, 66)" stroke-width="1px" opacity="0.25"></line><line x1="239.25223214285714" y1="0" x2="239.25223214285714" y2="177" fill="rgb(0, 0, 0)" stroke="rgb(66, 66, 66)" stroke-width="1px" opacity="0.25"></line><line x1="257.65625" y1="0" x2="257.65625" y2="177" fill="rgb(0, 0, 0)" stroke="rgb(66, 66, 66)" stroke-width="1px" opacity="0.25"></line></g><g><line x1="0" y1="177" x2="257.65625" y2="177" fill="rgb(0, 0, 0)" stroke="rgb(66, 66, 66)" stroke-width="1px" opacity="0.25"></line><line x1="0" y1="151.71428571428572" x2="257.65625" y2="151.71428571428572" fill="rgb(0, 0, 0)" stroke="rgb(66, 66, 66)" stroke-width="1px" opacity="0.25"></line><line x1="0" y1="126.42857142857143" x2="257.65625" y2="126.42857142857143" fill="rgb(0, 0, 0)" stroke="rgb(66, 66, 66)" stroke-width="1px" opacity="0.25"></line><line x1="0" y1="101.14285714285714" x2="257.65625" y2="101.14285714285714" fill="rgb(0, 0, 0)" stroke="rgb(66, 66, 66)" stroke-width="1px" opacity="0.25"></line><line x1="0" y1="75.85714285714286" x2="257.65625" y2="75.85714285714286" fill="rgb(0, 0, 0)" stroke="rgb(66, 66, 66)" stroke-width="1px" opacity="0.25"></line><line x1="0" y1="50.57142857142857" x2="257.65625" y2="50.57142857142857" fill="rgb(0, 0, 0)" stroke="rgb(66, 66, 66)" stroke-width="1px" opacity="0.25"></line><line x1="0" y1="25.285714285714295" x2="257.65625" y2="25.285714285714295" fill="rgb(0, 0, 0)" stroke="rgb(66, 66, 66)" stroke-width="1px" opacity="0.25"></line><line x1="0" y1="0" x2="257.65625" y2="0" fill="rgb(0, 0, 0)" stroke="rgb(66, 66, 66)" stroke-width="1px" opacity="0.25"></line></g></g></g><g><g><line x1="0" y1="151.71428571428572" x2="257.65625" y2="151.71428571428572" fill="rgb(0, 0, 0)" stroke="rgb(153, 153, 153)" stroke-width="1.5px"></line></g></g><g><g><line x1="18.404017857142858" y1="0" x2="18.404017857142858" y2="177" fill="rgb(0, 0, 0)" stroke="rgb(153, 153, 153)" stroke-width="1.5px"></line></g></g><g><g><g><g><g><path stroke="rgb(255, 112, 67)" stroke-width="2px" d="M19.32421875,151.71428362174248L20.244419642857142,151.71428332343606L21.164620535714285,151.7142833408041L22.084821428571427,151.71428351135452L23.005022321428573,151.7142836197264L23.925223214285715,151.71428366144164L24.845424107142858,151.71423618572854L25.765625,151.71413553682123L26.685825892857146,151.71392250335467L27.606026785714285,151.7137673398318L28.526227678571427,151.71380743130126L29.44642857142857,151.713646366573L30.366629464285715,151.71327906181762L31.286830357142858,114.02330728804775L32.20703125,52.395665443855826L33.12723214285714,14.182580644815676L34.047433035714285,-6.592748671495322L41.40904017857143,-2.6209414163290834L42.32924107142857,1.9799037984038406L43.24944196428571,6.539041692704601L44.169642857142854,11.015409551962959L45.08984375,15.386120246737555L46.010044642857146,19.63914362541795L46.930245535714285,23.768889401895343L47.85044642857143,27.773628049003655L48.77064732142857,31.65386239069102L49.690848214285715,35.41142497978749L50.611049107142854,39.04889443783176L51.53125,42.569264671581074L52.451450892857146,45.975739925744435L53.37165178571429,49.27159562939907L54.29185267857143,52.46014021445755L55.21205357142857,55.54464365736917L56.132254464285715,58.528320496243126L57.052455357142854,61.41432611399184L57.97265625,64.20574156177253L58.89285714285714,66.90555474324552L59.813058035714285,69.51669120050444L60.73325892857143,72.04198080046017L61.65345982142858,74.48417658551035L62.573660714285715,76.84596932050209L63.49386160714286,79.12995090890347L64.4140625,81.33864584593135L65.33426339285714,83.47449448814059L66.25446428571428,85.53987699917607L67.17466517857143,87.53709696979485L68.09486607142857,89.46838453616463L69.01506696428571,91.33591443369997L69.93526785714285,93.14177799050636L70.85546875,94.88801001716135L71.77566964285714,96.57657904801134L72.69587053571429,98.20939928709265L73.61607142857143,99.7883215928271L74.53627232142858,101.31513292369631L75.45647321428572,102.79156895193209L76.37667410714286,104.21931515858783L77.296875,105.59998968943844L78.21707589285714,106.93517190737735L79.13727678571429,108.22638392156927L80.05747767857143,109.47509730608444L80.97767857142857,110.68274684079353L81.89787946428571,111.85070800847612L82.81808035714286,112.98031100394282L83.73828125,114.07285237607996L84.65848214285714,115.12957773879083L85.57868303571428,116.15169243527451L86.49888392857142,117.14036631830757L87.41908482142857,118.0966969704131L88.33928571428571,119.0218170988193L89.25948660714286,119.91676882386301L90.1796875,120.78258441660353L91.09988839285715,121.62024249910496L92.02008928571429,122.4306992137487L92.94029017857143,123.2133064402492L93.86049107142857,123.9681405635781L94.78069196428572,124.70005291414687L95.70089285714286,125.40926146277384L96.62109375,126.09619718395001L97.54129464285714,126.75974878351288L98.46149553571428,127.40281052267915L99.38169642857143,128.0257539341789L100.30189732142857,128.6286587193645L101.22209821428571,129.21262377561868L102.14229910714285,129.77814742194266L103.0625,130.3256969514513L103.98270089285714,130.85592656401363L104.90290178571429,131.36938656240818L105.82310267857143,131.86299901858777L106.74330357142858,132.3391441380098L107.66350446428572,132.8024210748059L108.58370535714286,133.2523956345978L109.50390625,133.68900068590156L110.42410714285714,134.11236910639806L111.34430803571429,134.52276106155313L112.26450892857143,134.92049528836046L113.18470982142857,135.3059264758734L114.10491071428571,135.67942198380976L115.02511160714286,136.04133816400014L115.9453125,136.39206319782866L116.86551339285714,136.7319594569829L117.78571428571428,137.06137544561832L118.70591517857142,137.380654179371L119.62611607142857,137.69012364819403L120.54631696428571,137.9901044449164L121.46651785714286,138.28090746466412L122.38671875,138.5628272650842L123.30691964285715,138.8361566927648L124.22712053571429,139.10117583508745L125.14732142857143,139.35815226905248L126.06752232142857,139.6073464700029L126.98772321428572,139.84901020200175L127.90792410714286,140.08337988805818L128.828125,140.31069690654923L129.74832589285714,140.5311874033581L130.66852678571428,140.74506757572914L131.58872767857142,140.95254724715178L132.50892857142856,141.1538283711482L133.42912946428572,141.34910939297464L134.34933035714286,141.53857977521335L135.26953125,141.72242156798515L136.18973214285714,141.90081196936254L137.10993303571428,142.0739204113318L138.03013392857142,142.24191328451337L138.95033482142856,142.40494827699374L139.8705357142857,142.56317866448197L140.79073660714283,142.71675467068917L141.7109375,142.86581700127064L142.63113839285714,143.01050591047667L143.55133928571428,143.1509543017146L144.47154017857142,143.28729046560017L145.39174107142858,143.4196401273601L146.31194196428572,143.54812322498748L147.23214285714286,143.67284651442108L148.15234375,143.7939365555098L149.07254464285717,143.91150063844873L149.9927455357143,144.02501286764067L150.91294642857144,144.13523204515582L151.83314732142858,144.24246982937922L152.75334821428572,144.3467046587704L153.67354910714286,144.44062229583366L154.59375,144.53449424835733L155.51395089285714,144.6274529810144L156.43415178571428,144.7187961177515L157.35435267857144,144.80809717579376L158.27455357142858,144.8952058586191L159.19475446428572,144.98002126717145L160.11495535714286,145.06251037287433L161.03515625,145.14266691172458L161.95535714285714,145.22053951732047L162.87555803571428,145.2961666749637L163.79575892857142,145.36959352497823L164.71595982142856,145.44084371270122L165.63616071428572,145.51002083562074L166.55636160714286,145.57717511737243L167.4765625,145.64235510013776L168.39676339285714,145.7056109469398L169.31696428571428,145.7669492904496L170.23716517857142,145.8264809171269L171.15736607142856,145.88424600170472L172.0775669642857,145.94028867530852L172.99776785714283,145.9946511948994L173.91796875,146.04737610893963L174.83816964285714,146.0985065453638L175.75837053571428,146.14808233864684L176.67857142857142,146.19614438147383L177.59877232142858,146.24273197631285L178.51897321428572,146.28786587264486L179.43917410714286,146.33160625958692L180.359375,146.37398621632357L181.27957589285717,146.41503954807985L182.1997767857143,146.45479928199077L183.11997767857144,146.49329615776588L184.04017857142858,146.53056277923096L184.96037946428572,146.56662963211L185.88058035714286,146.60152613355172L186.80078125,146.63528166641674L187.72098214285714,146.66792478385005L188.64118303571428,146.69948212516718L189.56138392857144,146.72998201338604L190.48158482142858,146.75944993831732L191.40178571428572,146.78791110584754L192.32198660714286,146.81539095607994L193.2421875,146.84191324907653L194.16238839285714,146.86750154601737L195.08258928571428,146.8921782773247L196.00279017857142,146.91596640868053L196.92299107142856,146.93888700177976L197.84319196428572,146.96096240335356L198.76339285714286,146.982212899155L199.68359375,147.00265814520728L200.60379464285714,147.0223190379815L201.52399553571428,147.04121499307462L202.44419642857142,147.05936433527336L203.36439732142856,147.07678594859257L204.2845982142857,147.09349783886984L205.20479910714283,147.10951869875046L206.125,147.124865205536L207.04520089285714,147.13955505246446L207.96540178571428,147.15360532862152L208.88560267857142,147.16703235603006L209.80580357142858,147.1798521987609L210.72600446428572,147.1920811706851L211.64620535714286,147.20373492641104L212.56640625,147.21482933184663L213.48660714285717,147.22537936825083L214.4068080357143,147.23540049752194L215.32700892857144,147.24490725622744L216.24720982142858,147.2539150417365L217.16741071428572,147.26243774504186L218.08761160714286,147.270490376168L219.0078125,147.27808659370078L219.92801339285714,147.28524086364905L220.84821428571428,147.29196672047513L221.76841517857144,147.29827875799938L222.68861607142858,147.30419078965676L223.60881696428572,147.30971555379406L224.52901785714286,147.31486757113356L225.44921875,147.31965980210873L226.36941964285714,147.3241054846938L227.28962053571428,147.32821822567342L228.20982142857142,147.33201104397548L229.13002232142856,147.33549781952814L230.05022321428572,147.33869112828833L230.97042410714286,147.34160397754442L231.890625,147.3442498356695L232.81082589285714,147.34664103168743L233.73102678571428,147.3487912338696L234.65122767857142,147.35071329575032L235.57142857142856,147.35241998659305L236.4916294642857,147.35392483424155L237.41183035714283,147.3552404056878L238.33203125,147.35637929826981L239.25223214285714,147.3573551389619L240.17243303571428,147.35818055423428L241.09263392857142,147.35886858168342L242.01283482142858,147.3594312918672L242.93303571428572,147.35988320940604L243.85323660714286,147.36023547650075L244.7734375,147.36050266761475L245.69363839285717,147.3606961571403L246.6138392857143,147.3608322771413L247.53404017857144,147.36091415142764L248.45424107142858,147.36096307371375" style="fill: none;" fill="none"></path></g><g><path stroke="rgb(0, 119, 187)" stroke-width="2px" d="M239.25223214285714,147.3588254742857Z" style="fill: none;" fill="none"></path></g></g></g></g><g opacity="0.2"><g><g><g><path stroke="rgb(255, 112, 67)" stroke-width="2px" d="M19.32421875,151.71428362174248L20.244419642857142,151.71428314445225L21.164620535714285,151.7142833574773L22.084821428571427,151.7142837119219L23.005022321428573,151.71428376121668L23.925223214285715,151.71428371914885L24.845424107142858,151.71416829469914L25.765625,151.71398878974819L26.685825892857146,151.7136083203711L27.606026785714285,151.7135369400837L28.526227678571427,151.71386720487882L29.44642857142857,151.71340564598773L30.366629464285715,151.71272930399834L31.286830357142858,57.56218820571428L32.20703125,-39.97335634285712L40.488839285714285,-0.5626779428571531L41.40904017857143,4.235830491428574L42.32924107142857,8.881152L43.24944196428571,13.377736868571423L44.169642857142854,17.72995446857144L45.08984375,21.942182262857138L46.010044642857146,26.01867634285714L46.930245535714285,29.963506697142847L47.85044642857143,33.780735222857146L48.77064732142857,37.47421344000001L49.690848214285715,41.04776859428571L50.611049107142854,44.50509846857143L51.53125,47.84981993142857L52.451450892857146,51.085452754285704L53.37165178571429,54.215379154285706L54.29185267857143,57.24295707428572L55.21205357142857,60.171398811428574L56.132254464285715,63.00383574857142L57.052455357142854,65.74333453714286L57.97265625,68.39286473142857L58.89285714285714,70.95527451428572L59.813058035714285,73.43339588571429L60.73325892857143,75.82991519999999L61.65345982142858,78.14747026285715L62.573660714285715,80.38865842285715L63.49386160714286,82.55592329142857L64.4140625,84.65168825142857L65.33426339285714,86.67826745142857L66.25446428571428,88.63795076571428L67.17466517857143,90.53292692571428L68.09486607142857,92.3653158857143L69.01506696428571,94.13720928L69.93526785714285,95.85057332571428L70.85546875,97.50735805714285L71.77566964285714,99.1094325942857L72.69587053571429,100.65862964571429L73.61607142857143,102.15670505142856L74.53627232142858,103.60534992000001L75.45647321428572,105.00622299428572L76.37667410714286,106.36093446857143L77.296875,107.67100148571429L78.21707589285714,108.93794523428572L79.13727678571429,110.16320194285713L80.05747767857143,111.34816738285714L80.97767857142857,112.49422114285716L81.89787946428571,113.60264975999999L82.81808035714286,114.67471549714284L83.73828125,115.71166443428572L84.65848214285714,116.71466578285715L85.57868303571428,117.68486447999999L86.49888392857142,118.62337714285712L87.41908482142857,119.53119294857142L88.33928571428571,120.40949729142856L89.25948660714286,121.25919641142858L90.1796875,122.08130780571427L91.09988839285715,122.87672962285714L92.02008928571429,123.64638428571428L92.94029017857143,124.38721727999999L93.86049107142857,125.10039174857143L94.78069196428572,125.79792143999998L95.70089285714286,126.47307428571429L96.62109375,127.12660076571429L97.54129464285714,127.75507618285715L98.46149553571428,128.36740313142857L99.38169642857143,128.96016905142855L100.30189732142857,129.53301589714286L101.22209821428571,130.08857136L102.14229910714285,130.62643289142858L103.0625,131.14702124571428L103.98270089285714,131.65127098285714L104.90290178571429,132.13957656L105.82310267857143,132.60341770285714L106.74330357142858,133.05336181714287L107.66350446428572,133.49733648L108.58370535714286,133.9273574742857L109.50390625,134.34390826285713L110.42410714285714,134.74742173714287L111.34430803571429,135.1383489942857L112.26450892857143,135.51709662857144L113.18470982142857,135.88407325714286L114.10491071428571,136.2396652457143L115.02511160714286,136.58421243428572L115.9453125,136.91815074857143L116.86551339285714,137.2418038457143L117.78571428571428,137.5554994285714L118.70591517857142,137.85957228L119.62611607142857,138.15432785142858L120.54631696428571,138.44007564L121.46651785714286,138.71711199428572L122.38671875,138.9857069657143L123.30691964285715,139.24615083428571L124.22712053571429,139.49870454857142L125.14732142857143,139.74361692L126.06752232142857,139.98113777142856L126.98772321428572,140.2115058L127.90792410714286,140.43493441714287L128.828125,140.6516724342857L129.74832589285714,140.86192314857144L130.66852678571428,141.06588783428572L131.58872767857142,141.2637667542857L132.50892857142856,141.45575005714286L133.42912946428572,141.6420309257143L134.34933035714286,141.82278534857144L135.26953125,141.99818425714287L136.18973214285714,142.16839757142856L137.10993303571428,142.3335830742857L138.03013392857142,142.49390259428571L138.95033482142856,142.6495007657143L139.8705357142857,142.80052424571429L140.79073660714283,142.94711868L141.7109375,143.08941049714286L142.63113839285714,143.22753927428573L143.55133928571428,143.36162688857144L144.47154017857142,143.49179471142858L145.39174107142858,143.61816462000002L146.31194196428572,143.74084787142857L147.23214285714286,143.85993144857144L148.15234375,143.97557161714286L149.07254464285717,144.08784676285714L149.9927455357143,144.19528121142858L150.91294642857144,144.30056081142857L151.83314732142858,144.4033265057143L152.75334821428572,144.50305690285714L153.67354910714286,144.58149875142857L154.59375,144.67530217714284L155.51395089285714,144.76689108L156.43415178571428,144.85581082285714L157.35435267857144,144.94204876285713L158.27455357142858,145.02586888285717L159.19475446428572,145.10724438L160.11495535714286,145.18624403142857L161.03515625,145.26290172L161.95535714285714,145.33734842571428L162.87555803571428,145.40960741142857L163.79575892857142,145.4797338L164.71595982142856,145.5477189942857L165.63616071428572,145.61378652L166.55636160714286,145.67790653999998L167.4765625,145.74012507428571L168.39676339285714,145.80049471714287L169.31696428571428,145.85895680571429L170.23716517857142,145.91577835714287L171.15736607142856,145.97089362857142L172.0775669642857,146.0243526857143L172.99776785714283,146.07619497428573L173.91796875,146.12646347999998L174.83816964285714,146.1752022L175.75837053571428,146.22244602857143L176.67857142857142,146.2682374457143L177.59877232142858,146.31261336857142L178.51897321428572,146.35556671714286L179.43917410714286,146.39721684L180.359375,146.43755615142857L181.27957589285717,146.47661954571427L182.1997767857143,146.51443888285715L183.11997767857144,146.5510414714286L184.04017857142858,146.58646271142857L184.96037946428572,146.62072991142855L185.88058035714286,146.6538708857143L186.80078125,146.6859149657143L187.72098214285714,146.71688946L188.64118303571428,146.74681813714284L189.56138392857144,146.7757318457143L190.48158482142858,146.8036518257143L191.40178571428572,146.83060285714285L192.32198660714286,146.85661073142856L193.2421875,146.88169668857142L194.16238839285714,146.90588399142857L195.08258928571428,146.92919337428572L196.00279017857142,146.9516486057143L196.92299107142856,146.97326789142858L197.84319196428572,146.99407550571428L198.76339285714286,147.01408864285713L199.68359375,147.03332601428573L200.60379464285714,147.05181037714286L201.52399553571428,147.0695589257143L202.44419642857142,147.0865883485714L203.36439732142856,147.10291836857144L204.2845982142857,147.11856567428572L205.20479910714283,147.13354998857142L206.125,147.14788496571427L207.04520089285714,147.16158982285714L207.96540178571428,147.17468074285713L208.88560267857142,147.18717289714286L209.80580357142858,147.19908196285715L210.72600446428572,147.21042462857142L211.64620535714286,147.22121556L212.56640625,147.23147094L213.48660714285717,147.24120442285715L214.4068080357143,147.2504321914286L215.32700892857144,147.25916739428573L216.24720982142858,147.26742672L217.16741071428572,147.2752218L218.08761160714286,147.28256932285714L219.0078125,147.28948092000002L219.92801339285714,147.29597226857143L220.84821428571428,147.3020555057143L221.76841517857144,147.3077468142857L222.68861607142858,147.31305883714285L223.60881696428572,147.3180027L224.52901785714286,147.32259559714285L225.44921875,147.32684814857143L226.36941964285714,147.33077400857144L227.28962053571428,147.33438733714286L228.20982142857142,147.33770027142856L229.13002232142856,147.34072798285715L230.05022321428572,147.34348109142857L230.97042410714286,147.34597325142857L231.890625,147.34821862285713L232.81082589285714,147.35022782571428L233.73102678571428,147.35201653714287L234.65122767857142,147.35359638857142L235.57142857142856,147.35498002285715L236.4916294642857,147.35618210571428L237.41183035714283,147.35721376285713L238.33203125,147.35808763714286L239.25223214285714,147.3588189L240.17243303571428,147.35941867714286L241.09263392857142,147.35990062285714L242.01283482142858,147.36027535714285L242.93303571428572,147.3605610857143L243.85323660714286,147.36076387714286L244.7734375,147.3609034542857L245.69363839285717,147.36098639142858L246.6138392857143,147.36103645714286L247.53404017857144,147.36103696285716L248.45424107142858,147.36103645714286" style="fill: none;" fill="none"></path></g><g><path stroke="rgb(0, 119, 187)" stroke-width="2px" d="M239.25223214285714,147.3588254742857Z" style="fill: none;" fill="none"></path></g></g></g></g></g></g><g transform="translate(72, 177)" clip-path="url(#clip_1)"><clipPath id="clip_1"><rect width="257" height="23"></rect></clipPath><g><g><line x1="0" y1="0" x2="0" y2="5" style="visibility: inherit;" fill="rgb(0, 0, 0)" stroke="rgb(204, 204, 204)" stroke-width="1px"></line><line x1="18.404017857142858" y1="0" x2="18.404017857142858" y2="5" style="visibility: inherit;" fill="rgb(0, 0, 0)" stroke="rgb(204, 204, 204)" stroke-width="1px"></line><line x1="36.808035714285715" y1="0" x2="36.808035714285715" y2="5" style="visibility: inherit;" fill="rgb(0, 0, 0)" stroke="rgb(204, 204, 204)" stroke-width="1px"></line><line x1="55.21205357142857" y1="0" x2="55.21205357142857" y2="5" style="visibility: inherit;" fill="rgb(0, 0, 0)" stroke="rgb(204, 204, 204)" stroke-width="1px"></line><line x1="73.61607142857143" y1="0" x2="73.61607142857143" y2="5" style="visibility: inherit;" fill="rgb(0, 0, 0)" stroke="rgb(204, 204, 204)" stroke-width="1px"></line><line x1="92.02008928571429" y1="0" x2="92.02008928571429" y2="5" style="visibility: inherit;" fill="rgb(0, 0, 0)" stroke="rgb(204, 204, 204)" stroke-width="1px"></line><line x1="110.42410714285714" y1="0" x2="110.42410714285714" y2="5" style="visibility: inherit;" fill="rgb(0, 0, 0)" stroke="rgb(204, 204, 204)" stroke-width="1px"></line><line x1="128.828125" y1="0" x2="128.828125" y2="5" style="visibility: inherit;" fill="rgb(0, 0, 0)" stroke="rgb(204, 204, 204)" stroke-width="1px"></line><line x1="147.23214285714286" y1="0" x2="147.23214285714286" y2="5" style="visibility: inherit;" fill="rgb(0, 0, 0)" stroke="rgb(204, 204, 204)" stroke-width="1px"></line><line x1="165.63616071428572" y1="0" x2="165.63616071428572" y2="5" style="visibility: inherit;" fill="rgb(0, 0, 0)" stroke="rgb(204, 204, 204)" stroke-width="1px"></line><line x1="184.04017857142858" y1="0" x2="184.04017857142858" y2="5" style="visibility: inherit;" fill="rgb(0, 0, 0)" stroke="rgb(204, 204, 204)" stroke-width="1px"></line><line x1="202.44419642857142" y1="0" x2="202.44419642857142" y2="5" style="visibility: inherit;" fill="rgb(0, 0, 0)" stroke="rgb(204, 204, 204)" stroke-width="1px"></line><line x1="220.84821428571428" y1="0" x2="220.84821428571428" y2="5" style="visibility: inherit;" fill="rgb(0, 0, 0)" stroke="rgb(204, 204, 204)" stroke-width="1px"></line><line x1="239.25223214285714" y1="0" x2="239.25223214285714" y2="5" style="visibility: inherit;" fill="rgb(0, 0, 0)" stroke="rgb(204, 204, 204)" stroke-width="1px"></line><line x1="257.65625" y1="0" x2="257.65625" y2="5" style="visibility: inherit;" fill="rgb(0, 0, 0)" stroke="rgb(204, 204, 204)" stroke-width="1px"></line></g><g transform="translate(0, 8)"><text x="0" y="0" dx="0em" dy="0.95em" style="text-anchor: middle; visibility: hidden; font-family: Roboto, sans-serif; font-size: 12px; font-weight: 200;" fill="rgb(33, 33, 33)" stroke="none" stroke-width="1px">-2k</text><text x="18.404017857142858" y="0" dx="0em" dy="0.95em" style="text-anchor: middle; visibility: inherit; font-family: Roboto, sans-serif; font-size: 12px; font-weight: 200;" fill="rgb(33, 33, 33)" stroke="none" stroke-width="1px">0</text><text x="36.808035714285715" y="0" dx="0em" dy="0.95em" style="text-anchor: middle; visibility: hidden; font-family: Roboto, sans-serif; font-size: 12px; font-weight: 200;" fill="rgb(33, 33, 33)" stroke="none" stroke-width="1px">2k</text><text x="55.21205357142857" y="0" dx="0em" dy="0.95em" style="text-anchor: middle; visibility: inherit; font-family: Roboto, sans-serif; font-size: 12px; font-weight: 200;" fill="rgb(33, 33, 33)" stroke="none" stroke-width="1px">4k</text><text x="73.61607142857143" y="0" dx="0em" dy="0.95em" style="text-anchor: middle; visibility: hidden; font-family: Roboto, sans-serif; font-size: 12px; font-weight: 200;" fill="rgb(33, 33, 33)" stroke="none" stroke-width="1px">6k</text><text x="92.02008928571429" y="0" dx="0em" dy="0.95em" style="text-anchor: middle; visibility: inherit; font-family: Roboto, sans-serif; font-size: 12px; font-weight: 200;" fill="rgb(33, 33, 33)" stroke="none" stroke-width="1px">8k</text><text x="110.42410714285714" y="0" dx="0em" dy="0.95em" style="text-anchor: middle; visibility: hidden; font-family: Roboto, sans-serif; font-size: 12px; font-weight: 200;" fill="rgb(33, 33, 33)" stroke="none" stroke-width="1px">10k</text><text x="128.828125" y="0" dx="0em" dy="0.95em" style="text-anchor: middle; visibility: inherit; font-family: Roboto, sans-serif; font-size: 12px; font-weight: 200;" fill="rgb(33, 33, 33)" stroke="none" stroke-width="1px">12k</text><text x="147.23214285714286" y="0" dx="0em" dy="0.95em" style="text-anchor: middle; visibility: hidden; font-family: Roboto, sans-serif; font-size: 12px; font-weight: 200;" fill="rgb(33, 33, 33)" stroke="none" stroke-width="1px">14k</text><text x="165.63616071428572" y="0" dx="0em" dy="0.95em" style="text-anchor: middle; visibility: inherit; font-family: Roboto, sans-serif; font-size: 12px; font-weight: 200;" fill="rgb(33, 33, 33)" stroke="none" stroke-width="1px">16k</text><text x="184.04017857142858" y="0" dx="0em" dy="0.95em" style="text-anchor: middle; visibility: hidden; font-family: Roboto, sans-serif; font-size: 12px; font-weight: 200;" fill="rgb(33, 33, 33)" stroke="none" stroke-width="1px">18k</text><text x="202.44419642857142" y="0" dx="0em" dy="0.95em" style="text-anchor: middle; visibility: inherit; font-family: Roboto, sans-serif; font-size: 12px; font-weight: 200;" fill="rgb(33, 33, 33)" stroke="none" stroke-width="1px">20k</text><text x="220.84821428571428" y="0" dx="0em" dy="0.95em" style="text-anchor: middle; visibility: hidden; font-family: Roboto, sans-serif; font-size: 12px; font-weight: 200;" fill="rgb(33, 33, 33)" stroke="none" stroke-width="1px">22k</text><text x="239.25223214285714" y="0" dx="0em" dy="0.95em" style="text-anchor: middle; visibility: inherit; font-family: Roboto, sans-serif; font-size: 12px; font-weight: 200;" fill="rgb(33, 33, 33)" stroke="none" stroke-width="1px">24k</text><text x="257.65625" y="0" dx="0em" dy="0.95em" style="text-anchor: middle; visibility: hidden; font-family: Roboto, sans-serif; font-size: 12px; font-weight: 200;" fill="rgb(33, 33, 33)" stroke="none" stroke-width="1px">26k</text></g><line x1="0" y1="0" x2="257.65625" y2="0" fill="rgb(0, 0, 0)" stroke="rgb(204, 204, 204)" stroke-width="1px"></line></g></g></g></g></svg>