<svg viewBox="0 0 330 200" xmlns="http://www.w3.org/2000/svg"><g><g><g><g><g><line x1="51.5625" y1="177" x2="46.5625" y2="177" style="visibility: inherit;" fill="rgb(0, 0, 0)" stroke="rgb(204, 204, 204)" stroke-width="1px"></line><line x1="51.5625" y1="151.7142857142857" x2="46.5625" y2="151.7142857142857" style="visibility: inherit;" fill="rgb(0, 0, 0)" stroke="rgb(204, 204, 204)" stroke-width="1px"></line><line x1="51.5625" y1="126.42857142857139" x2="46.5625" y2="126.42857142857139" style="visibility: inherit;" fill="rgb(0, 0, 0)" stroke="rgb(204, 204, 204)" stroke-width="1px"></line><line x1="51.5625" y1="101.14285714285714" x2="46.5625" y2="101.14285714285714" style="visibility: inherit;" fill="rgb(0, 0, 0)" stroke="rgb(204, 204, 204)" stroke-width="1px"></line><line x1="51.5625" y1="75.85714285714285" x2="46.5625" y2="75.85714285714285" style="visibility: inherit;" fill="rgb(0, 0, 0)" stroke="rgb(204, 204, 204)" stroke-width="1px"></line><line x1="51.5625" y1="50.571428571428605" x2="46.5625" y2="50.571428571428605" style="visibility: inherit;" fill="rgb(0, 0, 0)" stroke="rgb(204, 204, 204)" stroke-width="1px"></line><line x1="51.5625" y1="25.285714285714295" x2="46.5625" y2="25.285714285714295" style="visibility: inherit;" fill="rgb(0, 0, 0)" stroke="rgb(204, 204, 204)" stroke-width="1px"></line><line x1="51.5625" y1="0" x2="46.5625" y2="0" style="visibility: inherit;" fill="rgb(0, 0, 0)" stroke="rgb(204, 204, 204)" stroke-width="1px"></line></g><g transform="translate(41.5625, 0)"><text x="0" y="177" dx="0em" dy="0.3em" style="text-anchor: end; visibility: hidden; font-family: Roboto, sans-serif; font-size: 12px; font-weight: 200;" fill="rgb(33, 33, 33)" stroke="none" stroke-width="1px">0.7</text><text x="0" y="151.7142857142857" dx="0em" dy="0.3em" style="text-anchor: end; visibility: inherit; font-family: Roboto, sans-serif; font-size: 12px; font-weight: 200;" fill="rgb(33, 33, 33)" stroke="none" stroke-width="1px">0.75</text><text x="0" y="126.42857142857139" dx="0em" dy="0.3em" style="text-anchor: end; visibility: inherit; font-family: Roboto, sans-serif; font-size: 12px; font-weight: 200;" fill="rgb(33, 33, 33)" stroke="none" stroke-width="1px">0.8</text><text x="0" y="101.14285714285714" dx="0em" dy="0.3em" style="text-anchor: end; visibility: inherit; font-family: Roboto, sans-serif; font-size: 12px; font-weight: 200;" fill="rgb(33, 33, 33)" stroke="none" stroke-width="1px">0.85</text><text x="0" y="75.85714285714285" dx="0em" dy="0.3em" style="text-anchor: end; visibility: inherit; font-family: Roboto, sans-serif; font-size: 12px; font-weight: 200;" fill="rgb(33, 33, 33)" stroke="none" stroke-width="1px">0.9</text><text x="0" y="50.571428571428605" dx="0em" dy="0.3em" style="text-anchor: end; visibility: inherit; font-family: Roboto, sans-serif; font-size: 12px; font-weight: 200;" fill="rgb(33, 33, 33)" stroke="none" stroke-width="1px">0.95</text><text x="0" y="25.285714285714295" dx="0em" dy="0.3em" style="text-anchor: end; visibility: inherit; font-family: Roboto, sans-serif; font-size: 12px; font-weight: 200;" fill="rgb(33, 33, 33)" stroke="none" stroke-width="1px">1</text><text x="0" y="0" dx="0em" dy="0.3em" style="text-anchor: end; visibility: hidden; font-family: Roboto, sans-serif; font-size: 12px; font-weight: 200;" fill="rgb(33, 33, 33)" stroke="none" stroke-width="1px">1.05</text></g><line x1="51.5625" y1="0" x2="51.5625" y2="177" fill="rgb(0, 0, 0)" stroke="rgb(204, 204, 204)" stroke-width="1px"></line></g></g><g transform="translate(51, 0)" clip-path="url(#clip_0)"><clipPath id="clip_0"><rect width="278" height="177"></rect></clipPath><g><g><g><line x1="0" y1="0" x2="0" y2="177" fill="rgb(0, 0, 0)" stroke="rgb(66, 66, 66)" stroke-width="1px" opacity="0.25"></line><line x1="19.888392857142858" y1="0" x2="19.888392857142858" y2="177" fill="rgb(0, 0, 0)" stroke="rgb(66, 66, 66)" stroke-width="1px" opacity="0.25"></line><line x1="39.776785714285715" y1="0" x2="39.776785714285715" y2="177" fill="rgb(0, 0, 0)" stroke="rgb(66, 66, 66)" stroke-width="1px" opacity="0.25"></line><line x1="59.66517857142857" y1="0" x2="59.66517857142857" y2="177" fill="rgb(0, 0, 0)" stroke="rgb(66, 66, 66)" stroke-width="1px" opacity="0.25"></line><line x1="79.55357142857143" y1="0" x2="79.55357142857143" y2="177" fill="rgb(0, 0, 0)" stroke="rgb(66, 66, 66)" stroke-width="1px" opacity="0.25"></line><line x1="99.44196428571429" y1="0" x2="99.44196428571429" y2="177" fill="rgb(0, 0, 0)" stroke="rgb(66, 66, 66)" stroke-width="1px" opacity="0.25"></line><line x1="119.33035714285714" y1="0" x2="119.33035714285714" y2="177" fill="rgb(0, 0, 0)" stroke="rgb(66, 66, 66)" stroke-width="1px" opacity="0.25"></line><line x1="139.21875" y1="0" x2="139.21875" y2="177" fill="rgb(0, 0, 0)" stroke="rgb(66, 66, 66)" stroke-width="1px" opacity="0.25"></line><line x1="159.10714285714286" y1="0" x2="159.10714285714286" y2="177" fill="rgb(0, 0, 0)" stroke="rgb(66, 66, 66)" stroke-width="1px" opacity="0.25"></line><line x1="178.99553571428572" y1="0" x2="178.99553571428572" y2="177" fill="rgb(0, 0, 0)" stroke="rgb(66, 66, 66)" stroke-width="1px" opacity="0.25"></line><line x1="198.88392857142858" y1="0" x2="198.88392857142858" y2="177" fill="rgb(0, 0, 0)" stroke="rgb(66, 66, 66)" stroke-width="1px" opacity="0.25"></line><line x1="218.77232142857142" y1="0" x2="218.77232142857142" y2="177" fill="rgb(0, 0, 0)" stroke="rgb(66, 66, 66)" stroke-width="1px" opacity="0.25"></line><line x1="238.66071428571428" y1="0" x2="238.66071428571428" y2="177" fill="rgb(0, 0, 0)" stroke="rgb(66, 66, 66)" stroke-width="1px" opacity="0.25"></line><line x1="258.54910714285717" y1="0" x2="258.54910714285717" y2="177" fill="rgb(0, 0, 0)" stroke="rgb(66, 66, 66)" stroke-width="1px" opacity="0.25"></line><line x1="278.4375" y1="0" x2="278.4375" y2="177" fill="rgb(0, 0, 0)" stroke="rgb(66, 66, 66)" stroke-width="1px" opacity="0.25"></line></g><g><line x1="0" y1="177" x2="278.4375" y2="177" fill="rgb(0, 0, 0)" stroke="rgb(66, 66, 66)" stroke-width="1px" opacity="0.25"></line><line x1="0" y1="151.7142857142857" x2="278.4375" y2="151.7142857142857" fill="rgb(0, 0, 0)" stroke="rgb(66, 66, 66)" stroke-width="1px" opacity="0.25"></line><line x1="0" y1="126.42857142857139" x2="278.4375" y2="126.42857142857139" fill="rgb(0, 0, 0)" stroke="rgb(66, 66, 66)" stroke-width="1px" opacity="0.25"></line><line x1="0" y1="101.14285714285714" x2="278.4375" y2="101.14285714285714" fill="rgb(0, 0, 0)" stroke="rgb(66, 66, 66)" stroke-width="1px" opacity="0.25"></line><line x1="0" y1="75.85714285714285" x2="278.4375" y2="75.85714285714285" fill="rgb(0, 0, 0)" stroke="rgb(66, 66, 66)" stroke-width="1px" opacity="0.25"></line><line x1="0" y1="50.571428571428605" x2="278.4375" y2="50.571428571428605" fill="rgb(0, 0, 0)" stroke="rgb(66, 66, 66)" stroke-width="1px" opacity="0.25"></line><line x1="0" y1="25.285714285714295" x2="278.4375" y2="25.285714285714295" fill="rgb(0, 0, 0)" stroke="rgb(66, 66, 66)" stroke-width="1px" opacity="0.25"></line><line x1="0" y1="0" x2="278.4375" y2="0" fill="rgb(0, 0, 0)" stroke="rgb(66, 66, 66)" stroke-width="1px" opacity="0.25"></line></g></g></g><g><g><line x1="0" y1="530.9999999999999" x2="278.4375" y2="530.9999999999999" fill="rgb(0, 0, 0)" stroke="rgb(153, 153, 153)" stroke-width="1.5px"></line></g></g><g><g><line x1="19.888392857142858" y1="0" x2="19.888392857142858" y2="177" fill="rgb(0, 0, 0)" stroke="rgb(153, 153, 153)" stroke-width="1.5px"></line></g></g><g><g><g><g><g><path stroke="rgb(255, 112, 67)" stroke-width="2px" d="M20.8828125,121.55288774626595L21.877232142857142,61.20971896392965L22.871651785714285,100.13911413520837L23.866071428571427,144.53904101528045L24.860491071428573,143.06940099695962L25.854910714285715,161.2832130930926L26.849330357142858,56.48818390398475L27.84375,87.94957044258753L28.838169642857146,-83.58450531989823L29.832589285714285,-25.256957645847578L30.827008928571427,9.084846800182865L31.82142857142857,60.67060420406719L32.815848214285715,71.1341596220048L33.810267857142854,100.50784262872737L34.8046875,80.19883797541694L35.79910714285714,107.54090430114219L36.793526785714285,80.47006017267223L37.78794642857142,-34.74586258859665L38.78236607142857,51.5777823568759L39.776785714285715,41.6875903851021L40.77120535714286,14.699138318922678L41.765625,42.37891065646662L42.760044642857146,86.98482065915572L43.754464285714285,90.42822563343834L44.74888392857143,45.53135828389456L45.74330357142857,17.39985079856364L46.73772321428571,20.065763040480892L47.732142857142854,29.15021030437102L48.7265625,83.36009308599475L49.720982142857146,51.55609643888368L50.715401785714285,46.27631681352739L51.70982142857143,46.798280832695596L52.70424107142857,80.57103081452014L53.698660714285715,75.40625611506641L54.693080357142854,99.36027704693889L55.6875,107.64756914676316L56.681919642857146,68.13422643944622L57.67633928571429,53.44856375506422L58.67075892857143,17.362175832422416L59.66517857142857,62.516206123189335L60.659598214285715,107.8105714177179L61.654017857142854,89.43473907493764L62.6484375,56.82077159389699L63.64285714285714,63.9367248490723L64.63727678571429,86.87117891828396L65.63169642857143,117.03058872176094L66.62611607142857,121.3264801187677L67.62053571428571,128.79370304008236L68.61495535714286,69.61329825561653L69.609375,100.76226546354421L70.60379464285714,102.88887065301918L71.59821428571428,68.10036081879073L72.59263392857143,72.35430892848109L73.58705357142857,53.943554745213774L74.58147321428571,70.28528521595658L75.57589285714285,93.2758376078759L76.5703125,89.98722355994663L77.56473214285714,88.20757267988685L78.55915178571429,-6.451357096595686L80.54799107142858,-13.370164507686056L81.54241071428572,24.467879649706823L82.53683035714286,71.09517820366479L83.53125,97.41841106910192L84.52566964285714,122.24538824651152L85.52008928571429,118.89950115327711L86.51450892857143,57.27743513236102L87.50892857142857,91.5025450637916L88.50334821428571,64.7366410813745L89.49776785714286,114.58883817752873L90.4921875,145.38803424011354L91.48660714285714,135.1800643435502L92.48102678571428,157.00132644193243L93.47544642857142,169.84313786039874L94.46986607142857,164.69061734682396L95.46428571428571,186.30842640131073L96.45870535714286,45.02529713673724L97.453125,-1.6275795696944906L98.44754464285715,58.324834840711574L99.44196428571429,85.82319297454328L100.43638392857143,64.75728061746786L101.43080357142857,58.942632944804096L102.42522321428572,80.35378953218049L103.41964285714286,60.45521629776029L104.4140625,97.11702205324022L105.40848214285714,142.53949520510173L106.40290178571428,149.6697583800147L107.39732142857143,164.21438998698446L108.39174107142857,62.13989315291366L109.38616071428571,104.05754345912659L110.38058035714285,103.19104359474564L111.375,-18.684326027557155L112.36941964285714,10.603134119248816L113.36383928571429,63.33506005714242L114.35825892857143,95.84029406476816L115.35267857142858,98.05929102146759L116.34709821428572,111.32184787435955L117.34151785714286,143.77625604604432L118.3359375,81.78191946995535L119.33035714285714,87.24705087914295L120.32477678571429,113.29509101801227L121.31919642857143,100.58291440814884L122.31361607142857,77.39715924200932L123.30803571428571,10.480381438019073L124.30245535714286,91.16856811746324L125.296875,115.58484591427063L126.29129464285714,117.6428416709204L127.28571428571428,131.78112401434944L128.28013392857142,135.31727847464097L129.27455357142858,90.97346650451465L130.26897321428572,112.63255391481121L131.26339285714286,125.53481650841084L132.2578125,126.63917323133174L133.25223214285714,105.29649083040934L134.24665178571428,132.93436106405892L135.24107142857142,155.94579645781485L136.23549107142856,134.7827947561412L137.22991071428572,144.9685463545261L138.22433035714286,157.6248813821824L139.21875,112.3617090913029L140.21316964285714,118.43424129253283L141.20758928571428,150.6134001717904L142.20200892857142,161.37308671595002L143.19642857142856,94.15153504239613L144.19084821428572,65.69247911128797L145.18526785714286,71.22099244277291L146.1796875,59.742520327026725L147.17410714285714,97.30968548592377L148.16852678571428,109.75649507058952L149.16294642857142,127.35998104852702L150.15736607142856,150.33550598271898L151.1517857142857,121.42134865210524L152.14620535714283,128.14143358690606L153.140625,158.53305845700118L154.13504464285714,144.7521404646949L155.12946428571428,161.7876067362667L156.12388392857142,160.62683537191228L157.11830357142858,142.2526951943998L158.11272321428572,141.18022178757317L159.10714285714286,95.67241296941629L160.1015625,25.665301381198137L161.09598214285717,88.29087282679193L162.0904017857143,134.8804560271604L163.08482142857144,103.46741081624303L164.07924107142858,154.37248374516926L165.07366071428572,141.36381839553468L166.06808035714286,154.84308988015968L167.0625,135.47109135485363L168.05691964285714,122.83390851316854L169.05133928571428,83.96111335795777L170.04575892857144,48.16346387615511L171.04017857142858,46.094177920354255L172.03459821428572,80.86440152705825L173.02901785714286,114.91278528781265L174.0234375,125.82201815101139L175.01785714285714,94.2509187316626L176.01227678571428,95.95603895349255L177.00669642857142,44.86894671673493L178.00111607142856,67.91062506597757L178.99553571428572,66.85545886919382L179.98995535714286,91.82646707599363L180.984375,127.3695459189884L181.97879464285714,87.55690574952624L182.97321428571428,112.05179545722747L183.96763392857142,134.29503350776974L184.96205357142856,153.54502191991278L185.9564732142857,114.75258819031262L186.95089285714283,19.626799098400394L187.9453125,80.3706087880677L188.93973214285714,137.1469560375675L189.93415178571428,101.49955652931806L190.92857142857142,118.5942818160196L191.92299107142858,137.5436600178257L192.91741071428572,113.18393092247783L193.91183035714286,97.52197738566618L194.90625,104.27750405290323L195.90066964285717,118.77636681652938L196.8950892857143,130.75138797300042L197.88950892857144,133.06546148024185L198.88392857142858,110.47515215408401L199.87834821428572,128.99328701966252L200.87276785714286,79.27352408078119L201.8671875,113.3514938904112L202.86160714285714,124.16609351867316L203.85602678571428,71.80527450632808L204.85044642857144,124.21766735991606L205.84486607142858,120.01095967051415L206.83928571428572,48.849033682601124L207.83370535714286,85.41503831858249L208.828125,85.97327900256748L209.82254464285714,105.78502317350446L210.81696428571428,118.92359167215596L211.81138392857142,131.32753179511135L212.80580357142856,114.55358005445764L213.80022321428572,115.51781631041504L214.79464285714286,128.8472956620817L215.7890625,112.75478543743196L216.78348214285714,95.76211871533133L217.77790178571428,123.98260964734186L218.77232142857142,59.55004694162084L219.76674107142856,65.5996945097514L220.7611607142857,103.56106362139565L221.75558035714283,95.89704416289301L222.75,43.28622934023026L223.74441964285714,73.07168802669759L224.73883928571428,105.74912954684484L225.73325892857142,129.35546353307342L226.72767857142858,134.00869026518615L227.72209821428572,115.25416540346592L228.71651785714286,73.14044136549263L229.7109375,104.10105172158703L230.70535714285717,130.27092597444573L231.6997767857143,147.2165474201254L232.69419642857144,118.41276552962478L233.68861607142858,110.1923504853338L234.68303571428572,124.2080014815384L235.67745535714286,130.09219906920347L236.671875,116.17762303638379L237.66629464285714,-52.023598907661906L238.66071428571428,-12.159543738016675L239.65513392857144,52.8498871959325L240.64955357142858,86.56027865119941L241.64397321428572,71.99003266433068L242.63839285714286,109.64146871053687L243.6328125,119.28047209023121L244.62723214285714,135.28665264271902L245.62165178571428,134.02237926786495L246.61607142857142,109.03459825861238L247.61049107142856,130.08227620740828L248.60491071428572,144.01738565950794L249.59933035714286,141.36526514847313L250.59375,137.6330617805163L251.58816964285714,125.19475002781729L252.58258928571428,81.17669591382L253.57700892857142,56.52640290900981L254.57142857142856,65.25960541019644L255.5658482142857,53.24529729719556L256.56026785714283,81.11818857282329L257.5546875,119.63945065143234L258.54910714285717,161.4924232001115L259.5435267857143,113.36149198366115L260.53794642857144,156.96341794377597L261.53236607142856,99.18607754326052L262.5267857142857,114.90310650869209L263.52120535714283,110.42410237502028L264.515625,124.34360426526133L265.51004464285717,125.98203092049366L266.5044642857143,132.49047712991543L267.49888392857144,180.826522949397L268.49330357142856,95.25105186712875" style="fill: none;" fill="none"></path></g><g><path stroke="rgb(0, 119, 187)" stroke-width="2px" d="M258.54910714285717,58.40386145455497Z" style="fill: none;" fill="none"></path></g></g></g></g><g opacity="0.2"><g><g><g><path stroke="rgb(255, 112, 67)" stroke-width="2px" d="M20.8828125,121.55288774626595L21.877232142857142,25.003817694527772L22.871651785714285,137.51133349963595L23.866071428571427,196.7533550262451L24.860491071428573,141.1506389890398L25.854910714285715,186.47947219439914L26.849330357142858,-93.37038455690653L27.84375,133.82057404518127L28.838169642857146,-336.5639482906886L29.832589285714285,61.352652924401426L30.827008928571427,60.286075830459595L31.82142857142857,137.76851289612904L32.815848214285715,86.79532742500305L33.810267857142854,144.51082103593006L34.8046875,49.759203468050295L35.79910714285714,148.53472004617961L36.793526785714285,39.87524945395335L37.78794642857142,-207.54049342019206L38.78236607142857,181.05009923662456L39.776785714285715,26.853206430162718L40.77120535714286,-25.78205966949459L41.765625,83.8976583480835L42.760044642857146,153.8928049973079L43.754464285714285,95.59329230444771L44.74888392857143,-21.813623632703493L45.74330357142857,-24.79729046140397L46.73772321428571,24.064624582018187L47.732142857142854,42.776867253439775L48.7265625,164.67486732346669L49.720982142857146,3.8501190458025505L50.715401785714285,38.35664912632536L51.70982142857143,47.58122675759452L52.70424107142857,131.23015175546917L53.698660714285715,67.65909443582808L54.693080357142854,135.291307415281L55.6875,120.0785070828029L56.681919642857146,8.864212989807148L57.67633928571429,31.420069864818032L58.67075892857143,-36.76740585054667L59.66517857142857,130.24725140844072L60.659598214285715,175.75211926868982L61.654017857142854,61.87099058287486L62.6484375,7.899820395878397L63.64285714285714,74.61065472875323L64.63727678571429,121.2728600161416L65.63169642857143,162.2697034222739L66.62611607142857,127.7703172138759L67.62053571428571,139.99453742163521L68.61495535714286,-19.157308919089154L69.609375,147.4857162748064L70.60379464285714,106.07877843720573L71.59821428571428,15.91759606770109L72.59263392857143,78.73523109299796L73.58705357142857,26.327423470360902L74.58147321428571,94.79788092204502L75.57589285714285,127.7616661957332L76.5703125,85.05430248805455L77.56473214285714,85.53809635979789L78.55915178571429,-148.4397517613002L80.54799107142858,188.14541111673626L81.54241071428572,81.22494588579451L82.53683035714286,141.0361260346004L83.53125,136.90326036725725L84.52566964285714,159.48585401262554L85.52008928571429,113.88067051342554L86.51450892857143,-35.15566389901294L87.50892857142857,142.84020996093747L88.50334821428571,24.58778510774886L89.49776785714286,189.3671338217599L90.4921875,191.5868283339909L91.48660714285714,119.86810949870517L92.48102678571428,189.73321958950586L93.47544642857142,189.10585498809812L94.46986607142857,156.96183657646176L95.46428571428571,218.73513998304094L97.453125,-71.60689462934216L98.44754464285715,148.2534564563206L99.44196428571429,127.07073017529078L100.43638392857143,33.15841208185469L101.43080357142857,50.22066143580847L102.42522321428572,112.47052441324506L103.41964285714286,30.607356446129945L104.4140625,152.1097306864602L105.40848214285714,210.673204932894L106.40290178571428,160.3651531423841L107.39732142857143,186.03133739743913L108.39174107142857,-90.97185209819243L109.38616071428571,166.9340189184461L110.38058035714285,101.89129379817417L111.375,-201.49738046101155L112.36941964285714,54.534324339457925L113.36383928571429,142.4329489639827L114.35825892857143,144.59814507620675L115.35267857142858,101.3877864565168L116.34709821428572,131.2156831536974L117.34151785714286,192.45786830357142L118.3359375,-11.2095853941781L119.33035714285714,95.44474799292428L120.32477678571429,152.36715122631617L121.31919642857143,81.51464949335372L122.31361607142857,42.61852649280005L123.30803571428571,-89.8947852679661L124.30245535714286,212.20084813662936L125.296875,152.20926260948178L126.29129464285714,120.72983530589511L127.28571428571428,152.98854752949305L128.28013392857142,140.6215101650783L129.27455357142858,24.457748549325135L130.26897321428572,145.121185030256L131.26339285714286,144.88821039881023L132.2578125,128.29570831571306L133.25223214285714,73.28246722902571L134.24665178571428,174.39116641453333L135.24107142857142,190.46294954844882L136.23549107142856,103.03829220363072L137.22991071428572,160.24717375210352L138.22433035714286,176.6093839236668L139.21875,44.46695065498354L140.21316964285714,127.54303959437777L141.20758928571428,198.88213849067685L143.19642857142856,-6.680792467934733L144.19084821428572,23.003895214625793L145.18526785714286,79.51376244000026L146.1796875,42.52481215340751L147.17410714285714,153.6604332242693L148.16852678571428,128.42670944758822L149.16294642857142,153.76521001543315L150.15736607142856,184.79879338400704L151.1517857142857,78.05011265618461L152.14620535714283,138.2215609891074L153.140625,204.1204957621438L154.13504464285714,124.08076347623552L155.12946428571428,187.34080614362443L156.12388392857142,158.88567832538058L157.11830357142858,114.6914849281311L158.11272321428572,139.57151167733326L159.10714285714286,27.41069974218097L160.1015625,-79.34536600112911L162.0904017857143,204.76483082771298L163.08482142857144,56.34784299986705L164.07924107142858,230.7300931385585L165.07366071428572,121.85082037108285L166.06808035714286,175.06199710709706L167.0625,106.41309356689453L168.05691964285714,103.87813425064087L169.05133928571428,25.651920625141702L170.04575892857144,-5.53301034654887L171.04017857142858,42.99024898665294L172.03459821428572,133.01973693711415L173.02901785714286,165.98536092894415L174.0234375,142.1858674458095L175.01785714285714,46.89426960263934L176.01227678571428,98.51371928623743L177.00669642857142,-31.76169163840153L178.00111607142856,102.47314258984156L178.99553571428572,65.27270957401821L179.98995535714286,129.2829793861934L180.984375,180.6841641834804L181.97879464285714,27.837945495333006L182.97321428571428,148.79413001877919L183.96763392857142,167.65989058358326L184.96205357142856,182.42000453812733L185.9564732142857,56.56393759591239L186.95089285714283,-123.0618845394679L187.9453125,171.4863233225686L188.93973214285714,222.3114769118172L189.93415178571428,48.0284572669438L190.92857142857142,144.23636974607194L191.92299107142858,165.96772732053483L192.91741071428572,76.64433727945601L193.91183035714286,74.02904708044869L194.90625,114.41079405375889L195.90066964285717,140.52466096196855L196.8950892857143,148.713919707707L197.88950892857144,136.53657174110413L198.88392857142858,76.58968816484725L199.87834821428572,156.7704893180302L200.87276785714286,4.693879672459207L201.8671875,164.4684486048562L202.86160714285714,140.3879929610661L203.85602678571428,-6.735954012189576L204.85044642857144,202.83625664029802L205.84486607142858,113.70089813641138L206.83928571428572,-57.893855299268395L207.83370535714286,140.26404527255465L208.828125,86.81064002854484L209.82254464285714,135.50263942990983L210.81696428571428,138.6314444201333L211.81138392857142,149.93344197954448L212.80580357142856,89.39265244347709L213.80022321428572,116.9641706943512L214.79464285714286,148.84151468958171L215.7890625,88.61602010045732L216.78348214285714,70.27311863218036L217.77790178571428,166.31334604535783L218.77232142857142,-37.098797116960775L219.76674107142856,74.6741658619472L220.7611607142857,160.50311728886194L221.75558035714283,84.40101497513908L222.75,-35.62999289376392L223.74441964285714,117.74987605639866L224.73883928571428,154.7652918270656L225.73325892857142,164.76496451241627L226.72767857142858,140.98853036335535L227.72209821428572,87.12237811088562L228.71651785714286,9.969855308532734L229.7109375,150.54196725572857L230.70535714285717,169.52573735373358L231.6997767857143,172.63497958864482L232.69419642857144,75.20709269387382L233.68861607142858,97.86172791889734L234.68303571428572,145.2314779758453L235.67745535714286,138.91849545070102L236.671875,95.30575898715428L237.66629464285714,-304.3254318237304L238.66071428571428,47.636539016451174L239.65513392857144,150.36403359685625L240.64955357142858,137.1258658340999L241.64397321428572,50.134663684027544L242.63839285714286,166.11862277984616L243.6328125,133.7389771597726L244.62723214285714,159.29592347145078L245.62165178571428,132.12596920558383L246.61607142857142,71.55292674473354L247.61049107142856,161.65379313060214L248.60491071428572,164.92004983765736L249.59933035714286,137.38708438192094L250.59375,132.03475672858102L251.58816964285714,106.53728239876884L252.58258928571428,15.149614742824035L253.57700892857142,19.550963401794455L254.57142857142856,78.3594091619764L255.5658482142857,35.22383512769427L256.56026785714283,122.9275254862649L257.5546875,177.42134376934595L258.54910714285717,224.27188202313008L259.5435267857143,41.1650951589857L260.53794642857144,222.36630688394817L261.53236607142856,12.520066942487468L262.5267857142857,138.4786499568394L263.52120535714283,103.70559617451258L264.515625,145.22285710062297L265.51004464285717,128.4396709033421L266.5044642857143,142.25314644404818L267.49888392857144,253.33059167861936" style="fill: none;" fill="none"></path></g><g><path stroke="rgb(0, 119, 187)" stroke-width="2px" d="M258.54910714285717,58.40386145455497Z" style="fill: none;" fill="none"></path></g></g></g></g></g></g><g transform="translate(51, 177)" clip-path="url(#clip_1)"><clipPath id="clip_1"><rect width="278" height="23"></rect></clipPath><g><g><line x1="0" y1="0" x2="0" y2="5" style="visibility: inherit;" fill="rgb(0, 0, 0)" stroke="rgb(204, 204, 204)" stroke-width="1px"></line><line x1="19.888392857142858" y1="0" x2="19.888392857142858" y2="5" style="visibility: inherit;" fill="rgb(0, 0, 0)" stroke="rgb(204, 204, 204)" stroke-width="1px"></line><line x1="39.776785714285715" y1="0" x2="39.776785714285715" y2="5" style="visibility: inherit;" fill="rgb(0, 0, 0)" stroke="rgb(204, 204, 204)" stroke-width="1px"></line><line x1="59.66517857142857" y1="0" x2="59.66517857142857" y2="5" style="visibility: inherit;" fill="rgb(0, 0, 0)" stroke="rgb(204, 204, 204)" stroke-width="1px"></line><line x1="79.55357142857143" y1="0" x2="79.55357142857143" y2="5" style="visibility: inherit;" fill="rgb(0, 0, 0)" stroke="rgb(204, 204, 204)" stroke-width="1px"></line><line x1="99.44196428571429" y1="0" x2="99.44196428571429" y2="5" style="visibility: inherit;" fill="rgb(0, 0, 0)" stroke="rgb(204, 204, 204)" stroke-width="1px"></line><line x1="119.33035714285714" y1="0" x2="119.33035714285714" y2="5" style="visibility: inherit;" fill="rgb(0, 0, 0)" stroke="rgb(204, 204, 204)" stroke-width="1px"></line><line x1="139.21875" y1="0" x2="139.21875" y2="5" style="visibility: inherit;" fill="rgb(0, 0, 0)" stroke="rgb(204, 204, 204)" stroke-width="1px"></line><line x1="159.10714285714286" y1="0" x2="159.10714285714286" y2="5" style="visibility: inherit;" fill="rgb(0, 0, 0)" stroke="rgb(204, 204, 204)" stroke-width="1px"></line><line x1="178.99553571428572" y1="0" x2="178.99553571428572" y2="5" style="visibility: inherit;" fill="rgb(0, 0, 0)" stroke="rgb(204, 204, 204)" stroke-width="1px"></line><line x1="198.88392857142858" y1="0" x2="198.88392857142858" y2="5" style="visibility: inherit;" fill="rgb(0, 0, 0)" stroke="rgb(204, 204, 204)" stroke-width="1px"></line><line x1="218.77232142857142" y1="0" x2="218.77232142857142" y2="5" style="visibility: inherit;" fill="rgb(0, 0, 0)" stroke="rgb(204, 204, 204)" stroke-width="1px"></line><line x1="238.66071428571428" y1="0" x2="238.66071428571428" y2="5" style="visibility: inherit;" fill="rgb(0, 0, 0)" stroke="rgb(204, 204, 204)" stroke-width="1px"></line><line x1="258.54910714285717" y1="0" x2="258.54910714285717" y2="5" style="visibility: inherit;" fill="rgb(0, 0, 0)" stroke="rgb(204, 204, 204)" stroke-width="1px"></line><line x1="278.4375" y1="0" x2="278.4375" y2="5" style="visibility: inherit;" fill="rgb(0, 0, 0)" stroke="rgb(204, 204, 204)" stroke-width="1px"></line></g><g transform="translate(0, 8)"><text x="0" y="0" dx="0em" dy="0.95em" style="text-anchor: middle; visibility: hidden; font-family: Roboto, sans-serif; font-size: 12px; font-weight: 200;" fill="rgb(33, 33, 33)" stroke="none" stroke-width="1px">-2k</text><text x="19.888392857142858" y="0" dx="0em" dy="0.95em" style="text-anchor: middle; visibility: inherit; font-family: Roboto, sans-serif; font-size: 12px; font-weight: 200;" fill="rgb(33, 33, 33)" stroke="none" stroke-width="1px">0</text><text x="39.776785714285715" y="0" dx="0em" dy="0.95em" style="text-anchor: middle; visibility: hidden; font-family: Roboto, sans-serif; font-size: 12px; font-weight: 200;" fill="rgb(33, 33, 33)" stroke="none" stroke-width="1px">2k</text><text x="59.66517857142857" y="0" dx="0em" dy="0.95em" style="text-anchor: middle; visibility: inherit; font-family: Roboto, sans-serif; font-size: 12px; font-weight: 200;" fill="rgb(33, 33, 33)" stroke="none" stroke-width="1px">4k</text><text x="79.55357142857143" y="0" dx="0em" dy="0.95em" style="text-anchor: middle; visibility: hidden; font-family: Roboto, sans-serif; font-size: 12px; font-weight: 200;" fill="rgb(33, 33, 33)" stroke="none" stroke-width="1px">6k</text><text x="99.44196428571429" y="0" dx="0em" dy="0.95em" style="text-anchor: middle; visibility: inherit; font-family: Roboto, sans-serif; font-size: 12px; font-weight: 200;" fill="rgb(33, 33, 33)" stroke="none" stroke-width="1px">8k</text><text x="119.33035714285714" y="0" dx="0em" dy="0.95em" style="text-anchor: middle; visibility: hidden; font-family: Roboto, sans-serif; font-size: 12px; font-weight: 200;" fill="rgb(33, 33, 33)" stroke="none" stroke-width="1px">10k</text><text x="139.21875" y="0" dx="0em" dy="0.95em" style="text-anchor: middle; visibility: inherit; font-family: Roboto, sans-serif; font-size: 12px; font-weight: 200;" fill="rgb(33, 33, 33)" stroke="none" stroke-width="1px">12k</text><text x="159.10714285714286" y="0" dx="0em" dy="0.95em" style="text-anchor: middle; visibility: hidden; font-family: Roboto, sans-serif; font-size: 12px; font-weight: 200;" fill="rgb(33, 33, 33)" stroke="none" stroke-width="1px">14k</text><text x="178.99553571428572" y="0" dx="0em" dy="0.95em" style="text-anchor: middle; visibility: inherit; font-family: Roboto, sans-serif; font-size: 12px; font-weight: 200;" fill="rgb(33, 33, 33)" stroke="none" stroke-width="1px">16k</text><text x="198.88392857142858" y="0" dx="0em" dy="0.95em" style="text-anchor: middle; visibility: hidden; font-family: Roboto, sans-serif; font-size: 12px; font-weight: 200;" fill="rgb(33, 33, 33)" stroke="none" stroke-width="1px">18k</text><text x="218.77232142857142" y="0" dx="0em" dy="0.95em" style="text-anchor: middle; visibility: inherit; font-family: Roboto, sans-serif; font-size: 12px; font-weight: 200;" fill="rgb(33, 33, 33)" stroke="none" stroke-width="1px">20k</text><text x="238.66071428571428" y="0" dx="0em" dy="0.95em" style="text-anchor: middle; visibility: hidden; font-family: Roboto, sans-serif; font-size: 12px; font-weight: 200;" fill="rgb(33, 33, 33)" stroke="none" stroke-width="1px">22k</text><text x="258.54910714285717" y="0" dx="0em" dy="0.95em" style="text-anchor: middle; visibility: inherit; font-family: Roboto, sans-serif; font-size: 12px; font-weight: 200;" fill="rgb(33, 33, 33)" stroke="none" stroke-width="1px">24k</text><text x="278.4375" y="0" dx="0em" dy="0.95em" style="text-anchor: middle; visibility: hidden; font-family: Roboto, sans-serif; font-size: 12px; font-weight: 200;" fill="rgb(33, 33, 33)" stroke="none" stroke-width="1px">26k</text></g><line x1="0" y1="0" x2="278.4375" y2="0" fill="rgb(0, 0, 0)" stroke="rgb(204, 204, 204)" stroke-width="1px"></line></g></g></g></g></svg>