<svg viewBox="0 0 330 200" xmlns="http://www.w3.org/2000/svg"><g><g><g><g><g><line x1="73.375" y1="175" x2="68.375" y2="175" style="visibility: inherit;" fill="rgb(0, 0, 0)" stroke="rgb(204, 204, 204)" stroke-width="1px"></line><line x1="73.375" y1="150" x2="68.375" y2="150" style="visibility: inherit;" fill="rgb(0, 0, 0)" stroke="rgb(204, 204, 204)" stroke-width="1px"></line><line x1="73.375" y1="125" x2="68.375" y2="125" style="visibility: inherit;" fill="rgb(0, 0, 0)" stroke="rgb(204, 204, 204)" stroke-width="1px"></line><line x1="73.375" y1="100" x2="68.375" y2="100" style="visibility: inherit;" fill="rgb(0, 0, 0)" stroke="rgb(204, 204, 204)" stroke-width="1px"></line><line x1="73.375" y1="75" x2="68.375" y2="75" style="visibility: inherit;" fill="rgb(0, 0, 0)" stroke="rgb(204, 204, 204)" stroke-width="1px"></line><line x1="73.375" y1="50" x2="68.375" y2="50" style="visibility: inherit;" fill="rgb(0, 0, 0)" stroke="rgb(204, 204, 204)" stroke-width="1px"></line><line x1="73.375" y1="25.000000000000007" x2="68.375" y2="25.000000000000007" style="visibility: inherit;" fill="rgb(0, 0, 0)" stroke="rgb(204, 204, 204)" stroke-width="1px"></line><line x1="73.375" y1="0" x2="68.375" y2="0" style="visibility: inherit;" fill="rgb(0, 0, 0)" stroke="rgb(204, 204, 204)" stroke-width="1px"></line></g><g transform="translate(63.375, 0)"><text x="0" y="175" dx="0em" dy="0.3em" style="text-anchor: end; visibility: hidden; font-family: Roboto, sans-serif; font-size: 12px; font-weight: 200;" fill="rgb(33, 33, 33)" stroke="none" stroke-width="1px">-5e+7</text><text x="0" y="150" dx="0em" dy="0.3em" style="text-anchor: end; visibility: inherit; font-family: Roboto, sans-serif; font-size: 12px; font-weight: 200;" fill="rgb(33, 33, 33)" stroke="none" stroke-width="1px">0</text><text x="0" y="125" dx="0em" dy="0.3em" style="text-anchor: end; visibility: inherit; font-family: Roboto, sans-serif; font-size: 12px; font-weight: 200;" fill="rgb(33, 33, 33)" stroke="none" stroke-width="1px">5e+7</text><text x="0" y="100" dx="0em" dy="0.3em" style="text-anchor: end; visibility: inherit; font-family: Roboto, sans-serif; font-size: 12px; font-weight: 200;" fill="rgb(33, 33, 33)" stroke="none" stroke-width="1px">1e+8</text><text x="0" y="75" dx="0em" dy="0.3em" style="text-anchor: end; visibility: inherit; font-family: Roboto, sans-serif; font-size: 12px; font-weight: 200;" fill="rgb(33, 33, 33)" stroke="none" stroke-width="1px">1.5e+8</text><text x="0" y="50" dx="0em" dy="0.3em" style="text-anchor: end; visibility: inherit; font-family: Roboto, sans-serif; font-size: 12px; font-weight: 200;" fill="rgb(33, 33, 33)" stroke="none" stroke-width="1px">2e+8</text><text x="0" y="25.000000000000007" dx="0em" dy="0.3em" style="text-anchor: end; visibility: inherit; font-family: Roboto, sans-serif; font-size: 12px; font-weight: 200;" fill="rgb(33, 33, 33)" stroke="none" stroke-width="1px">2.5e+8</text><text x="0" y="0" dx="0em" dy="0.3em" style="text-anchor: end; visibility: hidden; font-family: Roboto, sans-serif; font-size: 12px; font-weight: 200;" fill="rgb(33, 33, 33)" stroke="none" stroke-width="1px">3e+8</text></g><line x1="73.375" y1="0" x2="73.375" y2="175" fill="rgb(0, 0, 0)" stroke="rgb(204, 204, 204)" stroke-width="1px"></line></g></g><g transform="translate(73, 0)" clip-path="url(#clip_0)"><clipPath id="clip_0"><rect width="256" height="175"></rect></clipPath><g><g><g><line x1="0" y1="0" x2="0" y2="175" fill="rgb(0, 0, 0)" stroke="rgb(66, 66, 66)" stroke-width="1px" opacity="0.25"></line><line x1="18.330357142857142" y1="0" x2="18.330357142857142" y2="175" fill="rgb(0, 0, 0)" stroke="rgb(66, 66, 66)" stroke-width="1px" opacity="0.25"></line><line x1="36.660714285714285" y1="0" x2="36.660714285714285" y2="175" fill="rgb(0, 0, 0)" stroke="rgb(66, 66, 66)" stroke-width="1px" opacity="0.25"></line><line x1="54.99107142857142" y1="0" x2="54.99107142857142" y2="175" fill="rgb(0, 0, 0)" stroke="rgb(66, 66, 66)" stroke-width="1px" opacity="0.25"></line><line x1="73.32142857142857" y1="0" x2="73.32142857142857" y2="175" fill="rgb(0, 0, 0)" stroke="rgb(66, 66, 66)" stroke-width="1px" opacity="0.25"></line><line x1="91.65178571428572" y1="0" x2="91.65178571428572" y2="175" fill="rgb(0, 0, 0)" stroke="rgb(66, 66, 66)" stroke-width="1px" opacity="0.25"></line><line x1="109.98214285714285" y1="0" x2="109.98214285714285" y2="175" fill="rgb(0, 0, 0)" stroke="rgb(66, 66, 66)" stroke-width="1px" opacity="0.25"></line><line x1="128.3125" y1="0" x2="128.3125" y2="175" fill="rgb(0, 0, 0)" stroke="rgb(66, 66, 66)" stroke-width="1px" opacity="0.25"></line><line x1="146.64285714285714" y1="0" x2="146.64285714285714" y2="175" fill="rgb(0, 0, 0)" stroke="rgb(66, 66, 66)" stroke-width="1px" opacity="0.25"></line><line x1="164.9732142857143" y1="0" x2="164.9732142857143" y2="175" fill="rgb(0, 0, 0)" stroke="rgb(66, 66, 66)" stroke-width="1px" opacity="0.25"></line><line x1="183.30357142857144" y1="0" x2="183.30357142857144" y2="175" fill="rgb(0, 0, 0)" stroke="rgb(66, 66, 66)" stroke-width="1px" opacity="0.25"></line><line x1="201.63392857142856" y1="0" x2="201.63392857142856" y2="175" fill="rgb(0, 0, 0)" stroke="rgb(66, 66, 66)" stroke-width="1px" opacity="0.25"></line><line x1="219.9642857142857" y1="0" x2="219.9642857142857" y2="175" fill="rgb(0, 0, 0)" stroke="rgb(66, 66, 66)" stroke-width="1px" opacity="0.25"></line><line x1="238.29464285714286" y1="0" x2="238.29464285714286" y2="175" fill="rgb(0, 0, 0)" stroke="rgb(66, 66, 66)" stroke-width="1px" opacity="0.25"></line><line x1="256.625" y1="0" x2="256.625" y2="175" fill="rgb(0, 0, 0)" stroke="rgb(66, 66, 66)" stroke-width="1px" opacity="0.25"></line></g><g><line x1="0" y1="175" x2="256.625" y2="175" fill="rgb(0, 0, 0)" stroke="rgb(66, 66, 66)" stroke-width="1px" opacity="0.25"></line><line x1="0" y1="150" x2="256.625" y2="150" fill="rgb(0, 0, 0)" stroke="rgb(66, 66, 66)" stroke-width="1px" opacity="0.25"></line><line x1="0" y1="125" x2="256.625" y2="125" fill="rgb(0, 0, 0)" stroke="rgb(66, 66, 66)" stroke-width="1px" opacity="0.25"></line><line x1="0" y1="100" x2="256.625" y2="100" fill="rgb(0, 0, 0)" stroke="rgb(66, 66, 66)" stroke-width="1px" opacity="0.25"></line><line x1="0" y1="75" x2="256.625" y2="75" fill="rgb(0, 0, 0)" stroke="rgb(66, 66, 66)" stroke-width="1px" opacity="0.25"></line><line x1="0" y1="50" x2="256.625" y2="50" fill="rgb(0, 0, 0)" stroke="rgb(66, 66, 66)" stroke-width="1px" opacity="0.25"></line><line x1="0" y1="25.000000000000007" x2="256.625" y2="25.000000000000007" fill="rgb(0, 0, 0)" stroke="rgb(66, 66, 66)" stroke-width="1px" opacity="0.25"></line><line x1="0" y1="0" x2="256.625" y2="0" fill="rgb(0, 0, 0)" stroke="rgb(66, 66, 66)" stroke-width="1px" opacity="0.25"></line></g></g></g><g><g><line x1="0" y1="150" x2="256.625" y2="150" fill="rgb(0, 0, 0)" stroke="rgb(153, 153, 153)" stroke-width="1.5px"></line></g></g><g><g><line x1="18.330357142857142" y1="0" x2="18.330357142857142" y2="175" fill="rgb(0, 0, 0)" stroke="rgb(153, 153, 153)" stroke-width="1.5px"></line></g></g><g><g><g><g><g><path stroke="rgb(255, 112, 67)" stroke-width="2px" d="M19.246875,149.9999987325822L20.163392857142856,149.99999874167273L21.079910714285713,149.99999875163434L21.99642857142857,149.99999876201525L22.91294642857143,149.99999877474787L23.829464285714288,149.99999878969837L24.745982142857144,149.9999936585857L25.6625,149.99996815148037L26.57901785714286,149.99990466966193L27.49553571428571,149.99982340705188L28.41205357142857,149.9997772016481L29.32857142857143,149.99975193279315L30.245089285714286,149.99923795581793L31.161607142857143,112.7350546077028L32.078125,51.80373097115745L32.99464285714286,14.022396052868997L33.911160714285714,-6.518212007052782L41.24330357142858,-2.5913250704744484L42.159821428571426,1.9575327172355688L43.07633928571428,6.4651546438489556L43.99285714285714,10.890941904159792L44.909375,15.212265934715965L45.82589285714286,19.417232490437993L46.74241071428571,23.50031443586055L47.658928571428575,27.45980177663851L48.575446428571425,31.29619164917826L49.49196428571429,35.01129589594907L50.40848214285714,38.607663999393544L51.325,42.08825603553643L52.24151785714286,45.45624004216516L53.15803571428572,48.714854437398955L54.074553571428574,51.86737026946292L54.99107142857142,54.91702056575436L55.90758928571429,57.86698354181864L56.82410714285714,60.72037892646432L57.740625,63.48025295667547L58.65714285714286,66.1495597744677L59.573660714285715,68.73119186494898L60.49017857142857,71.22794711912512L61.40669642857143,73.64254747156542L62.323214285714286,75.97765328299167L63.23973214285714,78.23582716982544L64.15625,80.41956510191291L65.07276785714285,82.53127986115798L65.98928571428571,84.57332471670072L66.90580357142858,86.54797723002389L67.82232142857143,88.45744233801634L68.73883928571428,90.30387020281096L69.65535714285714,92.08932852168724L70.571875,93.81582911301273L71.48839285714286,95.48531826780787L72.40491071428572,97.09968856068485L73.32142857142857,98.660769936411L74.23794642857143,100.17032916184664L75.15446428571428,101.630082297108L76.07098214285715,103.04169577826481L76.9875,104.40676946695892L77.90401785714285,105.72686488017536L78.82053571428573,107.0034869281052L79.73705357142858,108.23809215686315L80.65357142857142,109.43209529411789L81.57008928571427,110.58685877647072L82.48660714285715,111.70369766588244L83.403125,112.78389379952945L84.31964285714285,113.82867867971768L85.23616071428572,114.8392440078306L86.15267857142857,115.81674640469838L87.06919642857143,116.76227184281902L87.98571428571428,117.67693910569143L88.90223214285714,118.56177866341484L89.81875,119.41781199804892L90.73526785714286,120.24600399882934L91.65178571428572,121.0473023992976L92.56830357142857,121.82106863957856L93.48482142857142,122.56737398374715L94.40133928571429,123.29101639024829L95.31785714285715,123.99221063414898L96.234375,124.67138318048937L97.15089285714285,125.32743630829364L98.06741071428571,125.96323298497617L98.98392857142858,126.57913739098571L99.90044642857143,127.17522963459143L100.81696428571428,127.75259538075484L101.73348214285714,128.31172922845292L102.65,128.85309193707175L103.56651785714286,129.37732956224303L104.48303571428572,129.88498893734584L105.39955357142857,130.3730229624075L106.31607142857143,130.8437881774445L107.23258928571428,131.3018297064667L108.14910714285715,131.74671942388002L109.065625,132.178390854328L109.98214285714285,132.5969757125968L110.89866071428573,133.00273062755807L111.81517857142858,133.39597077653485L112.73169642857142,133.7770468659209L113.64821428571427,134.14632211955254L114.56473214285715,134.50414887173153L115.48125,134.85091092303892L116.39776785714285,135.18696655382334L117.31428571428572,135.51266033229402L118.23080357142857,135.8283313993764L119.14732142857143,136.13430403962585L120.06383928571428,136.4308952237755L120.98035714285714,136.7184123342653L121.896875,136.99714660055918L122.81339285714286,137.26738756033552L123.72991071428572,137.5294121362013L124.64642857142857,137.78348488172077L125.56294642857142,138.02986332903248L126.47946428571429,138.26879639741946L127.39598214285715,138.50051783845169L128.3125,138.725266303071L129.22901785714285,138.94326538184262L130.1455357142857,139.15472882910555L131.06205357142855,139.35986409746334L131.97857142857143,139.558870858478L132.8950892857143,139.7519453150868L133.81160714285716,139.93927478905206L134.728125,140.12103927343125L135.64464285714286,140.29741396405873L136.5611607142857,140.46856637843524L137.47767857142856,140.63466102706116L138.39419642857143,140.7958538162367L139.31071428571428,140.952296289742L140.22723214285713,141.10413697384521L141.14375,141.25151498430714L142.06026785714286,141.39456899058428L142.9767857142857,141.5334301943506L143.89330357142856,141.66822611661033L144.80982142857144,141.79908026996623L145.7263392857143,141.92611136197974L146.64285714285714,142.04942541718782L147.559375,142.1691472503127L148.47589285714287,142.2853827501876L149.39241071428572,142.39761245011258L150.30892857142857,142.50658647006753L151.22544642857144,142.61261228204052L152.1419642857143,142.71566936922432L153.05848214285714,142.80852562153459L153.975,142.90133697292075L154.89151785714284,142.99324538375245L155.8080357142857,143.08355643025146L156.72455357142857,143.17184845815086L157.64107142857145,143.25797287489053L158.5575892857143,143.3418297249343L159.47410714285715,143.4233866349606L160.390625,143.50263758097634L161.30714285714285,143.57963034858582L162.2236607142857,143.65440300915148L163.14017857142855,143.7270002054909L164.05669642857143,143.79744532329454L164.9732142857143,143.86584079397673L165.88973214285716,143.93223607638603L166.80625,143.9966794458316L167.72276785714286,144.05922066749898L168.6392857142857,144.11986580049938L169.55580357142856,144.17872468029964L170.47232142857143,144.23583700817977L171.38883928571428,144.29124660490788L172.30535714285713,144.34499496294472L173.221875,144.39712397776682L174.13839285714286,144.4476765866601L175.0549107142857,144.49669235199605L175.97142857142856,144.54421141119764L176.88794642857144,144.5902724467186L177.8044642857143,144.63489646803114L178.72098214285714,144.6781426808187L179.6375,144.7200438084912L180.55401785714287,144.76063328509474L181.47053571428572,144.79994357105682L182.38705357142857,144.8380055426341L183.30357142857144,144.87485112558045L184.2200892857143,144.9105102753483L185.13660714285714,144.94501256520897L186.053125,144.97838673912537L186.96964285714284,145.0106610434752L187.8861607142857,145.04186182608512L188.80267857142857,145.07201689565107L189.71919642857145,145.10115193739065L190.6357142857143,145.1292915624344L191.55223214285715,145.15646093746062L192.46875,145.18268356247637L193.38526785714285,145.20798273748582L194.3017857142857,145.2323806424915L195.21830357142855,145.2558997854949L196.13482142857143,145.27856147129694L197.0513392857143,145.30038748277815L197.96785714285716,145.3213976896669L198.884375,145.34161201380013L199.80089285714286,145.36105080828008L200.7174107142857,145.37973308496805L201.63392857142856,145.39767745098084L202.55044642857143,145.4149022705885L203.46696428571428,145.4314253623531L204.38348214285713,145.44726521741185L205.3,145.46243833044713L206.21651785714286,145.47696219826827L207.1330357142857,145.49085351896096L208.04955357142856,145.50412871137658L208.96607142857144,145.51680362682595L209.8825892857143,145.52889457609558L210.79910714285714,145.54041674565732L211.715625,145.5513856473944L212.63214285714287,145.56181638843663L213.54866071428572,145.57172423306199L214.46517857142857,145.5811237398372L215.38169642857144,145.59002984390233L216.2982142857143,145.5984561063414L217.21473214285714,145.60641766380485L218.13125,145.6139281982829L219.04776785714284,145.62100191896974L219.9642857142857,145.62765175138185L220.88080357142857,145.63389225082912L221.79732142857145,145.63973735049746L222.7138392857143,145.6451998102985L223.63035714285715,145.65029348617907L224.546875,145.65503169170745L225.46339285714285,145.65942701502445L226.3799107142857,145.66349340901468L227.29642857142855,145.66724344540881L228.21294642857143,145.67069066724528L229.1294642857143,145.67384780034718L230.04598214285716,145.6767276802083L230.9625,145.67934360812498L231.87901785714286,145.681707964875L232.7955357142857,145.68383397892498L233.71205357142856,145.68573438735498L234.62857142857143,145.68742183241298L235.54508928571428,145.6889096994478L236.46160714285713,145.69021041966866L237.378125,145.6913362518012L238.29464285714286,145.69230095108074L239.2111607142857,145.69311717064843L240.12767857142856,145.69379730238907L241.04419642857144,145.69435378143345L241.9607142857143,145.69480046886005L242.87723214285714,145.69514888131604L243.79375,145.69541292878964L244.71026785714287,145.69560415727378L245.62678571428572,145.69573869436425L246.54330357142857,145.69581961661856L247.45982142857144,145.69586816997113" style="fill: none;" fill="none"></path></g></g></g></g><g opacity="0.2"><g><g><g><path stroke="rgb(255, 112, 67)" stroke-width="2px" d="M19.246875,149.9999987325822L20.163392857142856,149.99999874712705L21.079910714285713,149.99999876119745L21.99642857142857,149.99999877422323L22.91294642857143,149.99999879137158L23.829464285714288,149.99999881038033L24.745982142857144,149.9999863210125L25.6625,149.99993096187592L26.57901785714286,149.9998110463104L27.49553571428571,149.99970274154666L28.41205357142857,149.99970831262206L29.32857142857143,149.99971416702272L30.245089285714286,149.9984686685791L31.161607142857143,56.911784000000004L32.078125,-39.521632000000004L40.32678571428571,-0.5563200000000101L41.24330357142858,4.187968000000003L42.159821428571426,8.7808L43.07633928571428,13.226575999999996L43.99285714285714,17.529616000000008L44.909375,21.694247999999998L45.82589285714286,25.724679999999996L46.74241071428571,29.62493599999999L47.658928571428575,33.399032L48.575446428571425,37.050776000000006L49.49196428571429,40.58395199999999L50.40848214285714,44.002216000000004L51.325,47.309143999999996L52.24151785714286,50.50821599999999L53.15803571428572,53.60277599999999L54.074553571428574,56.596144L54.99107142857142,59.491496000000005L55.90758928571429,62.29192799999999L56.82410714285714,65.000472L57.740625,67.620064L58.65714285714286,70.15352L59.573660714285715,72.60364L60.49017857142857,74.97308L61.40669642857143,77.264448L62.323214285714286,79.48031200000001L63.23973214285714,81.623088L64.15625,83.695172L65.07276785714285,85.69885199999999L65.98928571428571,87.636392L66.90580357142858,89.50995599999999L67.82232142857143,91.32164000000002L68.73883928571428,93.073512L69.65535714285714,94.767516L70.571875,96.40557999999999L71.48839285714286,97.98955199999999L72.40491071428572,99.521244L73.32142857142857,101.00239199999999L74.23794642857143,102.434668L75.15446428571428,103.81971200000001L76.07098214285715,105.159116L76.9875,106.45437999999999L77.90401785714285,107.707008L78.82053571428573,108.91841999999998L79.73705357142858,110.08999999999999L80.65357142857142,111.2231L81.57008928571427,112.31900399999999L82.48660714285715,113.37895599999999L83.403125,114.404188L84.31964285714285,115.39585600000001L85.23616071428572,116.355092L86.15267857142857,117.28299999999999L87.06919642857143,118.18056L87.98571428571428,119.04893999999999L88.90223214285714,119.889038L89.81875,120.70186199999999L90.73526785714286,121.488292L91.65178571428572,122.24924999999999L92.56830357142857,122.981718L93.48482142857142,123.68683200000001L94.40133928571429,124.37648L95.31785714285715,125.044002L96.234375,125.69014200000001L97.15089285714285,126.31151600000001L98.06741071428571,126.916928L98.98392857142858,127.50299399999999L99.90044642857143,128.069368L100.81696428571428,128.618644L101.73348214285714,129.15043L102.65,129.665136L103.56651785714286,130.16368599999998L104.48303571428572,130.646478L105.39955357142857,131.105074L106.31607142857143,131.549936L107.23258928571428,131.98889200000002L108.14910714285715,132.414054L109.065625,132.825898L109.98214285714285,133.224853L110.89866071428573,133.61136299999998L111.81517857142858,133.98583100000002L112.73169642857142,134.348661L113.64821428571427,134.70023500000002L114.56473214285715,135.040889L115.48125,135.371054L116.39776785714285,135.69105L117.31428571428572,136.00120099999998L118.23080357142857,136.301838L119.14732142857143,136.59326299999998L120.06383928571428,136.875782L120.98035714285714,137.149688L121.896875,137.415248L122.81339285714286,137.672749L123.72991071428572,137.922449L124.64642857142857,138.164594L125.56294642857142,138.399431L126.47946428571429,138.627196L127.39598214285715,138.8481L128.3125,139.062389L129.22901785714285,139.270264L130.1455357142857,139.471924L131.06205357142855,139.66756700000002L131.97857142857143,139.857381L132.8950892857143,140.041557L133.81160714285716,140.220269L134.728125,140.393686L135.64464285714286,140.561976L136.5611607142857,140.72529500000002L137.47767857142856,140.883803L138.39419642857143,141.037643L139.31071428571428,141.18696L140.22723214285713,141.331898L141.14375,141.472582L142.06026785714286,141.60915L142.9767857142857,141.74172199999998L143.89330357142856,141.87042L144.80982142857144,141.9953615L145.7263392857143,142.116658L146.64285714285714,142.2343965L147.559375,142.34873L148.47589285714287,142.459736L149.39241071428572,142.565957L150.30892857142857,142.6700475L151.22544642857144,142.77165100000002L152.1419642857143,142.87025500000001L153.05848214285714,142.94781L153.975,143.040554L154.89151785714284,143.131108L155.8080357142857,143.21902300000002L156.72455357142857,143.3042865L157.64107142857145,143.38715950000002L158.5575892857143,143.467615L159.47410714285715,143.545722L160.390625,143.62151400000002L161.30714285714285,143.6951195L162.2236607142857,143.766562L163.14017857142855,143.835896L164.05669642857143,143.903113L164.9732142857143,143.968434L165.88973214285716,144.03182900000002L166.80625,144.0933445L167.72276785714286,144.1530325L168.6392857142857,144.2108335L169.55580357142856,144.267013L170.47232142857143,144.3215055L171.38883928571428,144.374361L172.30535714285713,144.42561750000002L173.221875,144.4753175L174.13839285714286,144.5235055L175.0549107142857,144.570216L175.97142857142856,144.61549L176.88794642857144,144.65936399999998L177.8044642857143,144.7018325L178.72098214285714,144.743012L179.6375,144.7828955L180.55401785714287,144.8215175L181.47053571428572,144.85890899999998L182.38705357142857,144.89509850000002L183.30357142857144,144.9301195L184.2200892857143,144.963999L185.13660714285714,144.996766L186.053125,145.028448L186.96964285714284,145.0590725L187.8861607142857,145.088663L188.80267857142857,145.1172495L189.71919642857145,145.1448545L190.6357142857143,145.171501L191.55223214285715,145.197215L192.46875,145.2220175L193.38526785714285,145.24593149999998L194.3017857142857,145.26897749999998L195.21830357142855,145.2911785L196.13482142857143,145.312554L197.0513392857143,145.3331265L197.96785714285716,145.352913L198.884375,145.3719335L199.80089285714286,145.390209L200.7174107142857,145.4077565L201.63392857142856,145.42459399999998L202.55044642857143,145.4407395L203.46696428571428,145.45621L204.38348214285713,145.471025L205.3,145.485198L206.21651785714286,145.498748L207.1330357142857,145.51169050000001L208.04955357142856,145.52404149999998L208.96607142857144,145.53581599999998L209.8825892857143,145.547031L210.79910714285714,145.5577L211.715625,145.567839L212.63214285714287,145.5774625L213.54866071428572,145.586586L214.46517857142857,145.595223L215.38169642857144,145.603389L216.2982142857143,145.6110955L217.21473214285714,145.61836L218.13125,145.625194L219.04776785714284,145.63161250000002L219.9642857142857,145.6376265L220.88080357142857,145.643253L221.79732142857145,145.648505L222.7138392857143,145.6533935L223.63035714285715,145.657934L224.546875,145.662139L225.46339285714285,145.66602L226.3799107142857,145.669593L227.29642857142855,145.6728685L228.21294642857143,145.6758615L229.1294642857143,145.6785835L230.04598214285716,145.6810475L230.9625,145.6832675L231.87901785714286,145.6852545L232.7955357142857,145.687023L233.71205357142856,145.688585L234.62857142857143,145.689953L235.54508928571428,145.69114150000001L236.46160714285713,145.6921615L237.378125,145.693025L238.29464285714286,145.693748L239.2111607142857,145.6943415L240.12767857142856,145.6948175L241.04419642857144,145.6951885L241.9607142857143,145.6954705L242.87723214285714,145.6956715L243.79375,145.695809L244.71026785714287,145.695891L245.62678571428572,145.6959405L246.54330357142857,145.69594099999998L247.45982142857144,145.69594099999998" style="fill: none;" fill="none"></path></g></g></g></g></g></g><g transform="translate(73, 175)" clip-path="url(#clip_1)"><clipPath id="clip_1"><rect width="256" height="25"></rect></clipPath><g><g><line x1="0" y1="0" x2="0" y2="5" style="visibility: inherit;" fill="rgb(0, 0, 0)" stroke="rgb(204, 204, 204)" stroke-width="1px"></line><line x1="18.330357142857142" y1="0" x2="18.330357142857142" y2="5" style="visibility: inherit;" fill="rgb(0, 0, 0)" stroke="rgb(204, 204, 204)" stroke-width="1px"></line><line x1="36.660714285714285" y1="0" x2="36.660714285714285" y2="5" style="visibility: inherit;" fill="rgb(0, 0, 0)" stroke="rgb(204, 204, 204)" stroke-width="1px"></line><line x1="54.99107142857142" y1="0" x2="54.99107142857142" y2="5" style="visibility: inherit;" fill="rgb(0, 0, 0)" stroke="rgb(204, 204, 204)" stroke-width="1px"></line><line x1="73.32142857142857" y1="0" x2="73.32142857142857" y2="5" style="visibility: inherit;" fill="rgb(0, 0, 0)" stroke="rgb(204, 204, 204)" stroke-width="1px"></line><line x1="91.65178571428572" y1="0" x2="91.65178571428572" y2="5" style="visibility: inherit;" fill="rgb(0, 0, 0)" stroke="rgb(204, 204, 204)" stroke-width="1px"></line><line x1="109.98214285714285" y1="0" x2="109.98214285714285" y2="5" style="visibility: inherit;" fill="rgb(0, 0, 0)" stroke="rgb(204, 204, 204)" stroke-width="1px"></line><line x1="128.3125" y1="0" x2="128.3125" y2="5" style="visibility: inherit;" fill="rgb(0, 0, 0)" stroke="rgb(204, 204, 204)" stroke-width="1px"></line><line x1="146.64285714285714" y1="0" x2="146.64285714285714" y2="5" style="visibility: inherit;" fill="rgb(0, 0, 0)" stroke="rgb(204, 204, 204)" stroke-width="1px"></line><line x1="164.9732142857143" y1="0" x2="164.9732142857143" y2="5" style="visibility: inherit;" fill="rgb(0, 0, 0)" stroke="rgb(204, 204, 204)" stroke-width="1px"></line><line x1="183.30357142857144" y1="0" x2="183.30357142857144" y2="5" style="visibility: inherit;" fill="rgb(0, 0, 0)" stroke="rgb(204, 204, 204)" stroke-width="1px"></line><line x1="201.63392857142856" y1="0" x2="201.63392857142856" y2="5" style="visibility: inherit;" fill="rgb(0, 0, 0)" stroke="rgb(204, 204, 204)" stroke-width="1px"></line><line x1="219.9642857142857" y1="0" x2="219.9642857142857" y2="5" style="visibility: inherit;" fill="rgb(0, 0, 0)" stroke="rgb(204, 204, 204)" stroke-width="1px"></line><line x1="238.29464285714286" y1="0" x2="238.29464285714286" y2="5" style="visibility: inherit;" fill="rgb(0, 0, 0)" stroke="rgb(204, 204, 204)" stroke-width="1px"></line><line x1="256.625" y1="0" x2="256.625" y2="5" style="visibility: inherit;" fill="rgb(0, 0, 0)" stroke="rgb(204, 204, 204)" stroke-width="1px"></line></g><g transform="translate(0, 8)"><text x="0" y="0" dx="0em" dy="0.95em" style="text-anchor: middle; visibility: hidden; font-family: Roboto, sans-serif; font-size: 12px; font-weight: 200;" fill="rgb(33, 33, 33)" stroke="none" stroke-width="1px">-2k</text><text x="18.330357142857142" y="0" dx="0em" dy="0.95em" style="text-anchor: middle; visibility: inherit; font-family: Roboto, sans-serif; font-size: 12px; font-weight: 200;" fill="rgb(33, 33, 33)" stroke="none" stroke-width="1px">0</text><text x="36.660714285714285" y="0" dx="0em" dy="0.95em" style="text-anchor: middle; visibility: hidden; font-family: Roboto, sans-serif; font-size: 12px; font-weight: 200;" fill="rgb(33, 33, 33)" stroke="none" stroke-width="1px">2k</text><text x="54.99107142857142" y="0" dx="0em" dy="0.95em" style="text-anchor: middle; visibility: inherit; font-family: Roboto, sans-serif; font-size: 12px; font-weight: 200;" fill="rgb(33, 33, 33)" stroke="none" stroke-width="1px">4k</text><text x="73.32142857142857" y="0" dx="0em" dy="0.95em" style="text-anchor: middle; visibility: hidden; font-family: Roboto, sans-serif; font-size: 12px; font-weight: 200;" fill="rgb(33, 33, 33)" stroke="none" stroke-width="1px">6k</text><text x="91.65178571428572" y="0" dx="0em" dy="0.95em" style="text-anchor: middle; visibility: inherit; font-family: Roboto, sans-serif; font-size: 12px; font-weight: 200;" fill="rgb(33, 33, 33)" stroke="none" stroke-width="1px">8k</text><text x="109.98214285714285" y="0" dx="0em" dy="0.95em" style="text-anchor: middle; visibility: hidden; font-family: Roboto, sans-serif; font-size: 12px; font-weight: 200;" fill="rgb(33, 33, 33)" stroke="none" stroke-width="1px">10k</text><text x="128.3125" y="0" dx="0em" dy="0.95em" style="text-anchor: middle; visibility: inherit; font-family: Roboto, sans-serif; font-size: 12px; font-weight: 200;" fill="rgb(33, 33, 33)" stroke="none" stroke-width="1px">12k</text><text x="146.64285714285714" y="0" dx="0em" dy="0.95em" style="text-anchor: middle; visibility: hidden; font-family: Roboto, sans-serif; font-size: 12px; font-weight: 200;" fill="rgb(33, 33, 33)" stroke="none" stroke-width="1px">14k</text><text x="164.9732142857143" y="0" dx="0em" dy="0.95em" style="text-anchor: middle; visibility: inherit; font-family: Roboto, sans-serif; font-size: 12px; font-weight: 200;" fill="rgb(33, 33, 33)" stroke="none" stroke-width="1px">16k</text><text x="183.30357142857144" y="0" dx="0em" dy="0.95em" style="text-anchor: middle; visibility: hidden; font-family: Roboto, sans-serif; font-size: 12px; font-weight: 200;" fill="rgb(33, 33, 33)" stroke="none" stroke-width="1px">18k</text><text x="201.63392857142856" y="0" dx="0em" dy="0.95em" style="text-anchor: middle; visibility: inherit; font-family: Roboto, sans-serif; font-size: 12px; font-weight: 200;" fill="rgb(33, 33, 33)" stroke="none" stroke-width="1px">20k</text><text x="219.9642857142857" y="0" dx="0em" dy="0.95em" style="text-anchor: middle; visibility: hidden; font-family: Roboto, sans-serif; font-size: 12px; font-weight: 200;" fill="rgb(33, 33, 33)" stroke="none" stroke-width="1px">22k</text><text x="238.29464285714286" y="0" dx="0em" dy="0.95em" style="text-anchor: middle; visibility: inherit; font-family: Roboto, sans-serif; font-size: 12px; font-weight: 200;" fill="rgb(33, 33, 33)" stroke="none" stroke-width="1px">24k</text><text x="256.625" y="0" dx="0em" dy="0.95em" style="text-anchor: middle; visibility: hidden; font-family: Roboto, sans-serif; font-size: 12px; font-weight: 200;" fill="rgb(33, 33, 33)" stroke="none" stroke-width="1px">26k</text></g><line x1="0" y1="0" x2="256.625" y2="0" fill="rgb(0, 0, 0)" stroke="rgb(204, 204, 204)" stroke-width="1px"></line></g></g></g></g></svg>