<svg viewBox="0 0 330 200" xmlns="http://www.w3.org/2000/svg"><g><g><g><g><g><line x1="72.34375" y1="177" x2="67.34375" y2="177" style="visibility: inherit;" fill="rgb(0, 0, 0)" stroke="rgb(204, 204, 204)" stroke-width="1px"></line><line x1="72.34375" y1="151.71428571428572" x2="67.34375" y2="151.71428571428572" style="visibility: inherit;" fill="rgb(0, 0, 0)" stroke="rgb(204, 204, 204)" stroke-width="1px"></line><line x1="72.34375" y1="126.42857142857143" x2="67.34375" y2="126.42857142857143" style="visibility: inherit;" fill="rgb(0, 0, 0)" stroke="rgb(204, 204, 204)" stroke-width="1px"></line><line x1="72.34375" y1="101.14285714285714" x2="67.34375" y2="101.14285714285714" style="visibility: inherit;" fill="rgb(0, 0, 0)" stroke="rgb(204, 204, 204)" stroke-width="1px"></line><line x1="72.34375" y1="75.85714285714286" x2="67.34375" y2="75.85714285714286" style="visibility: inherit;" fill="rgb(0, 0, 0)" stroke="rgb(204, 204, 204)" stroke-width="1px"></line><line x1="72.34375" y1="50.57142857142857" x2="67.34375" y2="50.57142857142857" style="visibility: inherit;" fill="rgb(0, 0, 0)" stroke="rgb(204, 204, 204)" stroke-width="1px"></line><line x1="72.34375" y1="25.285714285714295" x2="67.34375" y2="25.285714285714295" style="visibility: inherit;" fill="rgb(0, 0, 0)" stroke="rgb(204, 204, 204)" stroke-width="1px"></line><line x1="72.34375" y1="0" x2="67.34375" y2="0" style="visibility: inherit;" fill="rgb(0, 0, 0)" stroke="rgb(204, 204, 204)" stroke-width="1px"></line></g><g transform="translate(62.34375, 0)"><text x="0" y="177" dx="0em" dy="0.3em" style="text-anchor: end; visibility: hidden; font-family: Roboto, sans-serif; font-size: 12px; font-weight: 200;" fill="rgb(33, 33, 33)" stroke="none" stroke-width="1px">-5e+7</text><text x="0" y="151.71428571428572" dx="0em" dy="0.3em" style="text-anchor: end; visibility: inherit; font-family: Roboto, sans-serif; font-size: 12px; font-weight: 200;" fill="rgb(33, 33, 33)" stroke="none" stroke-width="1px">0</text><text x="0" y="126.42857142857143" dx="0em" dy="0.3em" style="text-anchor: end; visibility: inherit; font-family: Roboto, sans-serif; font-size: 12px; font-weight: 200;" fill="rgb(33, 33, 33)" stroke="none" stroke-width="1px">5e+7</text><text x="0" y="101.14285714285714" dx="0em" dy="0.3em" style="text-anchor: end; visibility: inherit; font-family: Roboto, sans-serif; font-size: 12px; font-weight: 200;" fill="rgb(33, 33, 33)" stroke="none" stroke-width="1px">1e+8</text><text x="0" y="75.85714285714286" dx="0em" dy="0.3em" style="text-anchor: end; visibility: inherit; font-family: Roboto, sans-serif; font-size: 12px; font-weight: 200;" fill="rgb(33, 33, 33)" stroke="none" stroke-width="1px">1.5e+8</text><text x="0" y="50.57142857142857" dx="0em" dy="0.3em" style="text-anchor: end; visibility: inherit; font-family: Roboto, sans-serif; font-size: 12px; font-weight: 200;" fill="rgb(33, 33, 33)" stroke="none" stroke-width="1px">2e+8</text><text x="0" y="25.285714285714295" dx="0em" dy="0.3em" style="text-anchor: end; visibility: inherit; font-family: Roboto, sans-serif; font-size: 12px; font-weight: 200;" fill="rgb(33, 33, 33)" stroke="none" stroke-width="1px">2.5e+8</text><text x="0" y="0" dx="0em" dy="0.3em" style="text-anchor: end; visibility: hidden; font-family: Roboto, sans-serif; font-size: 12px; font-weight: 200;" fill="rgb(33, 33, 33)" stroke="none" stroke-width="1px">3e+8</text></g><line x1="72.34375" y1="0" x2="72.34375" y2="177" fill="rgb(0, 0, 0)" stroke="rgb(204, 204, 204)" stroke-width="1px"></line></g></g><g transform="translate(72, 0)" clip-path="url(#clip_0)"><clipPath id="clip_0"><rect width="257" height="177"></rect></clipPath><g><g><g><line x1="0" y1="0" x2="0" y2="177" fill="rgb(0, 0, 0)" stroke="rgb(66, 66, 66)" stroke-width="1px" opacity="0.25"></line><line x1="18.404017857142858" y1="0" x2="18.404017857142858" y2="177" fill="rgb(0, 0, 0)" stroke="rgb(66, 66, 66)" stroke-width="1px" opacity="0.25"></line><line x1="36.808035714285715" y1="0" x2="36.808035714285715" y2="177" fill="rgb(0, 0, 0)" stroke="rgb(66, 66, 66)" stroke-width="1px" opacity="0.25"></line><line x1="55.21205357142857" y1="0" x2="55.21205357142857" y2="177" fill="rgb(0, 0, 0)" stroke="rgb(66, 66, 66)" stroke-width="1px" opacity="0.25"></line><line x1="73.61607142857143" y1="0" x2="73.61607142857143" y2="177" fill="rgb(0, 0, 0)" stroke="rgb(66, 66, 66)" stroke-width="1px" opacity="0.25"></line><line x1="92.02008928571429" y1="0" x2="92.02008928571429" y2="177" fill="rgb(0, 0, 0)" stroke="rgb(66, 66, 66)" stroke-width="1px" opacity="0.25"></line><line x1="110.42410714285714" y1="0" x2="110.42410714285714" y2="177" fill="rgb(0, 0, 0)" stroke="rgb(66, 66, 66)" stroke-width="1px" opacity="0.25"></line><line x1="128.828125" y1="0" x2="128.828125" y2="177" fill="rgb(0, 0, 0)" stroke="rgb(66, 66, 66)" stroke-width="1px" opacity="0.25"></line><line x1="147.23214285714286" y1="0" x2="147.23214285714286" y2="177" fill="rgb(0, 0, 0)" stroke="rgb(66, 66, 66)" stroke-width="1px" opacity="0.25"></line><line x1="165.63616071428572" y1="0" x2="165.63616071428572" y2="177" fill="rgb(0, 0, 0)" stroke="rgb(66, 66, 66)" stroke-width="1px" opacity="0.25"></line><line x1="184.04017857142858" y1="0" x2="184.04017857142858" y2="177" fill="rgb(0, 0, 0)" stroke="rgb(66, 66, 66)" stroke-width="1px" opacity="0.25"></line><line x1="202.44419642857142" y1="0" x2="202.44419642857142" y2="177" fill="rgb(0, 0, 0)" stroke="rgb(66, 66, 66)" stroke-width="1px" opacity="0.25"></line><line x1="220.84821428571428" y1="0" x2="220.84821428571428" y2="177" fill="rgb(0, 0, 0)" stroke="rgb(66, 66, 66)" stroke-width="1px" opacity="0.25"></line><line x1="239.25223214285714" y1="0" x2="239.25223214285714" y2="177" fill="rgb(0, 0, 0)" stroke="rgb(66, 66, 66)" stroke-width="1px" opacity="0.25"></line><line x1="257.65625" y1="0" x2="257.65625" y2="177" fill="rgb(0, 0, 0)" stroke="rgb(66, 66, 66)" stroke-width="1px" opacity="0.25"></line></g><g><line x1="0" y1="177" x2="257.65625" y2="177" fill="rgb(0, 0, 0)" stroke="rgb(66, 66, 66)" stroke-width="1px" opacity="0.25"></line><line x1="0" y1="151.71428571428572" x2="257.65625" y2="151.71428571428572" fill="rgb(0, 0, 0)" stroke="rgb(66, 66, 66)" stroke-width="1px" opacity="0.25"></line><line x1="0" y1="126.42857142857143" x2="257.65625" y2="126.42857142857143" fill="rgb(0, 0, 0)" stroke="rgb(66, 66, 66)" stroke-width="1px" opacity="0.25"></line><line x1="0" y1="101.14285714285714" x2="257.65625" y2="101.14285714285714" fill="rgb(0, 0, 0)" stroke="rgb(66, 66, 66)" stroke-width="1px" opacity="0.25"></line><line x1="0" y1="75.85714285714286" x2="257.65625" y2="75.85714285714286" fill="rgb(0, 0, 0)" stroke="rgb(66, 66, 66)" stroke-width="1px" opacity="0.25"></line><line x1="0" y1="50.57142857142857" x2="257.65625" y2="50.57142857142857" fill="rgb(0, 0, 0)" stroke="rgb(66, 66, 66)" stroke-width="1px" opacity="0.25"></line><line x1="0" y1="25.285714285714295" x2="257.65625" y2="25.285714285714295" fill="rgb(0, 0, 0)" stroke="rgb(66, 66, 66)" stroke-width="1px" opacity="0.25"></line><line x1="0" y1="0" x2="257.65625" y2="0" fill="rgb(0, 0, 0)" stroke="rgb(66, 66, 66)" stroke-width="1px" opacity="0.25"></line></g></g></g><g><g><line x1="0" y1="151.71428571428572" x2="257.65625" y2="151.71428571428572" fill="rgb(0, 0, 0)" stroke="rgb(153, 153, 153)" stroke-width="1.5px"></line></g></g><g><g><line x1="18.404017857142858" y1="0" x2="18.404017857142858" y2="177" fill="rgb(0, 0, 0)" stroke="rgb(153, 153, 153)" stroke-width="1.5px"></line></g></g><g><g><g><g><g><path stroke="rgb(255, 112, 67)" stroke-width="2px" d="M19.32421875,151.71428443238315L20.244419642857142,151.71428444157758L21.164620535714285,151.714284451653L22.084821428571427,151.71428446215256L23.005022321428573,151.71428447503072L23.925223214285715,151.71428449015207L24.845424107142858,151.71427930039812L25.765625,151.71425350178302L26.685825892857146,151.71418929445807L27.606026785714285,151.71410710313248L28.526227678571427,151.71406036966695L29.44642857142857,151.7140348120251L30.366629464285715,151.71351496102727L31.286830357142858,114.02345523179085L32.20703125,52.39577361082782L33.12723214285714,14.182652007758927L34.047433035714285,-6.592705858561956L41.40904017857143,-2.6209402141370135L42.32924107142857,1.9799045197182612L43.24944196428571,6.539042125492943L44.169642857142854,11.015409811635905L45.08984375,15.386120402541291L46.010044642857146,19.639143718900144L46.930245535714285,23.768889457984667L47.85044642857143,27.77362808265724L48.77064732142857,31.653862410883157L49.690848214285715,35.41142499190277L50.611049107142854,39.0488944451009L51.53125,42.56926467594256L52.451450892857146,45.975739928361335L53.37165178571429,49.27159563096922L54.29185267857143,52.46014021539963L55.21205357142857,55.544643657934415L56.132254464285715,58.52832049658228L57.052455357142854,61.41432611419534L57.97265625,64.20574156189463L58.89285714285714,66.90555474331876L59.813058035714285,69.5166912005484L60.73325892857143,72.04198080048656L61.65345982142858,74.48417658552617L62.573660714285715,76.84596932051157L63.49386160714286,79.12995090890917L64.4140625,81.33864584593476L65.33426339285714,83.47449448814264L66.25446428571428,85.53987699917731L67.17466517857143,87.53709696979558L68.09486607142857,89.46838453616509L69.01506696428571,91.33591443370022L69.93526785714285,93.14177799050651L70.85546875,94.88801001716145L71.77566964285714,96.5765790480114L72.69587053571429,98.2093992870927L73.61607142857143,99.78832159282712L74.53627232142858,101.31513292369631L75.45647321428572,102.79156895193209L76.37667410714286,104.21931515858783L77.296875,105.59998968943844L78.21707589285714,106.93517190737735L79.13727678571429,108.22638392156927L80.05747767857143,109.47509892437014L80.97767857142857,110.68274781176494L81.89787946428571,111.85070859105896L82.81808035714286,112.98031135349252L83.73828125,114.0728525858098L84.65848214285714,115.12957786462873L85.57868303571428,116.15169251077724L86.49888392857142,117.14036636360922L87.41908482142857,118.09669780673696L88.33928571428571,119.02181840975646L89.25948660714286,119.91677041956815L90.1796875,120.78258699231233L91.09988839285715,121.62024404453025L92.02008928571429,122.43070014100387L92.94029017857143,123.21330942403088L93.86049107142857,123.96814397213282L94.78069196428572,124.7000565775654L95.70089285714286,125.40926446996781L96.62109375,126.0961989882664L97.54129464285714,126.75974986610271L98.46149553571428,127.40281279051875L99.38169642857143,128.02575610402556L100.30189732142857,128.62866083041533L101.22209821428571,129.2126250422492L102.14229910714285,129.77814899106383L103.0625,130.32569870206686L103.98270089285714,130.85592761438295L104.90290178571429,131.3693888109155L105.82310267857143,131.86300036769214L106.74330357142858,132.3391457566153L107.66350446428572,132.80242204596917L108.58370535714286,133.25239621729577L109.50390625,133.68900103552033L110.42410714285714,134.11236972074076L111.34430803571429,134.52276183473018L112.26450892857143,134.9204961568381L113.18470982142857,135.30592740153142L114.10491071428571,135.679422943776L115.02511160714286,136.0413391445513L115.9453125,136.3920641907308L116.86551339285714,136.73196045729563L117.78571428571428,137.06137645037737L118.70591517857142,137.38065518679784L119.62611607142857,137.69012465722156L120.54631696428571,137.99010545490438L121.46651785714286,138.28090847522833L122.38671875,138.56282827599415L123.30691964285715,138.8361577038822L124.22712053571429,139.10117684632934L125.14732142857143,139.358153280369L126.06752232142857,139.6073474813643L126.98772321428572,139.84901121338999L127.90792410714286,140.08338089946258L128.828125,140.31069791796324L129.74832589285714,140.53118841477797L130.66852678571428,140.74506858715247L131.58872767857142,140.9525482585772L132.50892857142856,141.15382938257488L133.42912946428572,141.3491104044021L134.34933035714286,141.53858078664123L135.26953125,141.72242257941332L136.18973214285714,141.90081298079085L137.10993303571428,142.0739214227602L138.03013392857142,142.24191429594185L138.95033482142856,142.40494928842224L139.8705357142857,142.5631796759105L140.79073660714283,142.71675568211774L141.7109375,142.8658180126992L142.63113839285714,143.01050692190523L143.55133928571428,143.15095511085744L144.47154017857142,143.287291557943L145.39174107142858,143.41964118733725L146.31194196428572,143.54812406325948L147.23214285714286,143.67284742195568L148.15234375,143.79393750460198L149.07254464285717,143.91150141018977L149.9927455357143,144.02501373525672L150.91294642857144,144.1352331725826L151.83314732142858,144.24247070812098L152.75334821428572,144.3467055905869L153.67354910714286,144.44062305720928L154.59375,144.53449510975415L155.51395089285714,144.6274539024239L156.43415178571428,144.71879707516862L157.35435267857144,144.80809815481547L158.27455357142858,144.89520685060356L159.19475446428572,144.98002206464787L160.11495535714286,145.06251105364586L161.03515625,145.14266772475892L161.95535714285714,145.22054040971253L162.87555803571428,145.29616761497036L163.79575892857142,145.36959449355365L164.71595982142856,145.44084469841792L165.63616071428572,145.51002183162217L166.55636160714286,145.577175917259L167.4765625,145.6423557823554L168.39676339285714,145.7056117608418L169.31696428571428,145.76694998107652L170.23716517857142,145.82648153378878L171.15736607142856,145.88424657398755L172.0775669642857,145.94028942324968L172.99776785714283,145.9946520482355L173.91796875,146.047376823227L174.83816964285714,146.09850717622191L175.75837053571428,146.14808312173315L176.67857142857142,146.19614525589705L177.59877232142858,146.2427327032525L178.51897321428572,146.28786671338008L179.43917410714286,146.33160716859948L180.359375,146.37398716630253L181.27957589285717,146.41504052263866L182.1997767857143,146.45480006901175L183.11997767857144,146.49329703454993L184.04017857142858,146.5305637098728L184.96037946428572,146.56663039278084L185.88058035714286,146.60152699452564L186.80078125,146.63528258757253L187.72098214285714,146.66792574111494L188.64118303571428,146.69948310409754L189.56138392857144,146.72998280302994L190.48158482142858,146.75945081667513L191.40178571428572,146.78791203743364L192.32198660714286,146.81539191960303L193.2421875,146.84191423176182L194.16238839285714,146.86750254019995L195.08258928571428,146.89217927840568L196.00279017857142,146.91596721161486L196.92299107142856,146.93888788811176L197.84319196428572,146.9609633397242L198.76339285714286,146.98221366326308L199.68359375,147.00265900824357L200.60379464285714,147.02231996037472L201.52399553571428,147.04121574879625L202.44419642857142,147.05936519327776L203.36439732142856,147.07678686796663L204.2845982142857,147.09349879506573L205.20479910714283,147.10951967703943L206.125,147.1248661970808L207.04520089285714,147.13955605196276L207.96540178571428,147.15360613060622L208.88560267857142,147.16703303950658L209.80580357142858,147.17985281113252L210.72600446428572,147.19208194267952L211.64620535714286,147.20373579417912L212.56640625,147.2148300547932L213.48660714285717,147.2253800043045L214.4068080357143,147.23540108143985L215.32700892857144,147.24490801114962L216.24720982142858,147.25391589926122L217.16741071428572,147.26243846184244L218.08761160714286,147.27049100853404L219.0078125,147.27808737769183L219.92801339285714,147.28524194090082L220.84821428571428,147.29196777139762L221.76841517857144,147.29827959083858L222.68861607142858,147.30419149164598L223.60881696428572,147.30971637955903L224.52901785714286,147.31486826887826L225.44921875,147.31966062532697L226.36941964285714,147.32410618091046L227.28962053571428,147.32821904797484L228.20982142857142,147.33201194192776L229.13002232142856,147.33549856058522L230.05022321428572,147.33869177520828L230.97042410714286,147.3416045679821L231.890625,147.34425039221784L232.81082589285714,147.34664177018786L233.73102678571428,147.3487920815413L234.65122767857142,147.35071420892476L235.57142857142856,147.35242093906913L236.4916294642857,147.35392581029865L237.41183035714283,147.35524139589344L238.33203125,147.35638009467894L239.25223214285714,147.35735581909307L240.17243303571428,147.35818136688442L241.09263392857142,147.35886927155923L242.01283482142858,147.3594321103641L242.93303571428572,147.3598839027899L243.85323660714286,147.36023629710252L244.7734375,147.3605033622615L245.69363839285717,147.36069677621404L246.6138392857143,147.36083285087128L247.53404017857144,147.36091469795136L248.45424107142858,147.36096380619938" style="fill: none;" fill="none"></path></g><g><path stroke="rgb(0, 119, 187)" stroke-width="2px" d="M239.25223214285714,147.35882598Z" style="fill: none;" fill="none"></path></g></g></g></g><g opacity="0.2"><g><g><g><path stroke="rgb(255, 112, 67)" stroke-width="2px" d="M19.32421875,151.71428443238315L20.244419642857142,151.71428444709423L21.164620535714285,151.7142844613254L22.084821428571427,151.71428447450006L23.005022321428573,151.7142844918444L23.925223214285715,151.7142845110704L24.845424107142858,151.7142718789669L25.765625,151.7142158871545L26.685825892857146,151.7140946011254L27.606026785714285,151.7139850585929L28.526227678571427,151.71399069333776L29.44642857142857,151.71399661464582L30.366629464285715,151.7127368819343L31.286830357142858,57.56220438857143L32.20703125,-39.973307794285724L40.488839285714285,-0.5626779428571531L41.40904017857143,4.235830491428574L42.32924107142857,8.881152L43.24944196428571,13.377736868571423L44.169642857142854,17.72995446857144L45.08984375,21.942182262857138L46.010044642857146,26.01867634285714L46.930245535714285,29.963506697142847L47.85044642857143,33.780735222857146L48.77064732142857,37.47421344000001L49.690848214285715,41.04776859428571L50.611049107142854,44.50509846857143L51.53125,47.84981993142857L52.451450892857146,51.085452754285704L53.37165178571429,54.215379154285706L54.29185267857143,57.24295707428572L55.21205357142857,60.171398811428574L56.132254464285715,63.00383574857142L57.052455357142854,65.74333453714286L57.97265625,68.39286473142857L58.89285714285714,70.95527451428572L59.813058035714285,73.43339588571429L60.73325892857143,75.82991519999999L61.65345982142858,78.14747026285715L62.573660714285715,80.38865842285715L63.49386160714286,82.55592329142857L64.4140625,84.65168825142857L65.33426339285714,86.67826745142857L66.25446428571428,88.63795076571428L67.17466517857143,90.53292692571428L68.09486607142857,92.3653158857143L69.01506696428571,94.13720928L69.93526785714285,95.85057332571428L70.85546875,97.50735805714285L71.77566964285714,99.1094325942857L72.69587053571429,100.65862964571429L73.61607142857143,102.15670505142856L74.53627232142858,103.60534992000001L75.45647321428572,105.00622299428572L76.37667410714286,106.36093446857143L77.296875,107.67100148571429L78.21707589285714,108.93794523428572L79.13727678571429,110.16320194285713L80.05747767857143,111.34817142857142L80.97767857142857,112.49422114285716L81.89787946428571,113.60264975999999L82.81808035714286,114.67471549714284L83.73828125,115.71166443428572L84.65848214285714,116.71466578285715L85.57868303571428,117.68486447999999L86.49888392857142,118.62337714285712L87.41908482142857,119.53119497142858L88.33928571428571,120.40949931428571L89.25948660714286,121.25919843428572L90.1796875,122.08131185142857L91.09988839285715,122.87672962285714L92.02008928571429,123.64638428571428L92.94029017857143,124.38722334857144L93.86049107142857,125.10039579428573L94.78069196428572,125.79792548571429L95.70089285714286,126.47307630857144L96.62109375,127.12660076571429L97.54129464285714,127.75507618285715L98.46149553571428,128.36740717714287L99.38169642857143,128.9601710742857L100.30189732142857,129.53301792L101.22209821428571,130.08857136L102.14229910714285,130.6264349142857L103.0625,131.14702326857144L103.98270089285714,131.65127098285714L104.90290178571429,132.1395806057143L105.82310267857143,132.60341770285714L106.74330357142858,133.05336384L107.66350446428572,133.49733648L108.58370535714286,133.9273574742857L109.50390625,134.34390826285713L110.42410714285714,134.74742274857144L111.34430803571429,135.13835000571427L112.26450892857143,135.51709764L113.18470982142857,135.88407426857142L114.10491071428571,136.23966625714286L115.02511160714286,136.58421344571428L115.9453125,136.91815176L116.86551339285714,137.24180485714285L117.78571428571428,137.55550043999997L118.70591517857142,137.85957329142857L119.62611607142857,138.15432886285714L120.54631696428571,138.44007665142857L121.46651785714286,138.71711300571428L122.38671875,138.98570797714285L123.30691964285715,139.24615184571428L124.22712053571429,139.49870556L125.14732142857143,139.74361793142856L126.06752232142857,139.98113878285713L126.98772321428572,140.21150681142856L127.90792410714286,140.43493542857144L128.828125,140.65167344571427L129.74832589285714,140.86192416L130.66852678571428,141.06588884571428L131.58872767857142,141.2637677657143L132.50892857142856,141.45575106857143L133.42912946428572,141.64203193714286L134.34933035714286,141.82278636L135.26953125,141.99818526857143L136.18973214285714,142.16839858285715L137.10993303571428,142.33358408571428L138.03013392857142,142.49390360571428L138.95033482142856,142.64950177714286L139.8705357142857,142.80052525714285L140.79073660714283,142.94711969142855L141.7109375,143.08941150857143L142.63113839285714,143.2275402857143L143.55133928571428,143.3616273942857L144.47154017857142,143.49179622857145L145.39174107142858,143.61816563142858L146.31194196428572,143.74084837714287L147.23214285714286,143.85993246L148.15234375,143.97557262857143L149.07254464285717,144.08784726857144L149.9927455357143,144.19528222285714L150.91294642857144,144.30056232857143L151.83314732142858,144.4033270114286L152.75334821428572,144.5030579142857L153.67354910714286,144.58149925714287L154.59375,144.67530318857143L155.51395089285714,144.7668920914286L156.43415178571428,144.85581183428573L157.35435267857144,144.94204977428572L158.27455357142858,145.02586989428573L159.19475446428572,145.1072448857143L160.11495535714286,145.18624453714284L161.03515625,145.2629027314286L161.95535714285714,145.33734943714285L162.87555803571428,145.40960842285713L163.79575892857142,145.47973481142856L164.71595982142856,145.54772000571427L165.63616071428572,145.61378753142858L166.55636160714286,145.6779070457143L167.4765625,145.74012558L168.39676339285714,145.80049572857143L169.31696428571428,145.85895731142858L170.23716517857142,145.91577886285714L171.15736607142856,145.97089413428571L172.0775669642857,146.02435369714286L172.99776785714283,146.0761959857143L173.91796875,146.12646398571428L174.83816964285714,146.17520270571427L175.75837053571428,146.22244704L176.67857142857142,146.26823845714287L177.59877232142858,146.31261387428572L178.51897321428572,146.35556772857143L179.43917410714286,146.39721785142856L180.359375,146.43755716285713L181.27957589285717,146.47662055714287L182.1997767857143,146.51443938857142L183.11997767857144,146.55104248285716L184.04017857142858,146.58646372285713L184.96037946428572,146.62073041714285L185.88058035714286,146.65387189714286L186.80078125,146.68591597714286L187.72098214285714,146.71689047142857L188.64118303571428,146.7468191485714L189.56138392857144,146.77573235142856L190.48158482142858,146.80365283714286L191.40178571428572,146.83060386857144L192.32198660714286,146.85661174285713L193.2421875,146.8816977L194.16238839285714,146.90588500285713L195.08258928571428,146.92919438571428L196.00279017857142,146.95164911142857L196.92299107142856,146.97326890285714L197.84319196428572,146.99407651714284L198.76339285714286,147.01408914857143L199.68359375,147.0333270257143L200.60379464285714,147.05181138857142L201.52399553571428,147.06955943142856L202.44419642857142,147.08658936L203.36439732142856,147.10291938L204.2845982142857,147.11856668571428L205.20479910714283,147.13355099999998L206.125,147.14788597714286L207.04520089285714,147.1615908342857L207.96540178571428,147.17468124857143L208.88560267857142,147.18717340285713L209.80580357142858,147.19908246857142L210.72600446428572,147.21042563999998L211.64620535714286,147.22121657142858L212.56640625,147.23147144571428L213.48660714285717,147.24120492857142L214.4068080357143,147.25043269714286L215.32700892857144,147.2591684057143L216.24720982142858,147.26742773142857L217.16741071428572,147.2752223057143L218.08761160714286,147.28256982857144L219.0078125,147.28948193142858L219.92801339285714,147.2959737857143L220.84821428571428,147.30205651714286L221.76841517857144,147.30774732L222.68861607142858,147.31305934285714L223.60881696428572,147.3180037114286L224.52901785714286,147.32259610285715L225.44921875,147.32684916L226.36941964285714,147.3307745142857L227.28962053571428,147.33438834857142L228.20982142857142,147.33770128285713L229.13002232142856,147.34072848857144L230.05022321428572,147.34348159714284L230.97042410714286,147.34597375714284L231.890625,147.34821912857143L232.81082589285714,147.35022883714285L233.73102678571428,147.35201754857144L234.65122767857142,147.35359739999998L235.57142857142856,147.35498103428571L236.4916294642857,147.35618311714288L237.41183035714283,147.35721477428572L238.33203125,147.35808814285716L239.25223214285714,147.35881940571429L240.17243303571428,147.35941968857142L241.09263392857142,147.35990112857144L242.01283482142858,147.36027636857142L242.93303571428572,147.36056159142856L243.85323660714286,147.36076488857142L244.7734375,147.36090396L245.69363839285717,147.36098689714285L246.6138392857143,147.36103696285716L247.53404017857144,147.36103746857142L248.45424107142858,147.36103746857142" style="fill: none;" fill="none"></path></g><g><path stroke="rgb(0, 119, 187)" stroke-width="2px" d="M239.25223214285714,147.35882598Z" style="fill: none;" fill="none"></path></g></g></g></g></g></g><g transform="translate(72, 177)" clip-path="url(#clip_1)"><clipPath id="clip_1"><rect width="257" height="23"></rect></clipPath><g><g><line x1="0" y1="0" x2="0" y2="5" style="visibility: inherit;" fill="rgb(0, 0, 0)" stroke="rgb(204, 204, 204)" stroke-width="1px"></line><line x1="18.404017857142858" y1="0" x2="18.404017857142858" y2="5" style="visibility: inherit;" fill="rgb(0, 0, 0)" stroke="rgb(204, 204, 204)" stroke-width="1px"></line><line x1="36.808035714285715" y1="0" x2="36.808035714285715" y2="5" style="visibility: inherit;" fill="rgb(0, 0, 0)" stroke="rgb(204, 204, 204)" stroke-width="1px"></line><line x1="55.21205357142857" y1="0" x2="55.21205357142857" y2="5" style="visibility: inherit;" fill="rgb(0, 0, 0)" stroke="rgb(204, 204, 204)" stroke-width="1px"></line><line x1="73.61607142857143" y1="0" x2="73.61607142857143" y2="5" style="visibility: inherit;" fill="rgb(0, 0, 0)" stroke="rgb(204, 204, 204)" stroke-width="1px"></line><line x1="92.02008928571429" y1="0" x2="92.02008928571429" y2="5" style="visibility: inherit;" fill="rgb(0, 0, 0)" stroke="rgb(204, 204, 204)" stroke-width="1px"></line><line x1="110.42410714285714" y1="0" x2="110.42410714285714" y2="5" style="visibility: inherit;" fill="rgb(0, 0, 0)" stroke="rgb(204, 204, 204)" stroke-width="1px"></line><line x1="128.828125" y1="0" x2="128.828125" y2="5" style="visibility: inherit;" fill="rgb(0, 0, 0)" stroke="rgb(204, 204, 204)" stroke-width="1px"></line><line x1="147.23214285714286" y1="0" x2="147.23214285714286" y2="5" style="visibility: inherit;" fill="rgb(0, 0, 0)" stroke="rgb(204, 204, 204)" stroke-width="1px"></line><line x1="165.63616071428572" y1="0" x2="165.63616071428572" y2="5" style="visibility: inherit;" fill="rgb(0, 0, 0)" stroke="rgb(204, 204, 204)" stroke-width="1px"></line><line x1="184.04017857142858" y1="0" x2="184.04017857142858" y2="5" style="visibility: inherit;" fill="rgb(0, 0, 0)" stroke="rgb(204, 204, 204)" stroke-width="1px"></line><line x1="202.44419642857142" y1="0" x2="202.44419642857142" y2="5" style="visibility: inherit;" fill="rgb(0, 0, 0)" stroke="rgb(204, 204, 204)" stroke-width="1px"></line><line x1="220.84821428571428" y1="0" x2="220.84821428571428" y2="5" style="visibility: inherit;" fill="rgb(0, 0, 0)" stroke="rgb(204, 204, 204)" stroke-width="1px"></line><line x1="239.25223214285714" y1="0" x2="239.25223214285714" y2="5" style="visibility: inherit;" fill="rgb(0, 0, 0)" stroke="rgb(204, 204, 204)" stroke-width="1px"></line><line x1="257.65625" y1="0" x2="257.65625" y2="5" style="visibility: inherit;" fill="rgb(0, 0, 0)" stroke="rgb(204, 204, 204)" stroke-width="1px"></line></g><g transform="translate(0, 8)"><text x="0" y="0" dx="0em" dy="0.95em" style="text-anchor: middle; visibility: hidden; font-family: Roboto, sans-serif; font-size: 12px; font-weight: 200;" fill="rgb(33, 33, 33)" stroke="none" stroke-width="1px">-2k</text><text x="18.404017857142858" y="0" dx="0em" dy="0.95em" style="text-anchor: middle; visibility: inherit; font-family: Roboto, sans-serif; font-size: 12px; font-weight: 200;" fill="rgb(33, 33, 33)" stroke="none" stroke-width="1px">0</text><text x="36.808035714285715" y="0" dx="0em" dy="0.95em" style="text-anchor: middle; visibility: hidden; font-family: Roboto, sans-serif; font-size: 12px; font-weight: 200;" fill="rgb(33, 33, 33)" stroke="none" stroke-width="1px">2k</text><text x="55.21205357142857" y="0" dx="0em" dy="0.95em" style="text-anchor: middle; visibility: inherit; font-family: Roboto, sans-serif; font-size: 12px; font-weight: 200;" fill="rgb(33, 33, 33)" stroke="none" stroke-width="1px">4k</text><text x="73.61607142857143" y="0" dx="0em" dy="0.95em" style="text-anchor: middle; visibility: hidden; font-family: Roboto, sans-serif; font-size: 12px; font-weight: 200;" fill="rgb(33, 33, 33)" stroke="none" stroke-width="1px">6k</text><text x="92.02008928571429" y="0" dx="0em" dy="0.95em" style="text-anchor: middle; visibility: inherit; font-family: Roboto, sans-serif; font-size: 12px; font-weight: 200;" fill="rgb(33, 33, 33)" stroke="none" stroke-width="1px">8k</text><text x="110.42410714285714" y="0" dx="0em" dy="0.95em" style="text-anchor: middle; visibility: hidden; font-family: Roboto, sans-serif; font-size: 12px; font-weight: 200;" fill="rgb(33, 33, 33)" stroke="none" stroke-width="1px">10k</text><text x="128.828125" y="0" dx="0em" dy="0.95em" style="text-anchor: middle; visibility: inherit; font-family: Roboto, sans-serif; font-size: 12px; font-weight: 200;" fill="rgb(33, 33, 33)" stroke="none" stroke-width="1px">12k</text><text x="147.23214285714286" y="0" dx="0em" dy="0.95em" style="text-anchor: middle; visibility: hidden; font-family: Roboto, sans-serif; font-size: 12px; font-weight: 200;" fill="rgb(33, 33, 33)" stroke="none" stroke-width="1px">14k</text><text x="165.63616071428572" y="0" dx="0em" dy="0.95em" style="text-anchor: middle; visibility: inherit; font-family: Roboto, sans-serif; font-size: 12px; font-weight: 200;" fill="rgb(33, 33, 33)" stroke="none" stroke-width="1px">16k</text><text x="184.04017857142858" y="0" dx="0em" dy="0.95em" style="text-anchor: middle; visibility: hidden; font-family: Roboto, sans-serif; font-size: 12px; font-weight: 200;" fill="rgb(33, 33, 33)" stroke="none" stroke-width="1px">18k</text><text x="202.44419642857142" y="0" dx="0em" dy="0.95em" style="text-anchor: middle; visibility: inherit; font-family: Roboto, sans-serif; font-size: 12px; font-weight: 200;" fill="rgb(33, 33, 33)" stroke="none" stroke-width="1px">20k</text><text x="220.84821428571428" y="0" dx="0em" dy="0.95em" style="text-anchor: middle; visibility: hidden; font-family: Roboto, sans-serif; font-size: 12px; font-weight: 200;" fill="rgb(33, 33, 33)" stroke="none" stroke-width="1px">22k</text><text x="239.25223214285714" y="0" dx="0em" dy="0.95em" style="text-anchor: middle; visibility: inherit; font-family: Roboto, sans-serif; font-size: 12px; font-weight: 200;" fill="rgb(33, 33, 33)" stroke="none" stroke-width="1px">24k</text><text x="257.65625" y="0" dx="0em" dy="0.95em" style="text-anchor: middle; visibility: hidden; font-family: Roboto, sans-serif; font-size: 12px; font-weight: 200;" fill="rgb(33, 33, 33)" stroke="none" stroke-width="1px">26k</text></g><line x1="0" y1="0" x2="257.65625" y2="0" fill="rgb(0, 0, 0)" stroke="rgb(204, 204, 204)" stroke-width="1px"></line></g></g></g></g></svg>