<svg viewBox="0 0 330 200" xmlns="http://www.w3.org/2000/svg"><g><g><g><g><g><line x1="52.25" y1="175" x2="47.25" y2="175" style="visibility: inherit;" fill="rgb(0, 0, 0)" stroke="rgb(204, 204, 204)" stroke-width="1px"></line><line x1="52.25" y1="149.99999999999997" x2="47.25" y2="149.99999999999997" style="visibility: inherit;" fill="rgb(0, 0, 0)" stroke="rgb(204, 204, 204)" stroke-width="1px"></line><line x1="52.25" y1="124.99999999999996" x2="47.25" y2="124.99999999999996" style="visibility: inherit;" fill="rgb(0, 0, 0)" stroke="rgb(204, 204, 204)" stroke-width="1px"></line><line x1="52.25" y1="100" x2="47.25" y2="100" style="visibility: inherit;" fill="rgb(0, 0, 0)" stroke="rgb(204, 204, 204)" stroke-width="1px"></line><line x1="52.25" y1="74.99999999999999" x2="47.25" y2="74.99999999999999" style="visibility: inherit;" fill="rgb(0, 0, 0)" stroke="rgb(204, 204, 204)" stroke-width="1px"></line><line x1="52.25" y1="50.000000000000036" x2="47.25" y2="50.000000000000036" style="visibility: inherit;" fill="rgb(0, 0, 0)" stroke="rgb(204, 204, 204)" stroke-width="1px"></line><line x1="52.25" y1="25.000000000000007" x2="47.25" y2="25.000000000000007" style="visibility: inherit;" fill="rgb(0, 0, 0)" stroke="rgb(204, 204, 204)" stroke-width="1px"></line><line x1="52.25" y1="0" x2="47.25" y2="0" style="visibility: inherit;" fill="rgb(0, 0, 0)" stroke="rgb(204, 204, 204)" stroke-width="1px"></line></g><g transform="translate(42.25, 0)"><text x="0" y="175" dx="0em" dy="0.3em" style="text-anchor: end; visibility: hidden; font-family: Roboto, sans-serif; font-size: 12px; font-weight: 200;" fill="rgb(33, 33, 33)" stroke="none" stroke-width="1px">0.7</text><text x="0" y="149.99999999999997" dx="0em" dy="0.3em" style="text-anchor: end; visibility: inherit; font-family: Roboto, sans-serif; font-size: 12px; font-weight: 200;" fill="rgb(33, 33, 33)" stroke="none" stroke-width="1px">0.75</text><text x="0" y="124.99999999999996" dx="0em" dy="0.3em" style="text-anchor: end; visibility: inherit; font-family: Roboto, sans-serif; font-size: 12px; font-weight: 200;" fill="rgb(33, 33, 33)" stroke="none" stroke-width="1px">0.8</text><text x="0" y="100" dx="0em" dy="0.3em" style="text-anchor: end; visibility: inherit; font-family: Roboto, sans-serif; font-size: 12px; font-weight: 200;" fill="rgb(33, 33, 33)" stroke="none" stroke-width="1px">0.85</text><text x="0" y="74.99999999999999" dx="0em" dy="0.3em" style="text-anchor: end; visibility: inherit; font-family: Roboto, sans-serif; font-size: 12px; font-weight: 200;" fill="rgb(33, 33, 33)" stroke="none" stroke-width="1px">0.9</text><text x="0" y="50.000000000000036" dx="0em" dy="0.3em" style="text-anchor: end; visibility: inherit; font-family: Roboto, sans-serif; font-size: 12px; font-weight: 200;" fill="rgb(33, 33, 33)" stroke="none" stroke-width="1px">0.95</text><text x="0" y="25.000000000000007" dx="0em" dy="0.3em" style="text-anchor: end; visibility: inherit; font-family: Roboto, sans-serif; font-size: 12px; font-weight: 200;" fill="rgb(33, 33, 33)" stroke="none" stroke-width="1px">1</text><text x="0" y="0" dx="0em" dy="0.3em" style="text-anchor: end; visibility: hidden; font-family: Roboto, sans-serif; font-size: 12px; font-weight: 200;" fill="rgb(33, 33, 33)" stroke="none" stroke-width="1px">1.05</text></g><line x1="52.25" y1="0" x2="52.25" y2="175" fill="rgb(0, 0, 0)" stroke="rgb(204, 204, 204)" stroke-width="1px"></line></g></g><g transform="translate(52, 0)" clip-path="url(#clip_0)"><clipPath id="clip_0"><rect width="277" height="175"></rect></clipPath><g><g><g><line x1="0" y1="0" x2="0" y2="175" fill="rgb(0, 0, 0)" stroke="rgb(66, 66, 66)" stroke-width="1px" opacity="0.25"></line><line x1="19.83928571428571" y1="0" x2="19.83928571428571" y2="175" fill="rgb(0, 0, 0)" stroke="rgb(66, 66, 66)" stroke-width="1px" opacity="0.25"></line><line x1="39.67857142857142" y1="0" x2="39.67857142857142" y2="175" fill="rgb(0, 0, 0)" stroke="rgb(66, 66, 66)" stroke-width="1px" opacity="0.25"></line><line x1="59.51785714285714" y1="0" x2="59.51785714285714" y2="175" fill="rgb(0, 0, 0)" stroke="rgb(66, 66, 66)" stroke-width="1px" opacity="0.25"></line><line x1="79.35714285714285" y1="0" x2="79.35714285714285" y2="175" fill="rgb(0, 0, 0)" stroke="rgb(66, 66, 66)" stroke-width="1px" opacity="0.25"></line><line x1="99.19642857142857" y1="0" x2="99.19642857142857" y2="175" fill="rgb(0, 0, 0)" stroke="rgb(66, 66, 66)" stroke-width="1px" opacity="0.25"></line><line x1="119.03571428571428" y1="0" x2="119.03571428571428" y2="175" fill="rgb(0, 0, 0)" stroke="rgb(66, 66, 66)" stroke-width="1px" opacity="0.25"></line><line x1="138.875" y1="0" x2="138.875" y2="175" fill="rgb(0, 0, 0)" stroke="rgb(66, 66, 66)" stroke-width="1px" opacity="0.25"></line><line x1="158.7142857142857" y1="0" x2="158.7142857142857" y2="175" fill="rgb(0, 0, 0)" stroke="rgb(66, 66, 66)" stroke-width="1px" opacity="0.25"></line><line x1="178.55357142857144" y1="0" x2="178.55357142857144" y2="175" fill="rgb(0, 0, 0)" stroke="rgb(66, 66, 66)" stroke-width="1px" opacity="0.25"></line><line x1="198.39285714285714" y1="0" x2="198.39285714285714" y2="175" fill="rgb(0, 0, 0)" stroke="rgb(66, 66, 66)" stroke-width="1px" opacity="0.25"></line><line x1="218.23214285714286" y1="0" x2="218.23214285714286" y2="175" fill="rgb(0, 0, 0)" stroke="rgb(66, 66, 66)" stroke-width="1px" opacity="0.25"></line><line x1="238.07142857142856" y1="0" x2="238.07142857142856" y2="175" fill="rgb(0, 0, 0)" stroke="rgb(66, 66, 66)" stroke-width="1px" opacity="0.25"></line><line x1="257.9107142857143" y1="0" x2="257.9107142857143" y2="175" fill="rgb(0, 0, 0)" stroke="rgb(66, 66, 66)" stroke-width="1px" opacity="0.25"></line><line x1="277.75" y1="0" x2="277.75" y2="175" fill="rgb(0, 0, 0)" stroke="rgb(66, 66, 66)" stroke-width="1px" opacity="0.25"></line></g><g><line x1="0" y1="175" x2="277.75" y2="175" fill="rgb(0, 0, 0)" stroke="rgb(66, 66, 66)" stroke-width="1px" opacity="0.25"></line><line x1="0" y1="149.99999999999997" x2="277.75" y2="149.99999999999997" fill="rgb(0, 0, 0)" stroke="rgb(66, 66, 66)" stroke-width="1px" opacity="0.25"></line><line x1="0" y1="124.99999999999996" x2="277.75" y2="124.99999999999996" fill="rgb(0, 0, 0)" stroke="rgb(66, 66, 66)" stroke-width="1px" opacity="0.25"></line><line x1="0" y1="100" x2="277.75" y2="100" fill="rgb(0, 0, 0)" stroke="rgb(66, 66, 66)" stroke-width="1px" opacity="0.25"></line><line x1="0" y1="74.99999999999999" x2="277.75" y2="74.99999999999999" fill="rgb(0, 0, 0)" stroke="rgb(66, 66, 66)" stroke-width="1px" opacity="0.25"></line><line x1="0" y1="50.000000000000036" x2="277.75" y2="50.000000000000036" fill="rgb(0, 0, 0)" stroke="rgb(66, 66, 66)" stroke-width="1px" opacity="0.25"></line><line x1="0" y1="25.000000000000007" x2="277.75" y2="25.000000000000007" fill="rgb(0, 0, 0)" stroke="rgb(66, 66, 66)" stroke-width="1px" opacity="0.25"></line><line x1="0" y1="0" x2="277.75" y2="0" fill="rgb(0, 0, 0)" stroke="rgb(66, 66, 66)" stroke-width="1px" opacity="0.25"></line></g></g></g><g><g><line x1="0" y1="524.9999999999999" x2="277.75" y2="524.9999999999999" fill="rgb(0, 0, 0)" stroke="rgb(153, 153, 153)" stroke-width="1.5px"></line></g></g><g><g><line x1="19.83928571428571" y1="0" x2="19.83928571428571" y2="175" fill="rgb(0, 0, 0)" stroke="rgb(153, 153, 153)" stroke-width="1.5px"></line></g></g><g><g><g><g><g><path stroke="rgb(255, 112, 67)" stroke-width="2px" d="M20.83125,120.17940878868103L21.823214285714286,60.51808372139937L22.81517857142857,99.00759872125123L23.807142857142857,142.90583151228293L24.799107142857142,141.452797595864L25.791071428571428,159.46080390560005L26.783035714285717,55.84989934009791L27.775000000000002,86.95578998560913L28.766964285714288,-82.64004763266773L29.75892857142857,-24.971568293917095L30.750892857142855,8.982193164022606L31.74285714285714,59.98506065373875L32.73482142857143,70.33038380706688L33.72678571428571,99.37216079111464L34.71875,79.29263641637267L35.71071428571428,106.32575284011233L36.70267857142857,79.56079395603187L37.69464285714285,-34.35325397177635L38.68660714285714,50.99498255623324L39.67857142857142,41.2165441660614L40.67053571428572,14.53304636051677L41.6625,41.900052908935926L42.65446428571429,86.00194132967373L43.64642857142857,89.40643777317351L44.63839285714286,45.01687965921779L45.63035714285714,17.20324231496405L46.622321428571425,19.839031254712747L47.614285714285714,28.820829396976997L48.606249999999996,82.4181711302208L49.598214285714285,50.973541676862396L50.59017857142857,45.75342057834629L51.582142857142856,46.269486698992814L52.574107142857144,79.66062368667247L53.56607142857143,74.55420802337075L54.558035714285715,98.23756205205822L55.550000000000004,106.4312124332404L56.541964285714286,67.36434817459373L57.533928571428575,52.84462518156067L58.52589285714286,17.165993054654933L59.51785714285714,61.80980831388776L60.50982142857143,106.59237287062504L61.50178571428571,88.42417705149201L62.49375,56.1787289770168L63.48571428571428,63.214275980721204L64.47767857142857,85.88958367626945L65.46964285714286,115.70820918818173L66.46160714285715,119.95555943945959L67.45357142857142,127.33840696053342L68.44553571428571,68.82670731487511L69.4375,99.62370879163976L70.42946428571429,101.72628454394552L71.42142857142856,67.33086521631853L72.41339285714287,71.53674611572988L73.40535714285714,53.33402305317746L74.39732142857143,69.49110120221695L75.3892857142857,92.22187334112024L76.38125000000001,88.97041877395853L77.37321428571428,87.21087694339096L78.36517857142857,-6.378460406238673L80.34910714285715,-13.21908920251446L81.34107142857144,24.19140643332596L82.33303571428571,70.29184285673072L83.325,96.31763806267138L84.31696428571428,120.86408442451703L85.30892857142858,117.5560039651045L86.30089285714286,56.63023247549818L87.29285714285714,90.4686180009239L88.28482142857142,64.00515361152847L89.27678571428572,113.29404904557924L90.26875,143.7452315933326L91.26071428571429,133.6526059893858L92.25267857142856,155.22730015445296L93.24464285714285,167.9240063591513L94.23660714285715,162.82970641635137L95.22857142857143,184.20324644197387L96.22053571428572,44.516536717113084L97.21249999999999,-1.609188840093423L98.2044642857143,57.66579715889563L99.19642857142857,84.85343938161058L100.18839285714286,64.02555993252473L101.18035714285713,58.27661449345038L102.17232142857144,79.44583710808804L103.16428571428571,59.772106509085035L104.15625,96.01965457241265L105.14821428571429,140.92887944007234L106.14017857142856,147.97857466950606L107.13214285714287,162.35886015662305L108.12410714285714,61.437747467570006L109.11607142857143,102.88175200761104L110.1080357142857,102.02504310214964L111.10000000000001,-18.473203699562156L112.09196428571428,10.483324694172557L113.08392857142857,62.61940966101652L114.07589285714285,94.75735288889507L115.06785714285715,96.9512764336544L116.05982142857144,110.06397388707865L117.05178571428571,142.1516655822472L118.04375,80.85782998441914L119.03571428571428,86.26120849632777L120.02767857142858,112.01492049803473L121.01964285714286,99.44638430184207L122.01160714285714,76.52261506978323L123.00357142857142,10.361959048888913L123.99553571428572,90.1384148054015L124.9875,114.2788024576122L125.97946428571429,116.3135440249213L126.97142857142856,130.29207176559973L127.96339285714285,133.78826967831733L128.95535714285714,89.94551773045232L129.94732142857143,111.3598696897851L130.93928571428572,124.11634400549094L131.93125,125.2082221213732L132.9232142857143,104.10669997356857L133.91517857142858,131.43227788819385L134.90714285714284,154.1836970628113L135.89910714285713,133.2598253238684L136.89107142857142,143.3304836838535L137.8830357142857,155.84380927616905L138.875,111.09208525976275L139.8669642857143,117.09600127792794L140.85892857142858,148.91155384216566L141.85089285714284,159.5496620072952L142.84285714285713,93.08767588937471L143.83482142857144,64.9501912117254L144.82678571428573,70.41623546601842L145.81875,59.06746360016766L146.81071428571428,96.21014101715627L147.80267857142857,108.51630868561111L148.79464285714286,125.92088521747021L149.78660714285712,148.63679970042838L150.7785714285714,120.04935601196846L151.7705357142857,126.69350778366419L152.76250000000002,156.74172446313673L153.7544642857143,143.11652305831416L154.74642857142857,159.95949818557443L155.73839285714286,158.81184288183417L156.73035714285714,140.64532010745742L157.72232142857143,139.58496504421078L158.7142857142857,94.59136875507261L159.70624999999998,25.375297975760873L160.6982142857143,87.29323584569823L161.6901785714286,133.35638307770094L162.68214285714288,102.29828753018379L163.67410714285714,152.62816189494134L164.66607142857143,139.7664871142292L165.65803571428572,153.09345044648555L166.65,133.94034455988353L167.64196428571427,121.44595474465815L168.63392857142856,83.01240021267012L169.62589285714287,47.619243945351094L170.61785714285716,45.57333975176268L171.60982142857142,79.95067947590505L172.6017857142857,113.61433573653792L173.59375,124.40030043179092L174.5857142857143,93.18593659910144L175.57767857142858,94.87178992576946L176.56964285714284,44.36195296852324L177.56160714285713,67.1432733703168L178.55357142857144,66.10002995541763L179.54553571428573,90.78887987739483L180.5375,125.93034201029926L181.52946428571428,86.56756218173498L182.52142857142857,110.78567347465993L183.51339285714286,132.77757550203225L184.50535714285712,151.8100499208177L185.4973214285714,113.45594877573282L186.4892857142857,19.40502735717553L187.48125000000002,79.46246631588613L188.4732142857143,135.59727291849896L189.46517857142857,100.35266888491898L190.45714285714286,117.25423343391769L191.44910714285714,135.98949436790676L192.44107142857143,111.90501644877752L193.4330357142857,96.42003413837051L194.42499999999998,103.09922717094952L195.4169642857143,117.43426097679458L196.4089285714286,129.27397115974617L197.40089285714288,131.56189694374194L198.39285714285714,109.22684535008307L199.38482142857143,127.53573575390362L200.37678571428572,78.3777780459701L201.36875,112.07068604984158L202.36071428571427,122.76308681224748L203.35267857142856,70.99391547235825L204.34464285714287,122.8140778982221L205.33660714285716,118.65490362903942L206.32857142857142,48.297067200311844L207.3205357142857,84.4498966426663L208.3125,85.00182952231248L209.3044642857143,104.58971217719368L210.29642857142858,117.57982227473047L211.28839285714284,129.84360488217223L212.28035714285713,113.25918931937903L213.27232142857144,114.21253025041037L214.26428571428573,127.39139401618247L215.25625,111.48072006525759L216.24821428571428,94.68006087674001L217.24017857142857,122.58167620499901L218.23214285714286,58.877165055274844L219.22410714285712,64.8584550237655L220.2160714285714,102.39088211154936L221.2080357142857,94.81346174297332L222.20000000000002,42.79711940418246L223.1919642857143,72.24601923543547L224.18392857142857,104.55422412823643L225.17589285714286,127.89381987733246L226.16785714285714,132.494467776314L227.15982142857143,113.95185844975444L228.1517857142857,72.31399570034583L229.14374999999998,102.9247686512866L230.1357142857143,128.7989381103277L231.1276785714286,145.5530836074686L232.11964285714288,117.07476817900755L233.11160714285714,108.94723918041478L234.10357142857143,122.80452123880914L235.09553571428572,128.622230718139L236.0875,114.86488153314782L237.07946428571427,-51.43576163186911L238.07142857142856,-12.022147763575807L239.06339285714287,52.252713329311796L240.05535714285716,85.5821964065531L241.04732142857142,71.17658596755858L242.0392857142857,108.40258205844042L243.03125,117.93267014570883L244.0232142857143,133.75798990099338L245.01517857142858,132.5080021009964L246.00714285714284,107.802568899758L246.99910714285713,128.612419979076L247.99107142857144,142.3900705673101L248.98303571428573,139.76791751967684L249.975,136.07788594118844L250.96696428571428,123.78012008400015L251.95892857142857,80.25944511253388L252.95089285714286,55.887686491958846L253.94285714285712,64.52220873889478L254.9348214285714,52.64365551982612L255.9267857142857,80.20159887143545L256.91875,118.28759245198113L257.9107142857143,159.6676500566074L258.90267857142857,112.08057117028645L259.89464285714286,155.18982000090844L260.88660714285714,98.06533090435362L261.87857142857143,113.6047663221532L262.8705357142857,109.17637240468106L263.8625,122.93859178768776L264.8544642857143,124.55850514738074L265.8464285714286,130.99340959172432L266.8383928571429,178.7832854019462L267.83035714285717,94.1747687951838" style="fill: none;" fill="none"></path></g></g></g></g><g opacity="0.2"><g><g><g><path stroke="rgb(255, 112, 67)" stroke-width="2px" d="M20.83125,120.17940878868103L21.823214285714286,24.72128868103028L22.81517857142857,135.95753312110898L23.807142857142857,194.5301532745361L24.799107142857142,139.5557165145874L25.791071428571428,184.37235951423642L26.783035714285717,-92.31535196304318L27.775000000000002,132.30847716331482L28.766964285714288,-332.7609658241271L29.75892857142857,60.65940260887147L30.750892857142855,59.60487723350525L31.74285714285714,136.21180653572083L32.73482142857143,85.81458926200867L33.72678571428571,142.87793040275574L34.71875,49.196952581405654L35.71071428571428,146.85636162757874L36.70267857142857,39.4246816635132L37.69464285714285,-205.19540309905994L38.68660714285714,179.00433540344235L39.67857142857142,26.54978036880495L40.67053571428572,-25.490736961364707L41.6625,82.94966220855713L42.65446428571429,152.1539032459259L43.64642857142857,94.51314210891724L44.63839285714286,-21.56714200973509L45.63035714285714,-24.51709508895873L46.622321428571425,23.79270792007448L47.614285714285714,42.293512821197524L48.606249999999996,162.81413435935974L49.598214285714285,3.806614875793482L50.59017857142857,37.923240661621115L51.582142857142856,47.04358577728272L52.574107142857144,129.74732518196106L53.56607142857143,66.89458489418031L54.558035714285715,133.76259207725522L55.550000000000004,118.72168779373168L56.541964285714286,8.764052391052266L57.533928571428575,31.065040826797492L58.52589285714286,-36.35195493698117L59.51785714285714,128.7755310535431L60.50982142857143,173.76621961593625L61.50178571428571,61.17188334465028L62.49375,7.8105568885803365L63.48571428571428,73.7675964832306L64.47767857142857,119.90254521369933L65.46964285714286,160.43614745140073L66.46160714285715,126.32658481597899L67.45357142857142,138.41267824172974L68.44553571428571,-18.940842151641817L69.4375,145.81921100616455L70.42946428571429,104.88014817237854L71.42142857142856,15.737736225128195L72.41339285714287,77.84556746482849L73.40535714285714,26.02993845939637L74.39732142857143,93.72671842575073L75.3892857142857,126.31803154945372L76.38125000000001,84.09323692321777L77.37321428571428,84.57156419754028L78.36517857142857,-146.762466430664L80.34910714285715,186.01947426795957L81.34107142857144,80.30714988708498L82.33303571428571,139.44249749183655L83.325,135.35633087158203L84.31696428571428,157.68375396728513L85.30892857142858,112.5938832759857L86.30089285714286,-34.7584247589111L87.29285714285714,141.22619628906247L88.28482142857142,24.309957027435313L89.27678571428572,187.22739219665525L90.26875,189.42200541496274L91.26071428571429,118.51366758346555L92.25267857142856,187.5893414020538L93.24464285714285,186.9690656661987L94.23660714285715,155.18825650215146L95.22857142857143,216.26355648040771L97.21249999999999,-70.79777717590326L98.2044642857143,146.57827615737915L99.19642857142857,125.63490271568297L100.18839285714286,32.78374075889589L101.18035714285713,49.65319633483888L102.17232142857144,111.19967103004454L103.16428571428571,30.26151061058045L104.15625,150.39097666740415L105.14821428571429,208.29271674156186L106.14017857142856,158.5531175136566L107.13214285714287,183.92928838729858L108.12410714285714,-89.94392156600946L109.11607142857143,165.0477588176727L110.1080357142857,100.73997974395752L111.10000000000001,-199.22057390213007L112.09196428571428,53.91811728477479L113.08392857142857,140.82353711128235L114.07589285714285,142.9642677307129L115.06785714285715,100.24216175079346L116.05982142857144,129.73302006721497L117.05178571428571,190.28320312499997L118.04375,-11.082923412322982L119.03571428571428,94.36627626419067L120.02767857142858,150.64548850059506L121.01964285714286,80.59358000755311L122.01160714285714,42.13696122169496L123.00357142857142,-88.87902498245236L123.99553571428572,209.80309844017026L124.9875,150.48938393592832L125.97946428571429,119.36565637588498L126.97142857142856,151.2598633766174L127.96339285714285,139.0325665473938L128.95535714285714,24.181389808654792L129.94732142857143,143.48139762878415L130.93928571428572,143.25105547904968L131.93125,126.84603929519652L132.9232142857143,72.45441675186159L133.91517857142858,172.4206447601318L134.90714285714284,188.31082582473752L135.89910714285713,101.8740177154541L136.89107142857142,158.43647122383115L137.8830357142857,174.6137976646423L138.875,43.96449923515322L139.8669642857143,126.10187530517575L140.85892857142858,196.6348826885223L142.84285714285713,-6.605303287506093L143.83482142857144,22.74396419525149L144.82678571428573,78.61530184745789L145.81875,42.04430580139161L146.81071428571428,151.92415714263916L147.80267857142857,126.97556018829343L148.79464285714286,152.02775001525876L149.78660714285712,182.71067142486572L150.7785714285714,77.16819047927856L151.7705357142857,136.65973544120786L152.76250000000002,201.81404948234555L153.7544642857143,122.67872095108031L154.74642857142857,185.22396087646484L155.73839285714286,157.09035992622373L156.73035714285714,113.39553594589233L157.72232142857143,137.99443244934082L158.7142857142857,27.100974321365364L159.70624999999998,-78.44880819320674L161.6901785714286,202.45110392570493L162.68214285714288,55.711144208908095L163.67410714285714,228.12297344207758L164.66607142857143,120.47397494316101L165.65803571428572,173.08389544487L166.65,105.21068572998047L167.64196428571427,102.70437002182007L168.63392857142856,25.362068414688125L169.62589285714287,-5.470490455627414L170.61785714285716,42.50448346138002L171.60982142857142,131.51668906211853L172.6017857142857,164.10982012748715L173.59375,140.5792474746704L174.5857142857143,46.364390850067146L175.57767857142858,97.40056991577147L176.56964285714284,-31.40280246734615L177.56160714285713,101.31525397300719L178.55357142857144,64.53516483306885L179.54553571428573,127.8221547603607L180.5375,178.64253520965576L181.52946428571428,27.523392438888568L182.52142857142857,147.11284041404724L183.51339285714286,165.76542854309082L184.50535714285712,180.35876154899594L185.4973214285714,55.924797058105476L186.4892857142857,-121.67135477066034L187.48125000000002,169.548624753952L188.4732142857143,219.79948282241816L189.46517857142857,47.485762834548964L190.45714285714286,142.60658025741577L191.44910714285714,164.09238576889038L192.44107142857143,75.77829957008363L193.4330357142857,73.19256067276001L194.42499999999998,113.11801671981812L195.4169642857143,138.93681168556213L196.4089285714286,147.03353643417358L197.40089285714288,134.99378561973572L198.39285714285714,75.72426795959474L199.38482142857143,154.99907135963437L200.37678571428572,4.640841484069838L201.36875,162.61004805564878L202.36071428571427,138.80168795585632L203.35267857142856,-6.659841537475569L204.34464285714287,200.54432153701782L205.33660714285716,112.41614222526549L206.32857142857142,-57.239687442779484L207.3205357142857,138.6791408061981L208.3125,85.82972884178162L209.3044642857143,133.97153615951538L210.29642857142858,137.06498742103574L211.28839285714284,148.23927879333496L212.28035714285713,88.38256597518921L213.27232142857144,115.6425416469574L214.26428571428573,147.1596896648407L215.25625,87.61470913887023L216.24821428571428,69.47907209396364L217.24017857142857,164.4340991973877L218.23214285714286,-36.6796016693115L219.22410714285712,73.83038997650148L220.2160714285714,158.68952274322507L221.2080357142857,83.44733119010925L222.20000000000002,-35.22739410400387L223.1919642857143,116.41936898231506L224.18392857142857,153.01653146743774L225.17589285714286,162.90321350097656L226.16785714285714,139.39543962478635L227.15982142857143,86.13794445991516L228.1517857142857,9.85720157623293L229.14374999999998,148.84092807769775L230.1357142857143,167.61019229888913L231.1276785714286,170.6843018531799L232.11964285714288,74.35729503631592L233.11160714285714,96.75594568252562L234.10357142857143,143.59044432640073L235.09553571428572,137.34879493713376L236.0875,94.22885775566101L237.07946428571427,-300.8867263793945L238.07142857142856,47.09827303886415L239.06339285714287,148.6650049686432L240.05535714285716,135.57642102241516L241.04732142857142,49.56817030906679L242.0392857142857,164.24157619476316L243.03125,132.2278022766113L244.0232142857143,157.49596953392026L245.01517857142858,130.63302040100095L246.00714285714284,70.74441909790039L246.99910714285713,159.82719659805295L247.99107142857144,163.05654644966125L248.98303571428573,135.83468794822693L249.975,130.5428385734558L250.96696428571428,105.33347129821777L251.95892857142857,14.978432655334498L252.95089285714286,19.33004856109621L253.94285714285712,77.4739921092987L254.9348214285714,34.82582569122315L255.9267857142857,121.53851389884947L256.91875,175.41658282279965L257.9107142857143,221.7377364635467L258.90267857142857,40.69995284080507L259.89464285714286,219.8536932468414L260.88660714285714,12.378597259521506L261.87857142857143,136.91391944885254L262.8705357142857,102.53378152847289L263.8625,143.58192086219788L264.8544642857143,126.98837518692015L265.8464285714286,140.64576625823972L266.8383928571429,250.46809911727902" style="fill: none;" fill="none"></path></g></g></g></g></g></g><g transform="translate(52, 175)" clip-path="url(#clip_1)"><clipPath id="clip_1"><rect width="277" height="25"></rect></clipPath><g><g><line x1="0" y1="0" x2="0" y2="5" style="visibility: inherit;" fill="rgb(0, 0, 0)" stroke="rgb(204, 204, 204)" stroke-width="1px"></line><line x1="19.83928571428571" y1="0" x2="19.83928571428571" y2="5" style="visibility: inherit;" fill="rgb(0, 0, 0)" stroke="rgb(204, 204, 204)" stroke-width="1px"></line><line x1="39.67857142857142" y1="0" x2="39.67857142857142" y2="5" style="visibility: inherit;" fill="rgb(0, 0, 0)" stroke="rgb(204, 204, 204)" stroke-width="1px"></line><line x1="59.51785714285714" y1="0" x2="59.51785714285714" y2="5" style="visibility: inherit;" fill="rgb(0, 0, 0)" stroke="rgb(204, 204, 204)" stroke-width="1px"></line><line x1="79.35714285714285" y1="0" x2="79.35714285714285" y2="5" style="visibility: inherit;" fill="rgb(0, 0, 0)" stroke="rgb(204, 204, 204)" stroke-width="1px"></line><line x1="99.19642857142857" y1="0" x2="99.19642857142857" y2="5" style="visibility: inherit;" fill="rgb(0, 0, 0)" stroke="rgb(204, 204, 204)" stroke-width="1px"></line><line x1="119.03571428571428" y1="0" x2="119.03571428571428" y2="5" style="visibility: inherit;" fill="rgb(0, 0, 0)" stroke="rgb(204, 204, 204)" stroke-width="1px"></line><line x1="138.875" y1="0" x2="138.875" y2="5" style="visibility: inherit;" fill="rgb(0, 0, 0)" stroke="rgb(204, 204, 204)" stroke-width="1px"></line><line x1="158.7142857142857" y1="0" x2="158.7142857142857" y2="5" style="visibility: inherit;" fill="rgb(0, 0, 0)" stroke="rgb(204, 204, 204)" stroke-width="1px"></line><line x1="178.55357142857144" y1="0" x2="178.55357142857144" y2="5" style="visibility: inherit;" fill="rgb(0, 0, 0)" stroke="rgb(204, 204, 204)" stroke-width="1px"></line><line x1="198.39285714285714" y1="0" x2="198.39285714285714" y2="5" style="visibility: inherit;" fill="rgb(0, 0, 0)" stroke="rgb(204, 204, 204)" stroke-width="1px"></line><line x1="218.23214285714286" y1="0" x2="218.23214285714286" y2="5" style="visibility: inherit;" fill="rgb(0, 0, 0)" stroke="rgb(204, 204, 204)" stroke-width="1px"></line><line x1="238.07142857142856" y1="0" x2="238.07142857142856" y2="5" style="visibility: inherit;" fill="rgb(0, 0, 0)" stroke="rgb(204, 204, 204)" stroke-width="1px"></line><line x1="257.9107142857143" y1="0" x2="257.9107142857143" y2="5" style="visibility: inherit;" fill="rgb(0, 0, 0)" stroke="rgb(204, 204, 204)" stroke-width="1px"></line><line x1="277.75" y1="0" x2="277.75" y2="5" style="visibility: inherit;" fill="rgb(0, 0, 0)" stroke="rgb(204, 204, 204)" stroke-width="1px"></line></g><g transform="translate(0, 8)"><text x="0" y="0" dx="0em" dy="0.95em" style="text-anchor: middle; visibility: hidden; font-family: Roboto, sans-serif; font-size: 12px; font-weight: 200;" fill="rgb(33, 33, 33)" stroke="none" stroke-width="1px">-2k</text><text x="19.83928571428571" y="0" dx="0em" dy="0.95em" style="text-anchor: middle; visibility: inherit; font-family: Roboto, sans-serif; font-size: 12px; font-weight: 200;" fill="rgb(33, 33, 33)" stroke="none" stroke-width="1px">0</text><text x="39.67857142857142" y="0" dx="0em" dy="0.95em" style="text-anchor: middle; visibility: hidden; font-family: Roboto, sans-serif; font-size: 12px; font-weight: 200;" fill="rgb(33, 33, 33)" stroke="none" stroke-width="1px">2k</text><text x="59.51785714285714" y="0" dx="0em" dy="0.95em" style="text-anchor: middle; visibility: inherit; font-family: Roboto, sans-serif; font-size: 12px; font-weight: 200;" fill="rgb(33, 33, 33)" stroke="none" stroke-width="1px">4k</text><text x="79.35714285714285" y="0" dx="0em" dy="0.95em" style="text-anchor: middle; visibility: hidden; font-family: Roboto, sans-serif; font-size: 12px; font-weight: 200;" fill="rgb(33, 33, 33)" stroke="none" stroke-width="1px">6k</text><text x="99.19642857142857" y="0" dx="0em" dy="0.95em" style="text-anchor: middle; visibility: inherit; font-family: Roboto, sans-serif; font-size: 12px; font-weight: 200;" fill="rgb(33, 33, 33)" stroke="none" stroke-width="1px">8k</text><text x="119.03571428571428" y="0" dx="0em" dy="0.95em" style="text-anchor: middle; visibility: hidden; font-family: Roboto, sans-serif; font-size: 12px; font-weight: 200;" fill="rgb(33, 33, 33)" stroke="none" stroke-width="1px">10k</text><text x="138.875" y="0" dx="0em" dy="0.95em" style="text-anchor: middle; visibility: inherit; font-family: Roboto, sans-serif; font-size: 12px; font-weight: 200;" fill="rgb(33, 33, 33)" stroke="none" stroke-width="1px">12k</text><text x="158.7142857142857" y="0" dx="0em" dy="0.95em" style="text-anchor: middle; visibility: hidden; font-family: Roboto, sans-serif; font-size: 12px; font-weight: 200;" fill="rgb(33, 33, 33)" stroke="none" stroke-width="1px">14k</text><text x="178.55357142857144" y="0" dx="0em" dy="0.95em" style="text-anchor: middle; visibility: inherit; font-family: Roboto, sans-serif; font-size: 12px; font-weight: 200;" fill="rgb(33, 33, 33)" stroke="none" stroke-width="1px">16k</text><text x="198.39285714285714" y="0" dx="0em" dy="0.95em" style="text-anchor: middle; visibility: hidden; font-family: Roboto, sans-serif; font-size: 12px; font-weight: 200;" fill="rgb(33, 33, 33)" stroke="none" stroke-width="1px">18k</text><text x="218.23214285714286" y="0" dx="0em" dy="0.95em" style="text-anchor: middle; visibility: inherit; font-family: Roboto, sans-serif; font-size: 12px; font-weight: 200;" fill="rgb(33, 33, 33)" stroke="none" stroke-width="1px">20k</text><text x="238.07142857142856" y="0" dx="0em" dy="0.95em" style="text-anchor: middle; visibility: hidden; font-family: Roboto, sans-serif; font-size: 12px; font-weight: 200;" fill="rgb(33, 33, 33)" stroke="none" stroke-width="1px">22k</text><text x="257.9107142857143" y="0" dx="0em" dy="0.95em" style="text-anchor: middle; visibility: inherit; font-family: Roboto, sans-serif; font-size: 12px; font-weight: 200;" fill="rgb(33, 33, 33)" stroke="none" stroke-width="1px">24k</text><text x="277.75" y="0" dx="0em" dy="0.95em" style="text-anchor: middle; visibility: hidden; font-family: Roboto, sans-serif; font-size: 12px; font-weight: 200;" fill="rgb(33, 33, 33)" stroke="none" stroke-width="1px">26k</text></g><line x1="0" y1="0" x2="277.75" y2="0" fill="rgb(0, 0, 0)" stroke="rgb(204, 204, 204)" stroke-width="1px"></line></g></g></g></g></svg>