<svg viewBox="0 0 330 200" xmlns="http://www.w3.org/2000/svg"><g><g><g><g><g><line x1="30.78125" y1="177" x2="25.78125" y2="177" style="visibility: inherit;" fill="rgb(0, 0, 0)" stroke="rgb(204, 204, 204)" stroke-width="1px"></line><line x1="30.78125" y1="157.33333333333331" x2="25.78125" y2="157.33333333333331" style="visibility: inherit;" fill="rgb(0, 0, 0)" stroke="rgb(204, 204, 204)" stroke-width="1px"></line><line x1="30.78125" y1="137.66666666666666" x2="25.78125" y2="137.66666666666666" style="visibility: inherit;" fill="rgb(0, 0, 0)" stroke="rgb(204, 204, 204)" stroke-width="1px"></line><line x1="30.78125" y1="118.00000000000001" x2="25.78125" y2="118.00000000000001" style="visibility: inherit;" fill="rgb(0, 0, 0)" stroke="rgb(204, 204, 204)" stroke-width="1px"></line><line x1="30.78125" y1="98.33333333333334" x2="25.78125" y2="98.33333333333334" style="visibility: inherit;" fill="rgb(0, 0, 0)" stroke="rgb(204, 204, 204)" stroke-width="1px"></line><line x1="30.78125" y1="78.66666666666666" x2="25.78125" y2="78.66666666666666" style="visibility: inherit;" fill="rgb(0, 0, 0)" stroke="rgb(204, 204, 204)" stroke-width="1px"></line><line x1="30.78125" y1="59.00000000000001" x2="25.78125" y2="59.00000000000001" style="visibility: inherit;" fill="rgb(0, 0, 0)" stroke="rgb(204, 204, 204)" stroke-width="1px"></line><line x1="30.78125" y1="39.33333333333333" x2="25.78125" y2="39.33333333333333" style="visibility: inherit;" fill="rgb(0, 0, 0)" stroke="rgb(204, 204, 204)" stroke-width="1px"></line><line x1="30.78125" y1="19.666666666666675" x2="25.78125" y2="19.666666666666675" style="visibility: inherit;" fill="rgb(0, 0, 0)" stroke="rgb(204, 204, 204)" stroke-width="1px"></line><line x1="30.78125" y1="0" x2="25.78125" y2="0" style="visibility: inherit;" fill="rgb(0, 0, 0)" stroke="rgb(204, 204, 204)" stroke-width="1px"></line></g><g transform="translate(20.78125, 0)"><text x="0" y="177" dx="0em" dy="0.3em" style="text-anchor: end; visibility: hidden; font-family: Roboto, sans-serif; font-size: 12px; font-weight: 200;" fill="rgb(33, 33, 33)" stroke="none" stroke-width="1px">-5</text><text x="0" y="157.33333333333331" dx="0em" dy="0.3em" style="text-anchor: end; visibility: inherit; font-family: Roboto, sans-serif; font-size: 12px; font-weight: 200;" fill="rgb(33, 33, 33)" stroke="none" stroke-width="1px">0</text><text x="0" y="137.66666666666666" dx="0em" dy="0.3em" style="text-anchor: end; visibility: hidden; font-family: Roboto, sans-serif; font-size: 12px; font-weight: 200;" fill="rgb(33, 33, 33)" stroke="none" stroke-width="1px">5</text><text x="0" y="118.00000000000001" dx="0em" dy="0.3em" style="text-anchor: end; visibility: inherit; font-family: Roboto, sans-serif; font-size: 12px; font-weight: 200;" fill="rgb(33, 33, 33)" stroke="none" stroke-width="1px">10</text><text x="0" y="98.33333333333334" dx="0em" dy="0.3em" style="text-anchor: end; visibility: hidden; font-family: Roboto, sans-serif; font-size: 12px; font-weight: 200;" fill="rgb(33, 33, 33)" stroke="none" stroke-width="1px">15</text><text x="0" y="78.66666666666666" dx="0em" dy="0.3em" style="text-anchor: end; visibility: inherit; font-family: Roboto, sans-serif; font-size: 12px; font-weight: 200;" fill="rgb(33, 33, 33)" stroke="none" stroke-width="1px">20</text><text x="0" y="59.00000000000001" dx="0em" dy="0.3em" style="text-anchor: end; visibility: hidden; font-family: Roboto, sans-serif; font-size: 12px; font-weight: 200;" fill="rgb(33, 33, 33)" stroke="none" stroke-width="1px">25</text><text x="0" y="39.33333333333333" dx="0em" dy="0.3em" style="text-anchor: end; visibility: inherit; font-family: Roboto, sans-serif; font-size: 12px; font-weight: 200;" fill="rgb(33, 33, 33)" stroke="none" stroke-width="1px">30</text><text x="0" y="19.666666666666675" dx="0em" dy="0.3em" style="text-anchor: end; visibility: hidden; font-family: Roboto, sans-serif; font-size: 12px; font-weight: 200;" fill="rgb(33, 33, 33)" stroke="none" stroke-width="1px">35</text><text x="0" y="0" dx="0em" dy="0.3em" style="text-anchor: end; visibility: hidden; font-family: Roboto, sans-serif; font-size: 12px; font-weight: 200;" fill="rgb(33, 33, 33)" stroke="none" stroke-width="1px">40</text></g><line x1="30.78125" y1="0" x2="30.78125" y2="177" fill="rgb(0, 0, 0)" stroke="rgb(204, 204, 204)" stroke-width="1px"></line></g></g><g transform="translate(30, 0)" clip-path="url(#clip_0)"><clipPath id="clip_0"><rect width="299" height="177"></rect></clipPath><g><g><g><line x1="0" y1="0" x2="0" y2="177" fill="rgb(0, 0, 0)" stroke="rgb(66, 66, 66)" stroke-width="1px" opacity="0.25"></line><line x1="21.372767857142858" y1="0" x2="21.372767857142858" y2="177" fill="rgb(0, 0, 0)" stroke="rgb(66, 66, 66)" stroke-width="1px" opacity="0.25"></line><line x1="42.745535714285715" y1="0" x2="42.745535714285715" y2="177" fill="rgb(0, 0, 0)" stroke="rgb(66, 66, 66)" stroke-width="1px" opacity="0.25"></line><line x1="64.11830357142857" y1="0" x2="64.11830357142857" y2="177" fill="rgb(0, 0, 0)" stroke="rgb(66, 66, 66)" stroke-width="1px" opacity="0.25"></line><line x1="85.49107142857143" y1="0" x2="85.49107142857143" y2="177" fill="rgb(0, 0, 0)" stroke="rgb(66, 66, 66)" stroke-width="1px" opacity="0.25"></line><line x1="106.86383928571429" y1="0" x2="106.86383928571429" y2="177" fill="rgb(0, 0, 0)" stroke="rgb(66, 66, 66)" stroke-width="1px" opacity="0.25"></line><line x1="128.23660714285714" y1="0" x2="128.23660714285714" y2="177" fill="rgb(0, 0, 0)" stroke="rgb(66, 66, 66)" stroke-width="1px" opacity="0.25"></line><line x1="149.609375" y1="0" x2="149.609375" y2="177" fill="rgb(0, 0, 0)" stroke="rgb(66, 66, 66)" stroke-width="1px" opacity="0.25"></line><line x1="170.98214285714286" y1="0" x2="170.98214285714286" y2="177" fill="rgb(0, 0, 0)" stroke="rgb(66, 66, 66)" stroke-width="1px" opacity="0.25"></line><line x1="192.35491071428572" y1="0" x2="192.35491071428572" y2="177" fill="rgb(0, 0, 0)" stroke="rgb(66, 66, 66)" stroke-width="1px" opacity="0.25"></line><line x1="213.72767857142858" y1="0" x2="213.72767857142858" y2="177" fill="rgb(0, 0, 0)" stroke="rgb(66, 66, 66)" stroke-width="1px" opacity="0.25"></line><line x1="235.10044642857142" y1="0" x2="235.10044642857142" y2="177" fill="rgb(0, 0, 0)" stroke="rgb(66, 66, 66)" stroke-width="1px" opacity="0.25"></line><line x1="256.4732142857143" y1="0" x2="256.4732142857143" y2="177" fill="rgb(0, 0, 0)" stroke="rgb(66, 66, 66)" stroke-width="1px" opacity="0.25"></line><line x1="277.84598214285717" y1="0" x2="277.84598214285717" y2="177" fill="rgb(0, 0, 0)" stroke="rgb(66, 66, 66)" stroke-width="1px" opacity="0.25"></line><line x1="299.21875" y1="0" x2="299.21875" y2="177" fill="rgb(0, 0, 0)" stroke="rgb(66, 66, 66)" stroke-width="1px" opacity="0.25"></line></g><g><line x1="0" y1="177" x2="299.21875" y2="177" fill="rgb(0, 0, 0)" stroke="rgb(66, 66, 66)" stroke-width="1px" opacity="0.25"></line><line x1="0" y1="157.33333333333331" x2="299.21875" y2="157.33333333333331" fill="rgb(0, 0, 0)" stroke="rgb(66, 66, 66)" stroke-width="1px" opacity="0.25"></line><line x1="0" y1="137.66666666666666" x2="299.21875" y2="137.66666666666666" fill="rgb(0, 0, 0)" stroke="rgb(66, 66, 66)" stroke-width="1px" opacity="0.25"></line><line x1="0" y1="118.00000000000001" x2="299.21875" y2="118.00000000000001" fill="rgb(0, 0, 0)" stroke="rgb(66, 66, 66)" stroke-width="1px" opacity="0.25"></line><line x1="0" y1="98.33333333333334" x2="299.21875" y2="98.33333333333334" fill="rgb(0, 0, 0)" stroke="rgb(66, 66, 66)" stroke-width="1px" opacity="0.25"></line><line x1="0" y1="78.66666666666666" x2="299.21875" y2="78.66666666666666" fill="rgb(0, 0, 0)" stroke="rgb(66, 66, 66)" stroke-width="1px" opacity="0.25"></line><line x1="0" y1="59.00000000000001" x2="299.21875" y2="59.00000000000001" fill="rgb(0, 0, 0)" stroke="rgb(66, 66, 66)" stroke-width="1px" opacity="0.25"></line><line x1="0" y1="39.33333333333333" x2="299.21875" y2="39.33333333333333" fill="rgb(0, 0, 0)" stroke="rgb(66, 66, 66)" stroke-width="1px" opacity="0.25"></line><line x1="0" y1="19.666666666666675" x2="299.21875" y2="19.666666666666675" fill="rgb(0, 0, 0)" stroke="rgb(66, 66, 66)" stroke-width="1px" opacity="0.25"></line><line x1="0" y1="0" x2="299.21875" y2="0" fill="rgb(0, 0, 0)" stroke="rgb(66, 66, 66)" stroke-width="1px" opacity="0.25"></line></g></g></g><g><g><line x1="0" y1="157.33333333333331" x2="299.21875" y2="157.33333333333331" fill="rgb(0, 0, 0)" stroke="rgb(153, 153, 153)" stroke-width="1.5px"></line></g></g><g><g><line x1="21.372767857142858" y1="0" x2="21.372767857142858" y2="177" fill="rgb(0, 0, 0)" stroke="rgb(153, 153, 153)" stroke-width="1.5px"></line></g></g><g><g><g><g><g><path stroke="rgb(255, 112, 67)" stroke-width="2px" d="M22.44140625,154.21293969154357L23.510044642857142,152.29060228367646L24.578683035714285,152.04453799935425L25.647321428571427,152.94404561505013L26.715959821428573,153.69820482872882L27.784598214285715,153.76338286831992L28.853236607142858,-174.31233844748422L41.67689732142857,-37.66857690852477L42.745535714285715,21.27748759305768L43.81417410714286,67.3957738910094L44.8828125,98.19861859196914L45.951450892857146,114.644266572002L47.020089285714285,124.9547667954144L48.08872767857143,132.82538139823308L49.15736607142857,132.15114855674176L50.22600446428571,139.60691958841576L51.294642857142854,137.94428919283283L52.36328125,142.7567521636797L53.431919642857146,146.26727461928076L54.500558035714285,144.57179968664724L55.56919642857143,146.5827321320404L56.63783482142857,140.1767663409822L57.706473214285715,144.77487631524193L58.775111607142854,147.99551491006198L59.84375,149.13812317952258L60.912388392857146,149.7705775401676L61.98102678571429,148.51728033444928L63.04966517857143,150.14421853719017L64.11830357142857,149.529852616549L65.18694196428571,151.64967081781998L66.25558035714286,148.3946627758382L67.32421875,150.52310056166345L68.39285714285714,148.71838632876103L69.46149553571429,150.60721271805383L70.53013392857143,151.13776290562532L71.59877232142857,152.0118905028836L72.66741071428571,151.08533183499895L73.73604910714286,151.9328723607459L74.8046875,152.95986236839317L75.87332589285714,152.96494929537474L76.94196428571428,152.408758751621L78.01060267857143,153.29110008720917L79.07924107142857,153.17022112435706L80.14787946428571,153.6890417112509L81.21651785714285,154.0319017927012L82.28515625,150.90750795285797L83.35379464285714,150.92751458057302L84.42243303571429,152.07783631067605L85.49107142857143,152.71836415835898L86.55970982142858,153.5214020548782L87.62834821428572,150.17838760565837L88.69698660714286,149.65547729224636L89.765625,150.81908962025648L90.83426339285714,152.1928142267132L91.90290178571429,151.1450813856322L92.97154017857143,148.32341992894402L94.04017857142857,150.57950949374592L95.10881696428571,152.08355806492023L96.17745535714286,153.14771454546207L97.24609375,151.1337279666266L98.31473214285714,152.29841129474647L99.38337053571428,152.82497431571966L100.45200892857142,153.20162539562992L101.52064732142857,150.1352542278056L102.58928571428571,150.6256754007072L103.65792410714286,152.04731303410514L104.7265625,142.51642030133874L105.79520089285715,147.36104057980023L106.86383928571429,149.84245498549407L107.93247767857143,137.07100771012782L109.00111607142857,130.98118759319908L110.06975446428572,128.0529434875194L111.13839285714286,134.69185692681134L112.20703125,142.59325898456532L113.27566964285714,147.34718252798692L114.34430803571428,142.27396691628758L115.41294642857143,146.17098450653828L116.48158482142857,148.91223066325833L117.55022321428571,151.2130738239041L118.61886160714285,151.64820714834636L119.6875,152.44815479622267L120.75613839285714,153.0121012797315L121.82477678571429,143.14095862092728L122.89341517857143,147.58166366526774L123.96205357142858,149.42086002256053L125.03069196428572,151.40687677835768L126.09933035714286,152.64669930761264L127.16796875,153.40813859040662L128.23660714285714,153.93420392832235L129.30524553571428,154.17886211332328L130.37388392857142,153.61755088641232L131.44252232142858,153.98862036987535L132.51116071428572,153.83205440913275L133.57979910714286,153.92974027678153L134.6484375,154.14149882565803L135.71707589285714,153.3210354616495L136.78571428571428,153.79307044646654L137.85435267857142,153.53931190988328L138.92299107142858,153.74038959515636L139.99162946428572,154.05743870043287L141.06026785714286,154.19878592552857L142.12890625,154.2405645183451L143.19754464285714,154.26802732617023L144.26618303571428,154.46265409114181L145.33482142857142,154.5784441685014L146.40345982142856,154.59560145231086L147.47209821428572,154.66862447237173L148.54073660714286,154.67935463413713L149.609375,154.59693838174215L150.67801339285714,154.66199650733714L151.74665178571428,154.72746017278658L152.81529017857142,154.40502209525164L153.88392857142856,154.26995507475252L154.95256696428572,154.39336500722078L156.02120535714286,154.1660666053965L157.08984375,153.92753587318307L158.15848214285714,152.48877840689528L159.22712053571428,151.97679483802145L160.29575892857142,152.07714389271155L161.36439732142856,151.18705159568756L162.4330357142857,152.5458766858417L163.50167410714283,153.1876227506382L164.5703125,153.3715930633773L165.63895089285714,153.84499082166133L166.70758928571428,154.07217704851337L167.77622767857142,151.9100290799076L168.84486607142858,151.53629692538186L169.91350446428572,152.73318706280156L170.98214285714286,153.312953150627L172.05078125,153.74222746472975L173.11941964285717,154.09581647901587L174.1880580357143,153.66447217894904L175.25669642857144,152.12918456812687L176.32533482142858,153.05151067666205L177.39397321428572,153.48851277724103L178.46261160714286,153.86243398921806L179.53125,153.82434145889948L180.59988839285714,154.02345221687716L181.66852678571428,154.21543502240993L182.73716517857144,154.31927316325675L183.80580357142858,154.41325856131974L184.87444196428572,154.48396041283604L185.94308035714286,154.6101967137432L187.01171875,154.15868880677476L188.08035714285714,153.51062818007622L189.14899553571428,153.80368784211248L190.21763392857142,153.9832815103263L191.28627232142856,154.15775511339487L192.35491071428572,154.29147790635733L193.42354910714286,154.40211965301697L194.4921875,154.37687367951312L195.56082589285714,153.8515704446362L196.62946428571428,154.20145158290822L197.69810267857142,154.38650397014592L198.76674107142856,154.47702569058723L199.8353794642857,154.49953598593385L200.90401785714283,154.48528097558844L201.97265625,154.56184048387703L203.04129464285714,154.64709841887134L204.10993303571428,154.61781606006608L205.17857142857142,154.37734071331016L206.24720982142858,154.4798901060231L207.31584821428572,154.39751800253038L208.38448660714286,154.32009470038045L209.453125,154.34312053902403L210.52176339285717,154.24862660795523L211.5904017857143,154.31799776214405L212.65904017857144,153.44028580620713L213.72767857142858,153.83203899642723L214.79631696428572,154.0813086830431L215.86495535714286,154.02480708775045L216.93359375,153.93468932956728L218.00223214285714,153.88960569928253L219.07087053571428,154.11236869790255L220.13950892857144,154.35699828802407L221.20814732142858,154.4599746946823L222.27678571428572,154.36188278383005L223.34542410714286,154.37845129282866L224.4140625,154.39131048745867L225.48270089285714,154.36793410436485L226.55133928571428,154.370997341014L227.61997767857142,154.41160028430045L228.68861607142856,154.2895713499321L229.75725446428572,154.35386879192592L230.82589285714286,154.4364120595463L231.89453125,154.43055659330733L232.96316964285714,154.48501892048228L234.03180803571428,154.5268833698319L235.10044642857142,154.21340597201308L236.16908482142856,154.27959897992363L237.2377232142857,154.25907837834367L238.30636160714283,154.19900873990701L239.375,154.18048646425314L240.44363839285714,154.3535118721432L241.51227678571428,154.36443224961596L242.58091517857142,154.45660976855976L243.64955357142858,154.55381421579335L244.71819196428572,153.205791270336L245.78683035714286,153.5278549120429L246.85546875,153.92391966376323L247.92410714285717,154.2340354787923L248.9927455357143,154.3960787694226L250.06138392857144,154.40199988209628L251.13002232142858,154.44946633690648L252.19866071428572,154.5649676687363L253.26729910714286,154.61329202295403L254.3359375,154.55240841810541L255.40457589285714,154.16427499515595L256.4732142857143,154.3038631442951L257.54185267857144,154.40816597643098L258.61049107142856,154.52812038403314L259.6791294642857,154.58573205714362L260.74776785714283,154.58724729525014L261.81640625,154.54394678139863L262.88504464285717,154.5291597183397L263.9536830357143,154.4811780327072L265.02232142857144,154.4970177718109L266.09095982142856,154.4968460727596L267.1595982142857,154.56824650817296L268.2282366071429,154.5475049276343L269.296875,154.579179702949L270.36551339285717,154.58328155999467L271.4341517857143,154.5427375955885L272.50279017857144,154.54850916406542L273.57142857142856,154.54936545257388L274.6400669642857,154.58509426175328L275.70870535714283,154.5651025950438L276.77734375,154.5939321481899L277.84598214285717,154.62461330992278L278.9146205357143,154.55777660907683L279.98325892857144,154.61440309942589L281.05189732142856,154.3968198585162L282.1205357142857,154.45032738174893L283.18917410714283,154.37286124145524L284.2578125,154.49823532213094L285.32645089285717,154.56875549222622L286.3950892857143,154.5756296479638L287.46372767857144,154.5701484634838L288.53236607142856,154.49065455164677" style="fill: none;" fill="none"></path></g><g><path stroke="rgb(0, 119, 187)" stroke-width="2px" d="M277.84598214285717,153.9697675426801Z" style="fill: none;" fill="none"></path></g></g></g></g><g opacity="0.2"><g><g><g><path stroke="rgb(255, 112, 67)" stroke-width="2px" d="M22.44140625,154.21293969154357L23.510044642857142,151.13719983895618L24.578683035714285,151.80831628640493L25.647321428571427,154.0018665711085L26.715959821428573,154.68283509810766L27.784598214285715,153.85354756116868L28.853236607142858,-643.4658691406249L34.19642857142857,-4436.030810546875L35.265066964285715,101.84897206624349L36.333705357142854,3.6223505655924395L37.40234375,-243.69780629475915L38.47098214285714,53.41652692159016L39.539620535714285,143.96610269546508L40.60825892857142,-21.287630208333336L41.67689732142857,81.5268648783366L42.745535714285715,109.69119644165039L43.81417410714286,136.57067410151163L44.8828125,144.4018720626831L45.951450892857146,139.31241385142008L47.020089285714285,140.42039499282836L48.08872767857143,144.63124736150107L49.15736607142857,131.1398021697998L50.22600446428571,150.79055705865224L51.294642857142854,135.4503461519877L52.36328125,149.97544218699136L53.431919642857146,151.53305636246998L54.500558035714285,142.0285878499349L55.56919642857143,149.59913040002186L56.63783482142857,130.56781841913858L57.706473214285715,151.67204094727833L58.775111607142854,152.8264726638794L59.84375,150.85203555425008L60.912388392857146,150.7192590713501L61.98102678571429,146.6373345375061L63.04966517857143,152.5846258322398L64.11830357142857,148.60830373764037L65.18694196428571,154.82939811547598L66.25558035714286,143.5121507167816L67.32421875,153.7157572388649L68.39285714285714,146.011314980189L69.46149553571429,153.44045230150223L70.53013392857143,151.9335881868998L71.59877232142857,153.32308189868928L72.66741071428571,149.69549383322396L73.73604910714286,153.20418314933778L74.8046875,154.5003473798434L75.87332589285714,152.97257968584697L76.94196428571428,151.57447293599446L78.01060267857143,154.61461209058763L79.07924107142857,152.98890268007915L80.14787946428571,154.46727259159087L81.21651785714285,154.54619191487632L82.28515625,146.2209171930949L83.35379464285714,150.9575245221456L84.42243303571429,153.8033189058304L85.49107142857143,153.67915592988334L86.55970982142858,154.72595889965692L87.62834821428572,145.1638659318288L88.69698660714286,148.87111182212828L89.765625,152.56450811227162L90.83426339285714,154.2534011363983L91.90290178571429,149.57348212401072L92.97154017857143,144.09092774391175L94.04017857142857,153.96364384094875L95.10881696428571,154.33963092168173L96.17745535714286,154.74394926627477L97.24609375,148.1127480983734L98.31473214285714,154.04543628692628L99.38337053571428,153.6148188471794L100.45200892857142,153.7666020154953L101.52064732142857,145.53569747606912L102.58928571428571,151.36130716005962L103.65792410714286,154.17976948420207L104.7265625,128.22008120218914L105.79520089285715,154.62797099749247L106.86383928571429,153.56457659403483L107.93247767857143,117.91383679707846L109.00111607142857,121.84645741780598L110.06975446428572,123.66057732899984L111.13839285714286,144.65022708574932L112.20703125,154.44536207119626L113.27566964285714,154.4780678431193L114.34430803571428,134.6641434987386L115.41294642857143,152.01651089191438L116.48158482142857,153.0240998983383L117.55022321428571,154.66433856487274L118.61886160714285,152.30090713500977L119.6875,153.64807626803716L120.75613839285714,153.85802100499473L121.82477678571429,128.33424463272095L122.89341517857143,154.24272123177846L123.96205357142858,152.17965455849966L125.03069196428572,154.38590191205344L126.09933035714286,154.5064331014951L127.16796875,154.55029751459756L128.23660714285714,154.72330193519593L129.30524553571428,154.54584939082463L130.37388392857142,152.77558404604594L131.44252232142858,154.5452245950699L132.51116071428572,153.59720546801884L133.57979910714286,154.0762690782547L134.6484375,154.45913664897282L135.71707589285714,152.0903404156367L136.78571428571428,154.50112292369207L137.85435267857142,153.15867410500846L138.92299107142858,154.04200612306596L139.99162946428572,154.53301235834758L141.06026785714286,154.41080676317216L142.12890625,154.30323240756988L143.19754464285714,154.30922153790792L144.26618303571428,154.75459423859914L145.33482142857142,154.7521292845408L146.40345982142856,154.62133737802506L147.47209821428572,154.778159002463L148.54073660714286,154.6954498767853L149.609375,154.47331400314965L150.67801339285714,154.7595836957296L151.74665178571428,154.82565567096074L152.81529017857142,153.92136497894924L153.88392857142856,154.06735454400382L154.95256696428572,154.5784799059232L156.02120535714286,153.82511900266013L157.08984375,153.5697397748629L158.15848214285714,150.3306422074636L159.22712053571428,151.2088194847107L160.29575892857142,152.2276674747467L161.36439732142856,149.85191315015157L162.4330357142857,154.5841143210729L163.50167410714283,154.150241847833L164.5703125,153.64754853248596L165.63895089285714,154.55508745908736L166.70758928571428,154.4129563887914L167.77622767857142,148.6668071269989L168.84486607142858,150.97569869359333L169.91350446428572,154.52852226893106L170.98214285714286,154.18260228236517L172.05078125,154.38613893588385L173.11941964285717,154.62620000044507L174.1880580357143,153.01745572884877L175.25669642857144,149.8262531518936L176.32533482142858,154.4349998394648L177.39397321428572,154.1440159281095L178.46261160714286,154.4233158071836L179.53125,153.76720266342164L180.59988839285714,154.32211835384368L181.66852678571428,154.50340923070908L182.73716517857144,154.47503037452697L183.80580357142858,154.5542366584142L184.87444196428572,154.59001319011054L185.94308035714286,154.7995511651039L187.01171875,153.48142694632213L188.08035714285714,152.53853724002838L189.14899553571428,154.24327733516694L190.21763392857142,154.252672012647L191.28627232142856,154.41946551799774L192.35491071428572,154.49206209580103L193.42354910714286,154.56808227300644L194.4921875,154.33900471925736L195.56082589285714,153.06361559232076L196.62946428571428,154.72627329031627L197.69810267857142,154.6640825510025L198.76674107142856,154.61280827124912L199.8353794642857,154.5333014289538L200.90401785714283,154.4638984600703L201.97265625,154.6766797463099L203.04129464285714,154.7749853213628L204.10993303571428,154.57389252185823L205.17857142857142,154.01662769317628L206.24720982142858,154.63371419509252L207.31584821428572,154.2739598472913L208.38448660714286,154.20395974715552L209.453125,154.37765929698944L210.52176339285717,154.10688571135205L211.5904017857143,154.42205449342728L212.65904017857144,152.12371787230174L213.72767857142858,154.41966878175737L214.79631696428572,154.45521321296692L215.86495535714286,153.9400546948115L216.93359375,153.79951269229252L218.00223214285714,153.82198025385537L219.07087053571428,154.44651319583258L220.13950892857144,154.72394267320632L221.20814732142858,154.6144393046697L222.27678571428572,154.21474491755168L223.34542410714286,154.40330405632653L224.4140625,154.4105992794037L225.48270089285714,154.33286952972412L226.55133928571428,154.3755921959877L227.61997767857142,154.4725046992302L228.68861607142856,154.10652794837952L229.75725446428572,154.45031495491662L230.82589285714286,154.5602269609769L231.89453125,154.42177339394888L232.96316964285714,154.5667124112447L234.03180803571428,154.5896800438563L235.10044642857142,153.74318987528483L236.16908482142856,154.3788884917895L237.2377232142857,154.22829747597376L238.30636160714283,154.10890428225198L239.375,154.15270305077235L240.44363839285714,154.61304998397827L241.51227678571428,154.38081281582515L242.58091517857142,154.59487604697546L243.64955357142858,154.69962088664374L244.71819196428572,151.18375685214997L245.78683035714286,154.01095037460328L246.85546875,154.51801679134368L247.92410714285717,154.69920920133592L248.9927455357143,154.63914370536804L250.06138392857144,154.41088155110677L251.13002232142858,154.5206660191218L252.19866071428572,154.73821966648103L253.26729910714286,154.6857785542806L254.3359375,154.46108301083248L255.40457589285714,153.58207486073178L256.4732142857143,154.51324536800385L257.54185267857144,154.5646202246348L258.61049107142856,154.70805199543634L259.6791294642857,154.67214956680934L260.74776785714283,154.58952015240988L261.81640625,154.4789960106214L262.88504464285717,154.5069791237513L263.9536830357143,154.40920550425847L265.02232142857144,154.52077738046646L266.09095982142856,154.49658852418264L267.1595982142857,154.67534716129302L268.2282366071429,154.51639255682628L269.296875,154.62669186592103L270.36551339285717,154.58943434556326L271.4341517857143,154.48192164897918L272.50279017857144,154.55716651678085L273.57142857142856,154.55064988533655L274.6400669642857,154.63868747552235L275.70870535714283,154.5351150949796L276.77734375,154.6371764779091L277.84598214285717,154.67063505252202L278.9146205357143,154.45752155780792L279.98325892857144,154.6993428349495L281.05189732142856,154.0704449971517L282.1205357142857,154.530588666598L283.18917410714283,154.25666203101474L284.2578125,154.68629644314447L285.32645089285717,154.67453574736913L286.3950892857143,154.5859408815702L287.46372767857144,154.56192668676377L288.53236607142856,154.3714136838913" style="fill: none;" fill="none"></path></g><g><path stroke="rgb(0, 119, 187)" stroke-width="2px" d="M277.84598214285717,153.9697675426801Z" style="fill: none;" fill="none"></path></g></g></g></g></g></g><g transform="translate(30, 177)" clip-path="url(#clip_1)"><clipPath id="clip_1"><rect width="299" height="23"></rect></clipPath><g><g><line x1="0" y1="0" x2="0" y2="5" style="visibility: inherit;" fill="rgb(0, 0, 0)" stroke="rgb(204, 204, 204)" stroke-width="1px"></line><line x1="21.372767857142858" y1="0" x2="21.372767857142858" y2="5" style="visibility: inherit;" fill="rgb(0, 0, 0)" stroke="rgb(204, 204, 204)" stroke-width="1px"></line><line x1="42.745535714285715" y1="0" x2="42.745535714285715" y2="5" style="visibility: inherit;" fill="rgb(0, 0, 0)" stroke="rgb(204, 204, 204)" stroke-width="1px"></line><line x1="64.11830357142857" y1="0" x2="64.11830357142857" y2="5" style="visibility: inherit;" fill="rgb(0, 0, 0)" stroke="rgb(204, 204, 204)" stroke-width="1px"></line><line x1="85.49107142857143" y1="0" x2="85.49107142857143" y2="5" style="visibility: inherit;" fill="rgb(0, 0, 0)" stroke="rgb(204, 204, 204)" stroke-width="1px"></line><line x1="106.86383928571429" y1="0" x2="106.86383928571429" y2="5" style="visibility: inherit;" fill="rgb(0, 0, 0)" stroke="rgb(204, 204, 204)" stroke-width="1px"></line><line x1="128.23660714285714" y1="0" x2="128.23660714285714" y2="5" style="visibility: inherit;" fill="rgb(0, 0, 0)" stroke="rgb(204, 204, 204)" stroke-width="1px"></line><line x1="149.609375" y1="0" x2="149.609375" y2="5" style="visibility: inherit;" fill="rgb(0, 0, 0)" stroke="rgb(204, 204, 204)" stroke-width="1px"></line><line x1="170.98214285714286" y1="0" x2="170.98214285714286" y2="5" style="visibility: inherit;" fill="rgb(0, 0, 0)" stroke="rgb(204, 204, 204)" stroke-width="1px"></line><line x1="192.35491071428572" y1="0" x2="192.35491071428572" y2="5" style="visibility: inherit;" fill="rgb(0, 0, 0)" stroke="rgb(204, 204, 204)" stroke-width="1px"></line><line x1="213.72767857142858" y1="0" x2="213.72767857142858" y2="5" style="visibility: inherit;" fill="rgb(0, 0, 0)" stroke="rgb(204, 204, 204)" stroke-width="1px"></line><line x1="235.10044642857142" y1="0" x2="235.10044642857142" y2="5" style="visibility: inherit;" fill="rgb(0, 0, 0)" stroke="rgb(204, 204, 204)" stroke-width="1px"></line><line x1="256.4732142857143" y1="0" x2="256.4732142857143" y2="5" style="visibility: inherit;" fill="rgb(0, 0, 0)" stroke="rgb(204, 204, 204)" stroke-width="1px"></line><line x1="277.84598214285717" y1="0" x2="277.84598214285717" y2="5" style="visibility: inherit;" fill="rgb(0, 0, 0)" stroke="rgb(204, 204, 204)" stroke-width="1px"></line><line x1="299.21875" y1="0" x2="299.21875" y2="5" style="visibility: inherit;" fill="rgb(0, 0, 0)" stroke="rgb(204, 204, 204)" stroke-width="1px"></line></g><g transform="translate(0, 8)"><text x="0" y="0" dx="0em" dy="0.95em" style="text-anchor: middle; visibility: hidden; font-family: Roboto, sans-serif; font-size: 12px; font-weight: 200;" fill="rgb(33, 33, 33)" stroke="none" stroke-width="1px">-2k</text><text x="21.372767857142858" y="0" dx="0em" dy="0.95em" style="text-anchor: middle; visibility: inherit; font-family: Roboto, sans-serif; font-size: 12px; font-weight: 200;" fill="rgb(33, 33, 33)" stroke="none" stroke-width="1px">0</text><text x="42.745535714285715" y="0" dx="0em" dy="0.95em" style="text-anchor: middle; visibility: hidden; font-family: Roboto, sans-serif; font-size: 12px; font-weight: 200;" fill="rgb(33, 33, 33)" stroke="none" stroke-width="1px">2k</text><text x="64.11830357142857" y="0" dx="0em" dy="0.95em" style="text-anchor: middle; visibility: inherit; font-family: Roboto, sans-serif; font-size: 12px; font-weight: 200;" fill="rgb(33, 33, 33)" stroke="none" stroke-width="1px">4k</text><text x="85.49107142857143" y="0" dx="0em" dy="0.95em" style="text-anchor: middle; visibility: hidden; font-family: Roboto, sans-serif; font-size: 12px; font-weight: 200;" fill="rgb(33, 33, 33)" stroke="none" stroke-width="1px">6k</text><text x="106.86383928571429" y="0" dx="0em" dy="0.95em" style="text-anchor: middle; visibility: inherit; font-family: Roboto, sans-serif; font-size: 12px; font-weight: 200;" fill="rgb(33, 33, 33)" stroke="none" stroke-width="1px">8k</text><text x="128.23660714285714" y="0" dx="0em" dy="0.95em" style="text-anchor: middle; visibility: hidden; font-family: Roboto, sans-serif; font-size: 12px; font-weight: 200;" fill="rgb(33, 33, 33)" stroke="none" stroke-width="1px">10k</text><text x="149.609375" y="0" dx="0em" dy="0.95em" style="text-anchor: middle; visibility: inherit; font-family: Roboto, sans-serif; font-size: 12px; font-weight: 200;" fill="rgb(33, 33, 33)" stroke="none" stroke-width="1px">12k</text><text x="170.98214285714286" y="0" dx="0em" dy="0.95em" style="text-anchor: middle; visibility: hidden; font-family: Roboto, sans-serif; font-size: 12px; font-weight: 200;" fill="rgb(33, 33, 33)" stroke="none" stroke-width="1px">14k</text><text x="192.35491071428572" y="0" dx="0em" dy="0.95em" style="text-anchor: middle; visibility: inherit; font-family: Roboto, sans-serif; font-size: 12px; font-weight: 200;" fill="rgb(33, 33, 33)" stroke="none" stroke-width="1px">16k</text><text x="213.72767857142858" y="0" dx="0em" dy="0.95em" style="text-anchor: middle; visibility: hidden; font-family: Roboto, sans-serif; font-size: 12px; font-weight: 200;" fill="rgb(33, 33, 33)" stroke="none" stroke-width="1px">18k</text><text x="235.10044642857142" y="0" dx="0em" dy="0.95em" style="text-anchor: middle; visibility: inherit; font-family: Roboto, sans-serif; font-size: 12px; font-weight: 200;" fill="rgb(33, 33, 33)" stroke="none" stroke-width="1px">20k</text><text x="256.4732142857143" y="0" dx="0em" dy="0.95em" style="text-anchor: middle; visibility: hidden; font-family: Roboto, sans-serif; font-size: 12px; font-weight: 200;" fill="rgb(33, 33, 33)" stroke="none" stroke-width="1px">22k</text><text x="277.84598214285717" y="0" dx="0em" dy="0.95em" style="text-anchor: middle; visibility: inherit; font-family: Roboto, sans-serif; font-size: 12px; font-weight: 200;" fill="rgb(33, 33, 33)" stroke="none" stroke-width="1px">24k</text><text x="299.21875" y="0" dx="0em" dy="0.95em" style="text-anchor: middle; visibility: hidden; font-family: Roboto, sans-serif; font-size: 12px; font-weight: 200;" fill="rgb(33, 33, 33)" stroke="none" stroke-width="1px">26k</text></g><line x1="0" y1="0" x2="299.21875" y2="0" fill="rgb(0, 0, 0)" stroke="rgb(204, 204, 204)" stroke-width="1px"></line></g></g></g></g></svg>